SplineFontDB: 3.2
FontName: Untitled1
FullName: Untitled1
FamilyName: Untitled1
Weight: Regular
Copyright: Copyright (c) 2023, Lambda
UComments: "2023-12-21: Created with FontForge (http://fontforge.org)"
Version: 001.000
ItalicAngle: 0
UnderlinePosition: -100
UnderlineWidth: 50
Ascent: 800
Descent: 200
InvalidEm: 0
LayerCount: 2
Layer: 0 0 "Back" 1
Layer: 1 0 "Fore" 0
XUID: [1021 196 506097002 16201]
StyleMap: 0x0000
FSType: 0
OS2Version: 0
OS2_WeightWidthSlopeOnly: 0
OS2_UseTypoMetrics: 1
CreationTime: 1703187174
ModificationTime: 1703431857
OS2TypoAscent: 0
OS2TypoAOffset: 1
OS2TypoDescent: 0
OS2TypoDOffset: 1
OS2TypoLinegap: 90
OS2WinAscent: 0
OS2WinAOffset: 1
OS2WinDescent: 0
OS2WinDOffset: 1
HheadAscent: 0
HheadAOffset: 1
HheadDescent: 0
HheadDOffset: 1
Lookup: 4 0 1 "'liga' Standard Ligatures in Latin lookup 0" { "'liga' Standard Ligatures in Latin lookup 0-1"  } ['liga' ('DFLT' <'dflt' > 'latn' <'dflt' > ) ]
DEI: 91125
Encoding: ISO8859-1
UnicodeInterp: none
NameList: AGL For New Fonts
DisplaySize: -48
AntiAlias: 1
FitToEm: 0
WinInfo: 0 39 14
BeginChars: 259 181

StartChar: p
Encoding: 112 112 0
Width: 717
Flags: W
HStem: 0 60.5371<-74.9609 65 206 773> 0 21G<801.667 816> 485 52<503 641> 493 49<195 352> 729 20G<520.763 546.043> 729 20G<520.763 546.043>
LayerCount: 2
Fore
SplineSet
-90 60.537109375 m 1x80
 65 60 l 1
 352 493 l 1
 147 495 l 1
 195 540 l 1
 397 542 l 1x90
 534 749 l 1
 590 656 l 1
 503 538 l 1
 680 537 l 1
 641 485 l 1
 480 486 l 1
 206 60 l 1
 773 60 l 1
 816 0 l 1x68
 816 0 459.63671934 2.27920407833 169 0.4326171875 c 0
 161.9296875 0.3876953125 154.926757102 0.342887781826 148 0.2998046875 c 0
 36.2099609375 -0.3955078125 3.052734375 -0.2490234375 -38 0 c 0
 -52.837890625 0.0908203125 -68 0.263671875 -68 0.537109375 c 0
 -68 3.537109375 -90 60.537109375 -90 60.537109375 c 1x80
EndSplineSet
Validated: 33
EndChar

StartChar: k
Encoding: 107 107 1
Width: 684
Flags: W
HStem: -0.537109 60.5371<-93.9609 108 230 759> 0 21G<786.333 800> 729 20G<560.473 583.495> 729 20G<560.473 583.495>
LayerCount: 2
Fore
SplineSet
621 650 m 1xa0
 230 60 l 1
 759 60 l 1xa0
 800 0 l 1x40
 800 0 499.63671875 2.279296875 209 0.4326171875 c 0
 201.9296875 0.3876953125 194.926757812 0.3427734375 188 0.2998046875 c 0
 76.2099609375 -0.3955078125 -15.947265625 -0.7861328125 -57 -0.537109375 c 0x80
 -71.837890625 -0.4462890625 -87 -0.2734375 -87 0 c 0x40
 -87 3 -109 60 -109 60 c 1
 108 60 l 1
 574 749 l 1
 621 650 l 1xa0
EndSplineSet
Validated: 33
EndChar

StartChar: ntilde
Encoding: 241 241 2
Width: 741
Flags: W
HStem: 0 60.5371<-64.9609 535 650 778> 0 21G<806.667 821> 493 46<119 227 347 470> 730 20G<180 203.654> 730 20G<180 203.654>
LayerCount: 2
Fore
SplineSet
-80 60.537109375 m 1xa0
 535 60 l 1
 235 493 l 1
 72 495 l 1
 119 540 l 1
 194 539 l 1
 227 539 l 0
 140 650 l 1
 190 750 l 1
 332 542 l 1
 509 541 l 1
 470 489 l 1
 347 491 l 1
 650 60 l 1
 778 60 l 1
 821 0 l 1x70
 821 0 587.636825294 2.27920475152 297 0.4326171875 c 0
 289.9296875 0.3876953125 282.926757102 0.342887781823 276 0.2998046875 c 0
 164.209960938 -0.3955078125 13.052734375 -0.2490234375 -28 0 c 0
 -42.837890625 0.0908203125 -58 0.263671875 -58 0.537109375 c 0
 -58 3.537109375 -80 60.537109375 -80 60.537109375 c 1xa0
EndSplineSet
Validated: 33
EndChar

StartChar: l
Encoding: 108 108 3
Width: 448
Flags: W
HStem: 0.521484 59.4785<-43.8496 150 255 497> 730 20G<221.129 255> 730 20G<221.129 255>
VStem: 150 105<60 406 496 688>
LayerCount: 2
Fore
SplineSet
150 530 m 1xd0
 150 556 l 1
 150 584 l 1
 150 609 l 1
 150 688 l 0
 255 750 l 0
 255 496 l 0
 392 349 l 0
 314 349 l 0
 255 406 l 0
 255 60 l 0
 497 60 l 0
 538 0 l 0
 449.529296875 0.521484375 l 0
 356.131399355 1.14139531414 l 2
 127.165039062 0.3046875 l 2
 43 0 l 0
 -13.849609375 0.048828125 l 0
 -28.208984375 0.1669921875 l 0
 -39.3779296875 0.345703125 l 0
 -43.849609375 0.5859375 l 0
 -49.5439453125 17.4482421875 l 0
 -60.15625 45.72265625 l 0
 -65.849609375 60.5859375 l 0
 150 60 l 0
 150 530 l 1xd0
EndSplineSet
Validated: 1
EndChar

StartChar: b
Encoding: 98 98 4
Width: 521
Flags: W
HStem: 0.240234 60<-64.4717 215 320 557.471> 730 20G<286.129 320> 730 20G<286.129 320>
VStem: 215 105<60 406 496 530 609 688>
LayerCount: 2
Fore
SplineSet
215 530 m 1xd0
 149 468 l 1
 73 468 l 1
 215 609 l 1
 215 688 l 0
 320 750 l 0
 320 496 l 0
 457 349 l 0
 379 349 l 0
 320 406 l 0
 320 60 l 0
 557.470703125 59.478515625 l 0
 598.470703125 -0.521484375 l 0
 510 0 l 0
 421.131835938 1.1416015625 l 0
 139 0.4326171875 l 0
 131.959960938 0.3876953125 l 0
 124.9453125 0.34375 l 0
 118 0.2998046875 l 0
 106.54296875 -0.041015625 l 0
 22.37890625 -0.345703125 l 0
 -34.4716796875 -0.296875 l 0
 -48.8310546875 -0.177734375 l 0
 -60 0 l 0
 -64.4716796875 0.240234375 l 0
 -70.166015625 17.1025390625 l 0
 -80.77734375 45.376953125 l 0
 -86.4716796875 60.240234375 l 0
 215 60 l 0
 215 530 l 1xd0
EndSplineSet
Validated: 1
EndChar

StartChar: x
Encoding: 120 120 5
Width: 384
Flags: W
HStem: 0 60.5371<-70.9609 150 255 419> 0 21G<446.333 460> 730 20G<221.129 255> 730 20G<221.129 255>
VStem: 150 105<60 688>
LayerCount: 2
Fore
SplineSet
255 750 m 1xa8
 255 334 l 0
 255 60 l 1
 419 60 l 1
 460 0 l 1x68
 460 0 364.63671934 2.27920407833 74 0.4326171875 c 0
 66.9296875 0.3876953125 59.9267571022 0.342887781826 53 0.2998046875 c 0
 -58.7900390625 -0.3955078125 7.052734375 -0.2490234375 -34 0 c 0
 -48.837890625 0.0908203125 -64 0.263671875 -64 0.537109375 c 0
 -64 3.537109375 -86 60.537109375 -86 60.537109375 c 1
 150 60 l 1
 150 688 l 1
 255 750 l 1xa8
EndSplineSet
Validated: 33
EndChar

StartChar: n
Encoding: 110 110 6
Width: 429
Flags: W
HStem: 0.28125 60<-44.0146 214 319 476> 730 20G<285.129 319> 730 20G<285.129 319>
VStem: 214 105<60 530 609 688>
LayerCount: 2
Fore
SplineSet
214 530 m 1xd0
 148 468 l 1
 72 468 l 1
 214 609 l 1
 214 688 l 0
 319 750 l 0
 319 501 l 0
 319 496 l 0
 319 426 l 0
 319 406 l 0
 319 60 l 0
 476 60 l 0
 517 0 l 0
 428.529296875 0.521484375 l 0
 420.131835938 1.1416015625 l 0
 138 0.4326171875 l 0
 130.959960938 0.3876953125 l 0
 123.9453125 0.34375 l 0
 117 0.2998046875 l 0
 127 0 l 0
 42.8359375 -0.3046875 l 0
 -14.0146484375 -0.255859375 l 0
 -28.3740234375 -0.13671875 l 0
 -39.54296875 0.041015625 l 0
 -44.0146484375 0.28125 l 0
 -49.708984375 17.1435546875 l 0
 -60.3203125 45.41796875 l 0
 -66.0146484375 60.28125 l 0
 214 60 l 0
 214 530 l 1xd0
EndSplineSet
Validated: 1
EndChar

StartChar: r
Encoding: 114 114 7
Width: 627
Flags: W
HStem: 0.432617 59.5674<-58.4482 -51 245 464 562.418 660>
LayerCount: 2
Fore
SplineSet
562.41796875 60 m 1
 432.41796875 330 l 1
 383.41796875 252 l 1
 464 60 l 1
 199 60 l 1
 240 147 l 1
 291 256 l 1
 337 358 l 1
 377 445 l 0
 421 542 l 1
 490 680 l 1
 431 761 l 1
 326 541 l 1
 301 481 l 1
 259 392 l 1
 166 198 l 1
 100 60 l 1
 -73 60 l 1
 -73 60 -51 3 -51 0 c 0
 -51 -0.2734375 -35.837890625 -0.4462890625 -21 -0.537109375 c 0
 20.052734375 -0.7861328125 112.209960938 -0.3955078125 224 0.2998046875 c 0
 230.926757812 0.3427734375 237.929687514 0.387693055038 245 0.4326171875 c 0
 535.63671875 2.279296875 703 0 703 0 c 5
 660 60 l 5
 562.41796875 60 l 1
EndSplineSet
Validated: 41
EndChar

StartChar: d
Encoding: 100 100 8
Width: 524
Flags: W
HStem: 0 60<-50 226 331 576> 730 20G<297.129 330.47 414.387 452.099>
VStem: 226 104.235<60 382 599 688>
LayerCount: 2
Fore
SplineSet
226 382 m 1
 97 303 l 1
 124 379 l 1
 124 379.000976562 226 442 226 442 c 1
 226 491 l 1
 97 413 l 1
 124 486 l 1
 224 550 l 1
 226 688 l 0
 331 750 l 0
 327 599 l 0
 456 661 l 0
 427 582 l 0
 329 531 l 0
 330 496 l 1
 460 558 l 1
 428 477 l 1
 330.235351562 426 l 1
 331 60 l 0
 576 60 l 0
 617 0 l 0
 528.529296875 0.521484375 l 0
 489.661132812 1.6630859375 l 0
 150 0.4326171875 l 0
 142.959960938 0.3876953125 l 0
 135.9453125 0.34375 l 0
 129 0.2998046875 l 0
 121.014648438 -0.28125 l 0
 36.8505859375 -0.5859375 l 0
 -20 -0.537109375 l 0
 -34.359375 -0.41796875 l 0
 -45.5283203125 -0.240234375 l 0
 -50 0 l 0
 -55.6943359375 16.8623046875 l 0
 -66.3056640625 45.13671875 l 0
 -72 60 l 0
 226 60 l 0
 226 382 l 1
EndSplineSet
Validated: 1
EndChar

StartChar: z
Encoding: 122 122 9
Width: 492
Flags: W
HStem: 0.304688 60<-93.8359 194 299 539.471> 730 20G<265.129 299 380.897 416.658>
VStem: 194 105<60 491 603 688>
LayerCount: 2
Fore
SplineSet
194 491 m 1
 65 413 l 1
 92 486 l 1
 192 550 l 1
 194 688 l 0
 299 750 l 0
 299 603 l 0
 424 661 l 0
 395 582 l 0
 297 531 l 0
 299 60 l 0
 539.470703125 59.478515625 l 0
 580.470703125 -0.521484375 l 0
 492 0 l 0
 400.131835938 1.1416015625 l 0
 118 0.4326171875 l 0
 110.959960938 0.3876953125 l 0
 103.9453125 0.34375 l 0
 97 0.2998046875 l 0
 77.1787109375 0.0234375 l 0
 -6.9853515625 -0.28125 l 0
 -63.8359375 -0.232421875 l 0
 -78.1953125 -0.11328125 l 0
 -89.3642578125 0.064453125 l 0
 -93.8359375 0.3046875 l 0
 -99.5302734375 17.1669921875 l 0
 -110.141601562 45.44140625 l 0
 -115.8359375 60.3046875 l 0
 194 60 l 0
 194 491 l 1
EndSplineSet
Validated: 1
EndChar

StartChar: R
Encoding: 82 82 10
Width: 621
Flags: HMW
LayerCount: 2
Fore
SplineSet
528.41796875 60 m 1
 398.41796875 330 l 1
 349.41796875 252 l 1
 430 60 l 1
 165 60 l 1
 364 490 l 1
 458 489 l 1
 497 541 l 1
 387 542 l 1
 456 680 l 1
 397 761 l 1
 292 541 l 1
 196 540 l 1
 148 495 l 1
 272 493 l 1
 66 60 l 1
 -107 60 l 1
 -107 60 -85 3 -85 0 c 0
 -85 -0.2734375 -69.837890625 -0.4462890625 -55 -0.537109375 c 0
 -13.947265625 -0.7861328125 78.2099609375 -0.3955078125 190 0.2998046875 c 0
 196.926757812 0.3427734375 203.929687514 0.387693055038 211 0.4326171875 c 0
 501.63671875 2.279296875 693 0 693 0 c 5
 650 60 l 5
 528.41796875 60 l 1
EndSplineSet
Validated: 41
EndChar

StartChar: C
Encoding: 67 67 11
Width: 694
Flags: W
HStem: 0.432617 59.5674<-85.4482 -78 257 522 622 766>
LayerCount: 2
Fore
SplineSet
675 60 m 1
 654 60 l 1
 643 60 l 0
 622 60 l 0
 506.627929688 302 l 0
 417 490 l 1
 437 490 l 0
 492 490 l 1
 537 540 l 1
 409 540 l 0
 397 540 l 0
 287 760 l 1
 232 680 l 1
 302 540 l 1
 227 540 l 1
 187 490 l 1
 322 490 l 1
 433 251 l 0
 522 60 l 1
 257 60 l 1
 337 250 l 1
 287 330 l 1
 157 60 l 1
 -100 60 l 1
 -100 60 -78 3 -78 0 c 0
 -78 -0.2734375 -62.837890625 -0.4462890625 -48 -0.537109375 c 0
 -28.453125 -0.6552734375 2.6787109375 -0.62890625 42 -0.494140625 c 0
 46.55859375 -0.478515625 51.2265625 -0.4609375 56 -0.4423828125 c 0
 96.5283203125 -0.28515625 144.607421875 -0.0263671875 197 0.2998046875 c 0
 203.926757812 0.3427734375 210.9296875 0.3876953125 218 0.4326171875 c 0
 508.63671875 2.279296875 809 0 809 0 c 1
 766 60 l 1
 675 60 l 1
EndSplineSet
Validated: 41
EndChar

StartChar: m
Encoding: 109 109 12
Width: 616
Flags: W
HStem: 0 60.5371<-78.9609 87 187 452 552 696> 0 21G<724.667 739>
LayerCount: 2
Fore
SplineSet
162 680 m 0x80
 217 760 l 0
 218 758 552 60 552 60 c 0
 573 60 l 0
 584 60 l 1
 605 60 l 1
 696 60 l 1
 739 0 l 1x40
 739 0 438.63671875 2.279296875 148 0.4326171875 c 0
 140.9296875 0.3876953125 133.926756855 0.34292746084 127 0.2998046875 c 0
 74.607421875 -0.0263671875 102.528320312 0.251953125 62 0.0947265625 c 0
 57.2265625 0.076171875 52.55859375 0.05859375 48 0.04296875 c 0
 8.6787109375 -0.091796875 -22.453125 -0.1181640625 -42 0 c 0
 -56.837890625 0.0908203125 -72 0.263671875 -72 0.537109375 c 0
 -72 3.537109375 -94 60.537109375 -94 60.537109375 c 1
 87 60 l 1
 217 330 l 1
 267 250 l 1
 187 60 l 1
 452 60 l 1
 452 60 162 678 162 680 c 0x80
EndSplineSet
Validated: 33
EndChar

StartChar: Z
Encoding: 90 90 13
Width: 713
Flags: W
HStem: -0.537109 60.5371<-70.9609 471 585 782> 0 21G<809.333 823> 730 20G<115 138.333> 730 20G<115 138.333>
LayerCount: 2
Fore
SplineSet
125 750 m 1xa0
 585 60 l 1
 782 60 l 1xa0
 823 0 l 1x40
 823 0 522.63671875 2.279296875 232 0.4326171875 c 0
 224.9296875 0.3876953125 217.926757812 0.3427734375 211 0.2998046875 c 0
 99.2099609375 -0.3955078125 7.052734375 -0.7861328125 -34 -0.537109375 c 0x80
 -48.837890625 -0.4462890625 -64 -0.2734375 -64 0 c 0x40
 -64 3 -86 60 -86 60 c 1
 471 60 l 1
 75 650 l 1
 125 750 l 1xa0
EndSplineSet
Validated: 33
EndChar

StartChar: e
Encoding: 101 101 14
Width: 892
Flags: W
HStem: 0 60<0.0075549 211.567 773 1000>
VStem: 246 111<505.13 634.506> 543 98<486.949 639.62>
LayerCount: 2
Fore
SplineSet
448 422 m 1
 448 422 544.11399223 450.004885837 543 577 c 4
 542.210526316 667 458 668 458 668 c 1
 458 668 356.228813559 667 357 576 c 0
 358.016912637 456.004308874 441 422 448 422 c 1
1000 60 m 1
 1000 0 l 1
 773 0 l 1
 773 0 700 15 474 255 c 0
 473.058333333 256 281.231310932 0 204 0 c 3
 170 0 46.528853328 0 19 0 c 3
 17.8508817653 0 13.8701171875 -0.177734375 13 0 c 0
 10.4099090325 0.529064597178 0 0 0 0 c 1
 0 60 l 1
 0 60 111.888974491 60 184 60 c 3
 202.110770276 60 375 238 403 316 c 0
 403 316 246 482 246 584 c 0
 246 686 371.994117851 768 457 768 c 0
 566 768 641 637 641 586 c 0
 641 540 612 402 533 341 c 0
 527 336.367088608 542.015842055 320.105406375 560.000001223 299.140223355 c 0
 599.556294611 253.027145577 698.9921875 93.9736328125 810 60 c 0
 811.32421875 59.5947265625 839.981445312 60 856 60 c 2
 1000 60 l 1
EndSplineSet
Validated: 33
EndChar

StartChar: i
Encoding: 105 105 15
Width: 614
Flags: W
HStem: 0 62<-96 113>
VStem: 203 270<441 632>
LayerCount: 2
Fore
SplineSet
473 632 m 0
 473 633 455 705 454 705 c 0
 279 705 204.49609375 629 203 441 c 0
 199.928710938 55 113 62 113 62 c 1
 -96 60 l 1
 -96 0 l 1
 21 0 -21.0537109375 4.8779296875 107 0 c 0
 317 -8 244 183 292 434 c 0
 324.984375 606.481445312 382 622 461 631 c 0
 462.057617188 631.120117188 463.063476562 631.131835938 464 631.1875 c 0
 469.708984375 631.521484375 473 631.60546875 473 632 c 0
EndSplineSet
Validated: 41
EndChar

StartChar: a
Encoding: 97 97 16
Width: 889
Flags: W
HStem: 0 60<-58 95> 514 20G<192 633>
LayerCount: 2
Fore
SplineSet
-58 0 m 1
 -90 62 l 1
 95 61 l 1
 95 61 192.896484375 75.0009765625 192 534 c 0
 191.998046875 535 633 534 633 534 c 1
 633 534 634 60 784 60 c 0
 836 60 l 0
 942 60 l 0
 944 60 l 1
 944 60 975 -4 975 0 c 0
 975 2 789 0 789 0 c 1
 789 0 778.658203125 0.15234375 762 3.611328125 c 0
 751.024414062 5.8896484375 737.307617188 9.603515625 722 15.6552734375 c 0
 641.430664062 47.505859375 516.80078125 144.108398438 516 437 c 0
 515.986328125 442 305 437 305 437 c 25
 305 437 304 0 98 0 c 0
 90 0 l 0
 -58 0 l 1
EndSplineSet
Validated: 37
EndChar

StartChar: u
Encoding: 117 117 17
Width: 579
Flags: W
VStem: 467 107<146.765 267.303>
LayerCount: 2
Fore
SplineSet
270 476 m 1
 271 477 186 412 186 412 c 1
 186 412 467 351 467 205 c 0
 467 59 182 60 182 60 c 1
 -82 60 l 1
 -51 0 l 1
 -13 0 182 0 182 0 c 1
 182 0 582 0 574 206 c 0
 565.827148438 416.452148438 270 476 270 476 c 1
EndSplineSet
Validated: 41
EndChar

StartChar: o
Encoding: 111 111 18
Width: 1000
HStem: 0 60<836 1000> 536 20G<428.926 543.5>
LayerCount: 2
Fore
SplineSet
-29 0 m 0
 -29 1 -55 60 -55 60 c 1
 125 60 l 1
 125 60 197 79 278 -66 c 0
 305.353947691 -114.966943398 334 -120 340 -68 c 0
 340.114257812 -67.0068359375 372.852539062 556 485 556 c 0
 602 556 632.071847281 66.8558040879 839 63 c 2
 1000 60 l 1
 1042 0 l 25
 836 0 l 1
 836 0 612 -17 524 404 c 0
 512.746772348 457.836464106 457 450 457 405 c 0
 457 403.585786438 438.582036748 -190.048503062 318 -180 c 0
 222 -172 127 0 127 0 c 1
 127 0 -29 -1 -29 0 c 0
EndSplineSet
Validated: 33
EndChar

StartChar: egrave
Encoding: 232 232 19
Width: 745
Flags: W
HStem: 0 60<-85.1929 12> 0 21G<-94 8> 397 70<411 487> 656 52<364.121 432.191>
LayerCount: 2
Fore
SplineSet
411 467 m 0x30
 451 467 469 654 411 656 c 0
 321.053710938 659.1015625 336 532 336 532 c 1
 336 532 339.993164062 467 411 467 c 0x30
275 531 m 0
 274.88671875 531.993164062 232 710 417 708 c 0
 586.990234375 706.162109375 499.001953125 463.637695312 497 462 c 0
 493.053710938 458.770507812 620 462 696 468 c 0
 698 468.158203125 728 404 728 404 c 1
 728 404 494.0078125 397 487 397 c 0
 472 397 448 0 8 0 c 0xb0
 -416 0 -42 0 -87 0 c 25x70
 -108 60 l 1
 12 60 l 17xb0
 12 60 243.399414062 61.8173828125 346 221.506835938 c 0
 375.225585938 266.993164062 396 324 399 399 c 0
 399 399 291.995117188 381.999023438 275 531 c 0
EndSplineSet
Validated: 37
EndChar

StartChar: agrave
Encoding: 224 224 20
Width: 613
Flags: W
HStem: 0 60<-52 64> 368 308<404.047 526.723> 375 62<184 316>
LayerCount: 2
Fore
SplineSet
420 445 m 0x80
 566 456 515 601 464 611 c 0
 420.72194975 619.485892206 413.934566805 444.543015307 420 445 c 0x80
184 373 m 25
 187 373 184 432 184 432 c 1
 316 437 l 25xa0
 316 437 317 676 468 676 c 8
 619 676 595 460 595 460 c 1
 595 460 582 368 412 368 c 0xc0
 400 368 348 0 70 0 c 0
 68 0 -52 0 -52 0 c 1
 -88 60 l 1
 64 60 l 1
 64 60 321 110 316 375 c 0xa0
 184 373 l 25
EndSplineSet
Validated: 33
EndChar

StartChar: space
Encoding: 32 32 21
Width: 473
Flags: W
HStem: 559 73<196.193 322.625>
LayerCount: 2
Fore
SplineSet
166 499 m 1
 166 499 182 559 248.605214915 559 c 0
 283 559 300 543 300 543 c 1
 349 579 l 1
 349 579 369 632 281.328413909 632 c 0
 129 632 96 472 96 472 c 25
 166 499 l 1
EndSplineSet
Validated: 41
EndChar

StartChar: quotesingle
Encoding: 39 39 22
Width: 236
Flags: W
HStem: 463 245
LayerCount: 2
Fore
SplineSet
105 463 m 0
 104 462.599609375 42 488 42 488 c 1
 42 488 136.837890625 572 141 708 c 0
 141.18359375 714 187 674.34765625 196 669 c 0
 215 657.709960938 163.9921875 486.620117188 105 463 c 0
EndSplineSet
Validated: 33
EndChar

StartChar: at
Encoding: 64 64 23
Width: 1139
VWidth: 2048
Flags: W
HStem: 117 76.875<524.75 601.625> 509.25 21G<385.625 458> 620.625 55.5<499.148 630.21>
VStem: 385.625 69.375<516.668 573.784> 524.75 76.875<117 193.875> 528.5 65.25<252.375 343.97> 671 69.375<466.207 580.855>
LayerCount: 2
Fore
SplineSet
528.875 252.375 m 1xf6
 528.625 261.375 528.5 268.125 528.5 272.625 c 0
 528.5 299.125 532.25 322 539.75 341.25 c 0
 545.25 355.75 554.125 370.375 566.375 385.125 c 0
 575.375 395.875 591.5625 411.5625 614.9375 432.1875 c 0
 638.3125 452.8125 653.5 469.25 660.5 481.5 c 0
 667.5 493.75 671 507.125 671 521.625 c 0
 671 547.875 660.75 570.9375 640.25 590.8125 c 0
 619.75 610.6875 594.625 620.625 564.875 620.625 c 0
 536.125 620.625 512.125 611.625 492.875 593.625 c 0
 473.625 575.625 461 547.5 455 509.25 c 1
 385.625 517.5 l 1
 391.875 568.75 410.4375 608 441.3125 635.25 c 0
 472.1875 662.5 513 676.125 563.75 676.125 c 0
 617.5 676.125 660.375 661.5 692.375 632.25 c 0
 724.375 603 740.375 567.625 740.375 526.125 c 0
 740.375 502.125 734.75 480 723.5 459.75 c 0
 712.25 439.5 690.25 414.875 657.5 385.875 c 0
 635.5 366.375 621.125 352 614.375 342.75 c 0
 607.625 333.5 602.625 322.875 599.375 310.875 c 0
 596.125 298.875 594.25 279.375 593.75 252.375 c 1
 528.875 252.375 l 1xf6
524.75 117 m 1xfa
 524.75 193.875 l 1
 601.625 193.875 l 1
 601.625 117 l 1
 524.75 117 l 1xfa
EndSplineSet
Validated: 1
EndChar

StartChar: zero
Encoding: 48 48 24
Width: 457
Flags: W
VStem: 124 97<363 693> 132 86<363 640.75>
LayerCount: 2
Fore
SplineSet
140 60 m 0x40
 -76 60.537109375 l 0
 -70.306640625 45.673828125 l 0
 -59.6943359375 17.3994140625 l 0
 -54 0.537109375 l 0
 -49.5283203125 0.296875 l 0
 -38.359375 0.1181640625 l 0
 -24 0 l 0
 89.849609375 -0.048828125 l 0
 117.165039062 0.3046875 l 2
 346.131835938 1.1416015625 l 2
 439.529296875 0.521484375 l 0
 528 0 l 0
 487 60 l 0
 245 60 l 0
 245 60 359 261 432 366 c 1
 218 363 l 1x40
 221 749 l 1
 124 693 l 1x80
 132 275 l 1
 284 275 l 1
 140 60 l 0x40
EndSplineSet
Validated: 9
EndChar

StartChar: period
Encoding: 46 46 25
Width: 686
Flags: W
HStem: 674 20G<265.333 297>
VStem: 221 242
LayerCount: 2
Fore
SplineSet
221 646 m 5
 297 694 l 5
 297 694 336 338 463 358 c 4
 437 276 l 5
 437 276 300 303 260 470 c 4
 226.923828125 608.09375 221 646 221 646 c 5
EndSplineSet
Validated: 33
EndChar

StartChar: four
Encoding: 52 52 26
Width: 490
InSpiro: 1
Flags: W
HStem: 0.521484 59.4785<-45.4717 173 278 520> 275 88<251 317> 534.086 54.9139<94 159.01 252.128 329> 729 20G<219.357 253.75> 729 20G<219.357 253.75>
VStem: 160.494 91.6334<363 534.086 589 693>
LayerCount: 2
Fore
SplineSet
160.494245381 536.425678841 m 0xec
 52 537 l 0
 94 587 l 0
 159.009569378 588 l 0
 157 693 l 0
 254 749 l 0
 252 589 l 0
 375 589 l 0
 329 534 l 0
 252.127612204 534.086103518 l 0
 251 363 l 0
 465 366 l 0
 384.157188735 240.136000989 l 0
 310.200502265 115.899034011 l 0
 278 60 l 0
 520 60 l 0
 561 0 l 0
 472.529296875 0.521484375 l 0
 379.131835938 1.1416015625 l 0
 68.693359375 0.0078125 l 0
 41.3779296875 -0.345703125 l 0
 -15.4716796875 -0.296875 l 0
 -29.8310546875 -0.1787109375 l 0
 -41 0 l 0
 -45.4716796875 0.240234375 l 0
 -51.166015625 17.1025390625 l 0
 -61.7783203125 45.376953125 l 0
 -67.4716796875 60.240234375 l 0
 173 60 l 0
 317 275 l 0
 165 275 l 0
 160.494245381 536.425678841 l 0xec
  Spiro
    160.494 536.426 o
    52 537 o
    94 587 o
    159.01 588 o
    157 693 v
    254 749 v
    252 589 o
    375 589 o
    329 534 o
    252.128 534.086 o
    251 363 v
    465 366 v
    384.157 240.136 o
    310.201 115.899 o
    278 60 o
    520 60 o
    561 0 o
    472.529 0.521484 o
    379.132 1.1416 v
    68.6934 0.0078125 v
    41.3779 -0.345703 o
    -15.4717 -0.296875 o
    -29.8311 -0.178711 o
    -41 0 o
    -45.4717 0.240234 o
    -51.166 17.1025 o
    -61.7783 45.377 o
    -67.4717 60.2402 o
    173 60 o
    317 275 v
    165 275 v
    0 0 z
  EndSpiro
EndSplineSet
Validated: 1
EndChar

StartChar: one
Encoding: 49 49 27
Width: 714
Flags: W
HStem: 501.5 21G<121 312>
LayerCount: 2
Fore
SplineSet
417 414 m 1
 477 412.762886598 l 0
 514 412 l 0
 515 339 l 0
 616 372 l 1
 615 501 l 0
 415 501 l 0
 417 750 l 0
 312 688 l 0
 312 501.5 l 0
 121 502 l 0
 121 341 l 0
 221 374 l 0
 222 373 221 416 221 416 c 0
 312 416 l 0
 312 60 l 0
 -75.908203125 60.6787109375 l 0
 -70.2138671875 45.8154296875 l 0
 -59.6015625 17.541015625 l 0
 -53.908203125 0.6787109375 l 0
 -49.435546875 0.4375 l 0
 -38.2666015625 0.259765625 l 0
 -23.908203125 0.1416015625 l 0
 -7.9501953125 -0.0458984375 l 0
 0 -0.0009765625 l 0
 215 0.2998046875 l 0
 221.944846379 0.343308087818 l 0
 228.959498396 0.387812355541 l 0
 236 0.4326171875 l 0
 465.074339525 1.14139531414 l 0
 778.586914062 0.521484375 l 0
 814 0 l 0
 773 60 l 0
 417 60 l 0
 417 387 l 0
 417 414 l 1
EndSplineSet
Validated: 41
EndChar

StartChar: five
Encoding: 53 53 28
Width: 714
Flags: W
HStem: -0.000976562 60.6797<-53.9082 312 417 773> 416 85.5<221 312 417 514> 570 52.2168<237 312 415.989 508> 730 20G<383.129 416.84> 730 20G<383.129 416.84>
VStem: 312 105<60 414 501.5 569 624 688> 515 101<372 412>
LayerCount: 2
Fore
SplineSet
415.989257812 624 m 1xee
 537 622.83984375 l 1
 508 567 l 1
 413 569 l 1
 415 501 l 0
 615 501 l 0
 616 372 l 1
 515 339 l 0
 514 412 l 0
 477 412.762886598 l 0
 417 414 l 1
 417 387 l 0
 417 60 l 0
 773 60 l 0
 814 0 l 0
 778.586914062 0.521484375 l 0
 465.074339525 1.14139531414 l 0
 236 0.4326171875 l 0
 228.959498396 0.387812355541 l 0
 221.944846379 0.343308087818 l 0
 215 0.2998046875 l 0
 0 -0.0009765625 l 0
 -7.9501953125 -0.0458984375 l 0
 -23.908203125 0.1416015625 l 0
 -38.2666015625 0.259765625 l 0
 -49.435546875 0.4375 l 0
 -53.908203125 0.6787109375 l 0
 -59.6015625 17.541015625 l 0
 -70.2138671875 45.8154296875 l 0
 -75.908203125 60.6787109375 l 0
 312 60 l 0
 312 416 l 0
 221 416 l 0
 221 416 222 373 221 374 c 0
 121 341 l 0
 121 502 l 0
 312 501.5 l 0
 312 570 l 1
 206 571 l 1
 237 622.83984375 l 1
 312 622.216796875 l 1
 312 688 l 0
 417 750 l 0
 415.989257812 624 l 1xee
EndSplineSet
Validated: 33
EndChar

StartChar: two
Encoding: 50 50 29
Width: 457
Flags: W
HStem: 0 60<344.156 508.49>
VStem: 250 90<60 394.998>
LayerCount: 2
Fore
SplineSet
-82 0 m 0
 -82 -2.236328125 504 0 505 0 c 0
 506 0 534 60 534 60 c 1
 340 60 l 0
 341 62 340 482.944335938 340 482.944335938 c 1
 188 482.944335938 l 1
 332 697.813476562 l 0
 332 697.813476562 226 697.944335938 227 697.813476562 c 0
 227 697.813476562 113 496.935546875 40 392 c 1
 254 394.998046875 l 1
 250 60 l 0
 251 58.2890625 -42 60 -42 60 c 1
 -42 60 -82 2 -82 0 c 0
EndSplineSet
Validated: 41
EndChar

StartChar: three
Encoding: 51 51 30
Width: 426
Flags: MW
LayerCount: 2
Fore
SplineSet
67 382 m 1
 300 681 l 1
 391 643 l 1
 172 371 l 0
 172 60 l 1
 471 60 l 1
 512 0 l 1
 512 0 364.63671934 2.27920407833 74 0.4326171875 c 0
 66.9296875 0.3876953125 59.9267571022 0.342887781826 53 0.2998046875 c 0
 -58.7900390625 -0.3955078125 7.052734375 -0.2490234375 -34 0 c 0
 -48.837890625 0.0908203125 -64 0.263671875 -64 0.537109375 c 0
 -64 3.537109375 -86 60.537109375 -86 60.537109375 c 1
 67 60 l 1
 67 382 l 1
EndSplineSet
Validated: 33
EndChar

StartChar: six
Encoding: 54 54 31
Width: 477
Flags: W
HStem: 0 60<344.156 508.49>
LayerCount: 2
Fore
SplineSet
339 279 m 1
 340 482.944335938 l 1
 188 482.944335938 l 1
 332 697.813476562 l 0
 332 697.813476562 226 697.944335938 227 697.813476562 c 0
 227 697.813476562 113 496.935546875 40 392 c 1
 254 394.998046875 l 1
 254 281 l 1
 172 280 l 1
 127 221 l 1
 254 221 l 1
 250 60 l 0
 251 58.2890625 -42 60 -42 60 c 1
 -42 60 -82 2 -82 0 c 0
 -82 -2.236328125 504 0 505 0 c 0
 506 0 534 60 534 60 c 0
 536 57 415 59 339 59 c 1
 339 219 l 1
 422 220 l 1
 459 280 l 1
 339 279 l 1
EndSplineSet
Validated: 37
EndChar

StartChar: seven
Encoding: 55 55 32
Width: 506
Flags: W
HStem: 0.432617 59.5674<-43.4482 -36 252 551>
LayerCount: 2
Fore
SplineSet
252 221 m 1
 334 220 l 1
 368 278 l 1
 252 279.846679688 l 1
 252 371 l 0
 484 657 l 1
 365 658 l 1
 147 382 l 1
 147 282.317382812 l 1
 74 282 l 1
 30 220 l 1
 147 222 l 1
 147 60 l 1
 -58 60.537109375 l 1
 -58 60.537109375 -36 3.537109375 -36 0.537109375 c 0
 -36 0.263671875 -20.837890625 0.0908203125 -6 0 c 0
 35.052734375 -0.2490234375 21.2099494748 -0.393662424175 133 0.2998046875 c 0
 139.926757812 0.3427734375 146.9296875 0.3876953125 154 0.4326171875 c 0
 444.63671875 2.279296875 592 0 592 0 c 1
 551 60 l 1
 252 60 l 1
 252 221 l 1
EndSplineSet
Validated: 41
EndChar

StartChar: s
Encoding: 115 115 33
Width: 1139
VWidth: 2048
Flags: W
HStem: 117 76.875<524.75 601.625> 509.25 21G<385.625 458> 620.625 55.5<499.148 630.21>
VStem: 385.625 69.375<516.668 573.784> 524.75 76.875<117 193.875> 528.5 65.25<252.375 343.97> 671 69.375<466.207 580.855>
LayerCount: 2
Fore
SplineSet
528.875 252.375 m 1xf6
 528.625 261.375 528.5 268.125 528.5 272.625 c 0
 528.5 299.125 532.25 322 539.75 341.25 c 0
 545.25 355.75 554.125 370.375 566.375 385.125 c 0
 575.375 395.875 591.5625 411.5625 614.9375 432.1875 c 0
 638.3125 452.8125 653.5 469.25 660.5 481.5 c 0
 667.5 493.75 671 507.125 671 521.625 c 0
 671 547.875 660.75 570.9375 640.25 590.8125 c 0
 619.75 610.6875 594.625 620.625 564.875 620.625 c 0
 536.125 620.625 512.125 611.625 492.875 593.625 c 0
 473.625 575.625 461 547.5 455 509.25 c 1
 385.625 517.5 l 1
 391.875 568.75 410.4375 608 441.3125 635.25 c 0
 472.1875 662.5 513 676.125 563.75 676.125 c 0
 617.5 676.125 660.375 661.5 692.375 632.25 c 0
 724.375 603 740.375 567.625 740.375 526.125 c 0
 740.375 502.125 734.75 480 723.5 459.75 c 0
 712.25 439.5 690.25 414.875 657.5 385.875 c 0
 635.5 366.375 621.125 352 614.375 342.75 c 0
 607.625 333.5 602.625 322.875 599.375 310.875 c 0
 596.125 298.875 594.25 279.375 593.75 252.375 c 1
 528.875 252.375 l 1xf6
524.75 117 m 1xfa
 524.75 193.875 l 1
 601.625 193.875 l 1
 601.625 117 l 1
 524.75 117 l 1xfa
EndSplineSet
Validated: 1
EndChar

StartChar: exclam
Encoding: 33 33 34
Width: 628
Flags: W
VStem: 329 83<60 384>
LayerCount: 2
Fore
SplineSet
412 60 m 0
 412 384 l 0
 588 293 l 1
 563 378 l 1
 412 467 l 1
 412 750 l 1
 329 688 l 1
 329 60 l 0
 329 59 303 60 303 60 c 1
 303 343 l 0
 303 750 l 1
 220 686 l 1
 220 467 l 1
 69 378 l 1
 44 293 l 1
 220 384 l 0
 220 60 l 1
 -55 60 l 25
 -24 0 l 1
 709 0 l 1
 670 60 l 1
 412 60 l 0
EndSplineSet
Validated: 9
EndChar

StartChar: W
Encoding: 87 87 35
Width: 1139
VWidth: 2048
Flags: W
HStem: 117 76.875<524.75 601.625> 509.25 21G<385.625 458> 620.625 55.5<499.148 630.21>
VStem: 385.625 69.375<516.668 573.784> 524.75 76.875<117 193.875> 528.5 65.25<252.375 343.97> 671 69.375<466.207 580.855>
LayerCount: 2
Fore
SplineSet
528.875 252.375 m 1xf6
 528.625 261.375 528.5 268.125 528.5 272.625 c 0
 528.5 299.125 532.25 322 539.75 341.25 c 0
 545.25 355.75 554.125 370.375 566.375 385.125 c 0
 575.375 395.875 591.5625 411.5625 614.9375 432.1875 c 0
 638.3125 452.8125 653.5 469.25 660.5 481.5 c 0
 667.5 493.75 671 507.125 671 521.625 c 0
 671 547.875 660.75 570.9375 640.25 590.8125 c 0
 619.75 610.6875 594.625 620.625 564.875 620.625 c 0
 536.125 620.625 512.125 611.625 492.875 593.625 c 0
 473.625 575.625 461 547.5 455 509.25 c 1
 385.625 517.5 l 1
 391.875 568.75 410.4375 608 441.3125 635.25 c 0
 472.1875 662.5 513 676.125 563.75 676.125 c 0
 617.5 676.125 660.375 661.5 692.375 632.25 c 0
 724.375 603 740.375 567.625 740.375 526.125 c 0
 740.375 502.125 734.75 480 723.5 459.75 c 0
 712.25 439.5 690.25 414.875 657.5 385.875 c 0
 635.5 366.375 621.125 352 614.375 342.75 c 0
 607.625 333.5 602.625 322.875 599.375 310.875 c 0
 596.125 298.875 594.25 279.375 593.75 252.375 c 1
 528.875 252.375 l 1xf6
524.75 117 m 1xfa
 524.75 193.875 l 1
 601.625 193.875 l 1
 601.625 117 l 1
 524.75 117 l 1xfa
EndSplineSet
Validated: 1
EndChar

StartChar: v
Encoding: 118 118 36
Width: 1139
VWidth: 2048
Flags: W
HStem: 117 76.875<524.75 601.625> 509.25 21G<385.625 458> 620.625 55.5<499.148 630.21>
VStem: 385.625 69.375<516.668 573.784> 524.75 76.875<117 193.875> 528.5 65.25<252.375 343.97> 671 69.375<466.207 580.855>
LayerCount: 2
Fore
SplineSet
528.875 252.375 m 1xf6
 528.625 261.375 528.5 268.125 528.5 272.625 c 0
 528.5 299.125 532.25 322 539.75 341.25 c 0
 545.25 355.75 554.125 370.375 566.375 385.125 c 0
 575.375 395.875 591.5625 411.5625 614.9375 432.1875 c 0
 638.3125 452.8125 653.5 469.25 660.5 481.5 c 0
 667.5 493.75 671 507.125 671 521.625 c 0
 671 547.875 660.75 570.9375 640.25 590.8125 c 0
 619.75 610.6875 594.625 620.625 564.875 620.625 c 0
 536.125 620.625 512.125 611.625 492.875 593.625 c 0
 473.625 575.625 461 547.5 455 509.25 c 1
 385.625 517.5 l 1
 391.875 568.75 410.4375 608 441.3125 635.25 c 0
 472.1875 662.5 513 676.125 563.75 676.125 c 0
 617.5 676.125 660.375 661.5 692.375 632.25 c 0
 724.375 603 740.375 567.625 740.375 526.125 c 0
 740.375 502.125 734.75 480 723.5 459.75 c 0
 712.25 439.5 690.25 414.875 657.5 385.875 c 0
 635.5 366.375 621.125 352 614.375 342.75 c 0
 607.625 333.5 602.625 322.875 599.375 310.875 c 0
 596.125 298.875 594.25 279.375 593.75 252.375 c 1
 528.875 252.375 l 1xf6
524.75 117 m 1xfa
 524.75 193.875 l 1
 601.625 193.875 l 1
 601.625 117 l 1
 524.75 117 l 1xfa
EndSplineSet
Validated: 1
EndChar

StartChar: numbersign
Encoding: 35 35 37
Width: 628
Flags: W
HStem: 0 60<-24 220 412 670> 349 83<412 479.683> 516 83<147.852 219> 730 20G<277.062 303 385.226 412 538 548.526> 730 20G<277.062 303 385.226 412>
VStem: 220 83<60.3298 516 599 639.97 640 686> 329 83<60 349 432 688>
LayerCount: 2
Fore
SplineSet
219 516 m 0xf6
 97 516 93 379 93 379 c 1
 53 455 l 1
 53 455 91 599 220 599 c 0
 219 598 220 640 220 640 c 1
 220 686 l 1
 303 750 l 1
 303 343 l 0
 303 60 l 1
 303 60 329 59 329 60 c 0
 329 688 l 1
 412 750 l 1
 412 432 l 3
 534 432 538 569 538 569 c 1
 578 493 l 1
 578 493 541 349 412 349 c 0
 412 60 l 0
 670 60 l 1
 709 0 l 1
 -24 0 l 1
 -55 60 l 25
 220 60 l 1
 220 60 220 515 219 516 c 0xf6
EndSplineSet
Validated: 37
EndChar

StartChar: quotedbl
Encoding: 34 34 38
Width: 552
Flags: W
HStem: 349 83<336 403.683> 516 83<163.852 235>
VStem: 236 100<60.3298 349 432 516 599 639.97 686 689.752>
LayerCount: 2
Fore
SplineSet
236 686 m 0
 236 640 l 1
 236 640 235 598 236 599 c 0
 107 599 69 455 69 455 c 1
 109 379 l 1
 109 379 113 516 235 516 c 0
 236 515 236 60 236 60 c 1
 -73 60 l 1
 -42 0 l 1
 633 0 l 1
 594 60 l 1
 336 60 l 0
 336 349 l 0
 465 349 502 493 502 493 c 1
 462 569 l 1
 462 569 458 432 336 432 c 0
 336 750 l 1
 336 750 237 687 236 686 c 0
212 60 m 1025
EndSplineSet
Validated: 37
EndChar

StartChar: g
Encoding: 103 103 39
Width: 1139
VWidth: 2048
Flags: W
HStem: 117 76.875<524.75 601.625> 509.25 21G<385.625 458> 620.625 55.5<499.148 630.21>
VStem: 385.625 69.375<516.668 573.784> 524.75 76.875<117 193.875> 528.5 65.25<252.375 343.97> 671 69.375<466.207 580.855>
LayerCount: 2
Fore
SplineSet
528.875 252.375 m 1xf6
 528.625 261.375 528.5 268.125 528.5 272.625 c 0
 528.5 299.125 532.25 322 539.75 341.25 c 0
 545.25 355.75 554.125 370.375 566.375 385.125 c 0
 575.375 395.875 591.5625 411.5625 614.9375 432.1875 c 0
 638.3125 452.8125 653.5 469.25 660.5 481.5 c 0
 667.5 493.75 671 507.125 671 521.625 c 0
 671 547.875 660.75 570.9375 640.25 590.8125 c 0
 619.75 610.6875 594.625 620.625 564.875 620.625 c 0
 536.125 620.625 512.125 611.625 492.875 593.625 c 0
 473.625 575.625 461 547.5 455 509.25 c 1
 385.625 517.5 l 1
 391.875 568.75 410.4375 608 441.3125 635.25 c 0
 472.1875 662.5 513 676.125 563.75 676.125 c 0
 617.5 676.125 660.375 661.5 692.375 632.25 c 0
 724.375 603 740.375 567.625 740.375 526.125 c 0
 740.375 502.125 734.75 480 723.5 459.75 c 0
 712.25 439.5 690.25 414.875 657.5 385.875 c 0
 635.5 366.375 621.125 352 614.375 342.75 c 0
 607.625 333.5 602.625 322.875 599.375 310.875 c 0
 596.125 298.875 594.25 279.375 593.75 252.375 c 1
 528.875 252.375 l 1xf6
524.75 117 m 1xfa
 524.75 193.875 l 1
 601.625 193.875 l 1
 601.625 117 l 1
 524.75 117 l 1xfa
EndSplineSet
Validated: 1
EndChar

StartChar: q
Encoding: 113 113 40
Width: 1139
VWidth: 2048
Flags: W
HStem: 117 76.875<524.75 601.625> 509.25 21G<385.625 458> 620.625 55.5<499.148 630.21>
VStem: 385.625 69.375<516.668 573.784> 524.75 76.875<117 193.875> 528.5 65.25<252.375 343.97> 671 69.375<466.207 580.855>
LayerCount: 2
Fore
SplineSet
528.875 252.375 m 1xf6
 528.625 261.375 528.5 268.125 528.5 272.625 c 0
 528.5 299.125 532.25 322 539.75 341.25 c 0
 545.25 355.75 554.125 370.375 566.375 385.125 c 0
 575.375 395.875 591.5625 411.5625 614.9375 432.1875 c 0
 638.3125 452.8125 653.5 469.25 660.5 481.5 c 0
 667.5 493.75 671 507.125 671 521.625 c 0
 671 547.875 660.75 570.9375 640.25 590.8125 c 0
 619.75 610.6875 594.625 620.625 564.875 620.625 c 0
 536.125 620.625 512.125 611.625 492.875 593.625 c 0
 473.625 575.625 461 547.5 455 509.25 c 1
 385.625 517.5 l 1
 391.875 568.75 410.4375 608 441.3125 635.25 c 0
 472.1875 662.5 513 676.125 563.75 676.125 c 0
 617.5 676.125 660.375 661.5 692.375 632.25 c 0
 724.375 603 740.375 567.625 740.375 526.125 c 0
 740.375 502.125 734.75 480 723.5 459.75 c 0
 712.25 439.5 690.25 414.875 657.5 385.875 c 0
 635.5 366.375 621.125 352 614.375 342.75 c 0
 607.625 333.5 602.625 322.875 599.375 310.875 c 0
 596.125 298.875 594.25 279.375 593.75 252.375 c 1
 528.875 252.375 l 1xf6
524.75 117 m 1xfa
 524.75 193.875 l 1
 601.625 193.875 l 1
 601.625 117 l 1
 524.75 117 l 1xfa
EndSplineSet
Validated: 1
EndChar

StartChar: backslash
Encoding: 92 92 41
Width: 1139
VWidth: 2048
Flags: W
HStem: 117 76.875<524.75 601.625> 509.25 21G<385.625 458> 620.625 55.5<499.148 630.21>
VStem: 385.625 69.375<516.668 573.784> 524.75 76.875<117 193.875> 528.5 65.25<252.375 343.97> 671 69.375<466.207 580.855>
LayerCount: 2
Fore
SplineSet
528.875 252.375 m 1xf6
 528.625 261.375 528.5 268.125 528.5 272.625 c 0
 528.5 299.125 532.25 322 539.75 341.25 c 0
 545.25 355.75 554.125 370.375 566.375 385.125 c 0
 575.375 395.875 591.5625 411.5625 614.9375 432.1875 c 0
 638.3125 452.8125 653.5 469.25 660.5 481.5 c 0
 667.5 493.75 671 507.125 671 521.625 c 0
 671 547.875 660.75 570.9375 640.25 590.8125 c 0
 619.75 610.6875 594.625 620.625 564.875 620.625 c 0
 536.125 620.625 512.125 611.625 492.875 593.625 c 0
 473.625 575.625 461 547.5 455 509.25 c 1
 385.625 517.5 l 1
 391.875 568.75 410.4375 608 441.3125 635.25 c 0
 472.1875 662.5 513 676.125 563.75 676.125 c 0
 617.5 676.125 660.375 661.5 692.375 632.25 c 0
 724.375 603 740.375 567.625 740.375 526.125 c 0
 740.375 502.125 734.75 480 723.5 459.75 c 0
 712.25 439.5 690.25 414.875 657.5 385.875 c 0
 635.5 366.375 621.125 352 614.375 342.75 c 0
 607.625 333.5 602.625 322.875 599.375 310.875 c 0
 596.125 298.875 594.25 279.375 593.75 252.375 c 1
 528.875 252.375 l 1xf6
524.75 117 m 1xfa
 524.75 193.875 l 1
 601.625 193.875 l 1
 601.625 117 l 1
 524.75 117 l 1xfa
EndSplineSet
Validated: 1
EndChar

StartChar: t
Encoding: 116 116 42
Width: 1139
VWidth: 2048
Flags: W
HStem: 117 76.875<524.75 601.625> 509.25 21G<385.625 458> 620.625 55.5<499.148 630.21>
VStem: 385.625 69.375<516.668 573.784> 524.75 76.875<117 193.875> 528.5 65.25<252.375 343.97> 671 69.375<466.207 580.855>
LayerCount: 2
Fore
SplineSet
528.875 252.375 m 1xf6
 528.625 261.375 528.5 268.125 528.5 272.625 c 0
 528.5 299.125 532.25 322 539.75 341.25 c 0
 545.25 355.75 554.125 370.375 566.375 385.125 c 0
 575.375 395.875 591.5625 411.5625 614.9375 432.1875 c 0
 638.3125 452.8125 653.5 469.25 660.5 481.5 c 0
 667.5 493.75 671 507.125 671 521.625 c 0
 671 547.875 660.75 570.9375 640.25 590.8125 c 0
 619.75 610.6875 594.625 620.625 564.875 620.625 c 0
 536.125 620.625 512.125 611.625 492.875 593.625 c 0
 473.625 575.625 461 547.5 455 509.25 c 1
 385.625 517.5 l 1
 391.875 568.75 410.4375 608 441.3125 635.25 c 0
 472.1875 662.5 513 676.125 563.75 676.125 c 0
 617.5 676.125 660.375 661.5 692.375 632.25 c 0
 724.375 603 740.375 567.625 740.375 526.125 c 0
 740.375 502.125 734.75 480 723.5 459.75 c 0
 712.25 439.5 690.25 414.875 657.5 385.875 c 0
 635.5 366.375 621.125 352 614.375 342.75 c 0
 607.625 333.5 602.625 322.875 599.375 310.875 c 0
 596.125 298.875 594.25 279.375 593.75 252.375 c 1
 528.875 252.375 l 1xf6
524.75 117 m 1xfa
 524.75 193.875 l 1
 601.625 193.875 l 1
 601.625 117 l 1
 524.75 117 l 1xfa
EndSplineSet
Validated: 1
EndChar

StartChar: question
Encoding: 63 63 44
Width: 1139
VWidth: 2048
Flags: W
HStem: 117 76.875<524.75 601.625> 509.25 21G<385.625 458> 620.625 55.5<499.148 630.21>
VStem: 385.625 69.375<516.668 573.784> 524.75 76.875<117 193.875> 528.5 65.25<252.375 343.97> 671 69.375<466.207 580.855>
LayerCount: 2
Fore
SplineSet
528.875 252.375 m 1xf6
 528.625 261.375 528.5 268.125 528.5 272.625 c 0
 528.5 299.125 532.25 322 539.75 341.25 c 0
 545.25 355.75 554.125 370.375 566.375 385.125 c 0
 575.375 395.875 591.5625 411.5625 614.9375 432.1875 c 0
 638.3125 452.8125 653.5 469.25 660.5 481.5 c 0
 667.5 493.75 671 507.125 671 521.625 c 0
 671 547.875 660.75 570.9375 640.25 590.8125 c 0
 619.75 610.6875 594.625 620.625 564.875 620.625 c 0
 536.125 620.625 512.125 611.625 492.875 593.625 c 0
 473.625 575.625 461 547.5 455 509.25 c 1
 385.625 517.5 l 1
 391.875 568.75 410.4375 608 441.3125 635.25 c 0
 472.1875 662.5 513 676.125 563.75 676.125 c 0
 617.5 676.125 660.375 661.5 692.375 632.25 c 0
 724.375 603 740.375 567.625 740.375 526.125 c 0
 740.375 502.125 734.75 480 723.5 459.75 c 0
 712.25 439.5 690.25 414.875 657.5 385.875 c 0
 635.5 366.375 621.125 352 614.375 342.75 c 0
 607.625 333.5 602.625 322.875 599.375 310.875 c 0
 596.125 298.875 594.25 279.375 593.75 252.375 c 1
 528.875 252.375 l 1xf6
524.75 117 m 1xfa
 524.75 193.875 l 1
 601.625 193.875 l 1
 601.625 117 l 1
 524.75 117 l 1xfa
EndSplineSet
Validated: 1
EndChar

StartChar: c
Encoding: 99 99 45
Width: 1139
VWidth: 2048
Flags: W
HStem: 117 76.875<524.75 601.625> 509.25 21G<385.625 458> 620.625 55.5<499.148 630.21>
VStem: 385.625 69.375<516.668 573.784> 524.75 76.875<117 193.875> 528.5 65.25<252.375 343.97> 671 69.375<466.207 580.855>
LayerCount: 2
Fore
SplineSet
528.875 252.375 m 1xf6
 528.625 261.375 528.5 268.125 528.5 272.625 c 0
 528.5 299.125 532.25 322 539.75 341.25 c 0
 545.25 355.75 554.125 370.375 566.375 385.125 c 0
 575.375 395.875 591.5625 411.5625 614.9375 432.1875 c 0
 638.3125 452.8125 653.5 469.25 660.5 481.5 c 0
 667.5 493.75 671 507.125 671 521.625 c 0
 671 547.875 660.75 570.9375 640.25 590.8125 c 0
 619.75 610.6875 594.625 620.625 564.875 620.625 c 0
 536.125 620.625 512.125 611.625 492.875 593.625 c 0
 473.625 575.625 461 547.5 455 509.25 c 1
 385.625 517.5 l 1
 391.875 568.75 410.4375 608 441.3125 635.25 c 0
 472.1875 662.5 513 676.125 563.75 676.125 c 0
 617.5 676.125 660.375 661.5 692.375 632.25 c 0
 724.375 603 740.375 567.625 740.375 526.125 c 0
 740.375 502.125 734.75 480 723.5 459.75 c 0
 712.25 439.5 690.25 414.875 657.5 385.875 c 0
 635.5 366.375 621.125 352 614.375 342.75 c 0
 607.625 333.5 602.625 322.875 599.375 310.875 c 0
 596.125 298.875 594.25 279.375 593.75 252.375 c 1
 528.875 252.375 l 1xf6
524.75 117 m 1xfa
 524.75 193.875 l 1
 601.625 193.875 l 1
 601.625 117 l 1
 524.75 117 l 1xfa
EndSplineSet
Validated: 1
EndChar

StartChar: dollar
Encoding: 36 36 46
Width: 698
Flags: W
HStem: 0 60<-52 197 280 303 493 738> 730 20G<254.062 280 360.062 386 466.226 493> 730 20G<254.062 280 360.062 386 466.226 493>
VStem: 197 83<60 384 467 686> 303 83<60 686> 410 83<60 384 467 688>
LayerCount: 2
Fore
SplineSet
280 60 m 9xdc
 303 60 l 1
 303 102 l 0
 303 467 l 0
 303 686 l 1
 386 750 l 1
 386 343 l 0
 386 60 l 0
 387 59 410 59.3349609375 410 60 c 0
 410 688 l 1
 493 750 l 1
 493 467 l 1
 644 378 l 1
 669 293 l 1
 493 384 l 0
 493 60 l 0
 738 60 l 1
 777 0 l 1
 -52 0 l 1
 -83 60 l 1
 -17 60 l 0
 197 60 l 1
 197 384 l 0
 21 293 l 1
 46 378 l 1
 197 467 l 1
 197 686 l 1
 280 750 l 1
 280 343 l 0
 280 60 l 9xdc
EndSplineSet
Validated: 1
EndChar

StartChar: ampersand
Encoding: 38 38 47
Width: 698
Flags: W
HStem: 0 60<-52 197 280 303 493 738> 730 20G<254.062 280 360.062 386 466.226 493> 730 20G<254.062 280 360.062 386 466.226 493>
VStem: 197 83<60 686> 303 83<60 686> 410 83<60 688>
LayerCount: 2
Fore
SplineSet
280 60 m 9xdc
 303 60 l 1
 303 102 l 0
 303 467 l 0
 303 686 l 1
 386 750 l 1
 386 343 l 0
 386 60 l 0
 387 59 410 59.3349609375 410 60 c 0
 410 688 l 1
 493 750 l 1
 493 467 l 1
 493 452 l 1
 493 407 l 1
 493 384 l 0
 493 60 l 0
 738 60 l 1
 777 0 l 1
 -52 0 l 1
 -83 60 l 1
 -17 60 l 0
 197 60 l 1
 197 384 l 0
 197 396 l 1
 197 409 l 1
 197 467 l 1
 197 686 l 1
 280 750 l 1
 280 343 l 0
 280 60 l 9xdc
EndSplineSet
Validated: 1
EndChar

StartChar: percent
Encoding: 37 37 48
Width: 698
Flags: W
VStem: 410 83<60 381.767>
LayerCount: 2
Fore
SplineSet
386 750 m 0
 303 686 l 1
 306 450 l 1
 280 449 l 1
 280 750 l 1
 197 686 l 1
 197 449 l 1
 103 449 l 1
 65 384 l 1
 197 384 l 0
 197 60 l 1
 -17 60 l 0
 -83 60 l 1
 -52 0 l 1
 777 0 l 1
 738 60 l 1
 493 60 l 0
 493 384 l 0
 575 384 l 1
 630 449 l 1
 493 449 l 1
 493 750 l 1
 410 688 l 1
 408 451 l 1
 386 451 l 1
 386 451 386 746 386 750 c 0
410 60 m 0
 410 59.3349609375 386 60 386 60 c 1
 386 60 386 60 388 382 c 1
 408 382 l 1
 408 382 410 61 410 60 c 0
303 102 m 1
 303 60 l 1
 280 60 l 1
 280 385 l 0
 280 385 290 385 302 385 c 1
 303 102 l 1
EndSplineSet
Validated: 9
EndChar

StartChar: eight
Encoding: 56 56 49
Width: 1139
VWidth: 2048
Flags: W
HStem: 117 76.875<524.75 601.625> 509.25 21G<385.625 458> 620.625 55.5<499.148 630.21>
VStem: 385.625 69.375<516.668 573.784> 524.75 76.875<117 193.875> 528.5 65.25<252.375 343.97> 671 69.375<466.207 580.855>
LayerCount: 2
Fore
SplineSet
528.875 252.375 m 1xf6
 528.625 261.375 528.5 268.125 528.5 272.625 c 0
 528.5 299.125 532.25 322 539.75 341.25 c 0
 545.25 355.75 554.125 370.375 566.375 385.125 c 0
 575.375 395.875 591.5625 411.5625 614.9375 432.1875 c 0
 638.3125 452.8125 653.5 469.25 660.5 481.5 c 0
 667.5 493.75 671 507.125 671 521.625 c 0
 671 547.875 660.75 570.9375 640.25 590.8125 c 0
 619.75 610.6875 594.625 620.625 564.875 620.625 c 0
 536.125 620.625 512.125 611.625 492.875 593.625 c 0
 473.625 575.625 461 547.5 455 509.25 c 1
 385.625 517.5 l 1
 391.875 568.75 410.4375 608 441.3125 635.25 c 0
 472.1875 662.5 513 676.125 563.75 676.125 c 0
 617.5 676.125 660.375 661.5 692.375 632.25 c 0
 724.375 603 740.375 567.625 740.375 526.125 c 0
 740.375 502.125 734.75 480 723.5 459.75 c 0
 712.25 439.5 690.25 414.875 657.5 385.875 c 0
 635.5 366.375 621.125 352 614.375 342.75 c 0
 607.625 333.5 602.625 322.875 599.375 310.875 c 0
 596.125 298.875 594.25 279.375 593.75 252.375 c 1
 528.875 252.375 l 1xf6
524.75 117 m 1xfa
 524.75 193.875 l 1
 601.625 193.875 l 1
 601.625 117 l 1
 524.75 117 l 1xfa
EndSplineSet
Validated: 1
EndChar

StartChar: nine
Encoding: 57 57 50
Width: 1139
VWidth: 2048
Flags: W
HStem: 117 76.875<524.75 601.625> 509.25 21G<385.625 458> 620.625 55.5<499.148 630.21>
VStem: 385.625 69.375<516.668 573.784> 524.75 76.875<117 193.875> 528.5 65.25<252.375 343.97> 671 69.375<466.207 580.855>
LayerCount: 2
Fore
SplineSet
528.875 252.375 m 1xf6
 528.625 261.375 528.5 268.125 528.5 272.625 c 0
 528.5 299.125 532.25 322 539.75 341.25 c 0
 545.25 355.75 554.125 370.375 566.375 385.125 c 0
 575.375 395.875 591.5625 411.5625 614.9375 432.1875 c 0
 638.3125 452.8125 653.5 469.25 660.5 481.5 c 0
 667.5 493.75 671 507.125 671 521.625 c 0
 671 547.875 660.75 570.9375 640.25 590.8125 c 0
 619.75 610.6875 594.625 620.625 564.875 620.625 c 0
 536.125 620.625 512.125 611.625 492.875 593.625 c 0
 473.625 575.625 461 547.5 455 509.25 c 1
 385.625 517.5 l 1
 391.875 568.75 410.4375 608 441.3125 635.25 c 0
 472.1875 662.5 513 676.125 563.75 676.125 c 0
 617.5 676.125 660.375 661.5 692.375 632.25 c 0
 724.375 603 740.375 567.625 740.375 526.125 c 0
 740.375 502.125 734.75 480 723.5 459.75 c 0
 712.25 439.5 690.25 414.875 657.5 385.875 c 0
 635.5 366.375 621.125 352 614.375 342.75 c 0
 607.625 333.5 602.625 322.875 599.375 310.875 c 0
 596.125 298.875 594.25 279.375 593.75 252.375 c 1
 528.875 252.375 l 1xf6
524.75 117 m 1xfa
 524.75 193.875 l 1
 601.625 193.875 l 1
 601.625 117 l 1
 524.75 117 l 1xfa
EndSplineSet
Validated: 1
EndChar

StartChar: colon
Encoding: 58 58 51
Width: 1139
VWidth: 2048
Flags: W
HStem: 117 76.875<524.75 601.625> 509.25 21G<385.625 458> 620.625 55.5<499.148 630.21>
VStem: 385.625 69.375<516.668 573.784> 524.75 76.875<117 193.875> 528.5 65.25<252.375 343.97> 671 69.375<466.207 580.855>
LayerCount: 2
Fore
SplineSet
528.875 252.375 m 1xf6
 528.625 261.375 528.5 268.125 528.5 272.625 c 0
 528.5 299.125 532.25 322 539.75 341.25 c 0
 545.25 355.75 554.125 370.375 566.375 385.125 c 0
 575.375 395.875 591.5625 411.5625 614.9375 432.1875 c 0
 638.3125 452.8125 653.5 469.25 660.5 481.5 c 0
 667.5 493.75 671 507.125 671 521.625 c 0
 671 547.875 660.75 570.9375 640.25 590.8125 c 0
 619.75 610.6875 594.625 620.625 564.875 620.625 c 0
 536.125 620.625 512.125 611.625 492.875 593.625 c 0
 473.625 575.625 461 547.5 455 509.25 c 1
 385.625 517.5 l 1
 391.875 568.75 410.4375 608 441.3125 635.25 c 0
 472.1875 662.5 513 676.125 563.75 676.125 c 0
 617.5 676.125 660.375 661.5 692.375 632.25 c 0
 724.375 603 740.375 567.625 740.375 526.125 c 0
 740.375 502.125 734.75 480 723.5 459.75 c 0
 712.25 439.5 690.25 414.875 657.5 385.875 c 0
 635.5 366.375 621.125 352 614.375 342.75 c 0
 607.625 333.5 602.625 322.875 599.375 310.875 c 0
 596.125 298.875 594.25 279.375 593.75 252.375 c 1
 528.875 252.375 l 1xf6
524.75 117 m 1xfa
 524.75 193.875 l 1
 601.625 193.875 l 1
 601.625 117 l 1
 524.75 117 l 1xfa
EndSplineSet
Validated: 1
EndChar

StartChar: less
Encoding: 60 60 52
Width: 1139
VWidth: 2048
Flags: W
HStem: 117 76.875<524.75 601.625> 509.25 21G<385.625 458> 620.625 55.5<499.148 630.21>
VStem: 385.625 69.375<516.668 573.784> 524.75 76.875<117 193.875> 528.5 65.25<252.375 343.97> 671 69.375<466.207 580.855>
LayerCount: 2
Fore
SplineSet
528.875 252.375 m 1xf6
 528.625 261.375 528.5 268.125 528.5 272.625 c 0
 528.5 299.125 532.25 322 539.75 341.25 c 0
 545.25 355.75 554.125 370.375 566.375 385.125 c 0
 575.375 395.875 591.5625 411.5625 614.9375 432.1875 c 0
 638.3125 452.8125 653.5 469.25 660.5 481.5 c 0
 667.5 493.75 671 507.125 671 521.625 c 0
 671 547.875 660.75 570.9375 640.25 590.8125 c 0
 619.75 610.6875 594.625 620.625 564.875 620.625 c 0
 536.125 620.625 512.125 611.625 492.875 593.625 c 0
 473.625 575.625 461 547.5 455 509.25 c 1
 385.625 517.5 l 1
 391.875 568.75 410.4375 608 441.3125 635.25 c 0
 472.1875 662.5 513 676.125 563.75 676.125 c 0
 617.5 676.125 660.375 661.5 692.375 632.25 c 0
 724.375 603 740.375 567.625 740.375 526.125 c 0
 740.375 502.125 734.75 480 723.5 459.75 c 0
 712.25 439.5 690.25 414.875 657.5 385.875 c 0
 635.5 366.375 621.125 352 614.375 342.75 c 0
 607.625 333.5 602.625 322.875 599.375 310.875 c 0
 596.125 298.875 594.25 279.375 593.75 252.375 c 1
 528.875 252.375 l 1xf6
524.75 117 m 1xfa
 524.75 193.875 l 1
 601.625 193.875 l 1
 601.625 117 l 1
 524.75 117 l 1xfa
EndSplineSet
Validated: 1
EndChar

StartChar: semicolon
Encoding: 59 59 53
Width: 1139
VWidth: 2048
Flags: W
HStem: 117 76.875<524.75 601.625> 509.25 21G<385.625 458> 620.625 55.5<499.148 630.21>
VStem: 385.625 69.375<516.668 573.784> 524.75 76.875<117 193.875> 528.5 65.25<252.375 343.97> 671 69.375<466.207 580.855>
LayerCount: 2
Fore
SplineSet
528.875 252.375 m 1xf6
 528.625 261.375 528.5 268.125 528.5 272.625 c 0
 528.5 299.125 532.25 322 539.75 341.25 c 0
 545.25 355.75 554.125 370.375 566.375 385.125 c 0
 575.375 395.875 591.5625 411.5625 614.9375 432.1875 c 0
 638.3125 452.8125 653.5 469.25 660.5 481.5 c 0
 667.5 493.75 671 507.125 671 521.625 c 0
 671 547.875 660.75 570.9375 640.25 590.8125 c 0
 619.75 610.6875 594.625 620.625 564.875 620.625 c 0
 536.125 620.625 512.125 611.625 492.875 593.625 c 0
 473.625 575.625 461 547.5 455 509.25 c 1
 385.625 517.5 l 1
 391.875 568.75 410.4375 608 441.3125 635.25 c 0
 472.1875 662.5 513 676.125 563.75 676.125 c 0
 617.5 676.125 660.375 661.5 692.375 632.25 c 0
 724.375 603 740.375 567.625 740.375 526.125 c 0
 740.375 502.125 734.75 480 723.5 459.75 c 0
 712.25 439.5 690.25 414.875 657.5 385.875 c 0
 635.5 366.375 621.125 352 614.375 342.75 c 0
 607.625 333.5 602.625 322.875 599.375 310.875 c 0
 596.125 298.875 594.25 279.375 593.75 252.375 c 1
 528.875 252.375 l 1xf6
524.75 117 m 1xfa
 524.75 193.875 l 1
 601.625 193.875 l 1
 601.625 117 l 1
 524.75 117 l 1xfa
EndSplineSet
Validated: 1
EndChar

StartChar: equal
Encoding: 61 61 54
Width: 1139
VWidth: 2048
Flags: W
HStem: 117 76.875<524.75 601.625> 509.25 21G<385.625 458> 620.625 55.5<499.148 630.21>
VStem: 385.625 69.375<516.668 573.784> 524.75 76.875<117 193.875> 528.5 65.25<252.375 343.97> 671 69.375<466.207 580.855>
LayerCount: 2
Fore
SplineSet
528.875 252.375 m 1xf6
 528.625 261.375 528.5 268.125 528.5 272.625 c 0
 528.5 299.125 532.25 322 539.75 341.25 c 0
 545.25 355.75 554.125 370.375 566.375 385.125 c 0
 575.375 395.875 591.5625 411.5625 614.9375 432.1875 c 0
 638.3125 452.8125 653.5 469.25 660.5 481.5 c 0
 667.5 493.75 671 507.125 671 521.625 c 0
 671 547.875 660.75 570.9375 640.25 590.8125 c 0
 619.75 610.6875 594.625 620.625 564.875 620.625 c 0
 536.125 620.625 512.125 611.625 492.875 593.625 c 0
 473.625 575.625 461 547.5 455 509.25 c 1
 385.625 517.5 l 1
 391.875 568.75 410.4375 608 441.3125 635.25 c 0
 472.1875 662.5 513 676.125 563.75 676.125 c 0
 617.5 676.125 660.375 661.5 692.375 632.25 c 0
 724.375 603 740.375 567.625 740.375 526.125 c 0
 740.375 502.125 734.75 480 723.5 459.75 c 0
 712.25 439.5 690.25 414.875 657.5 385.875 c 0
 635.5 366.375 621.125 352 614.375 342.75 c 0
 607.625 333.5 602.625 322.875 599.375 310.875 c 0
 596.125 298.875 594.25 279.375 593.75 252.375 c 1
 528.875 252.375 l 1xf6
524.75 117 m 1xfa
 524.75 193.875 l 1
 601.625 193.875 l 1
 601.625 117 l 1
 524.75 117 l 1xfa
EndSplineSet
Validated: 1
EndChar

StartChar: greater
Encoding: 62 62 55
Width: 1139
VWidth: 2048
Flags: W
HStem: 117 76.875<524.75 601.625> 509.25 21G<385.625 458> 620.625 55.5<499.148 630.21>
VStem: 385.625 69.375<516.668 573.784> 524.75 76.875<117 193.875> 528.5 65.25<252.375 343.97> 671 69.375<466.207 580.855>
LayerCount: 2
Fore
SplineSet
528.875 252.375 m 1xf6
 528.625 261.375 528.5 268.125 528.5 272.625 c 0
 528.5 299.125 532.25 322 539.75 341.25 c 0
 545.25 355.75 554.125 370.375 566.375 385.125 c 0
 575.375 395.875 591.5625 411.5625 614.9375 432.1875 c 0
 638.3125 452.8125 653.5 469.25 660.5 481.5 c 0
 667.5 493.75 671 507.125 671 521.625 c 0
 671 547.875 660.75 570.9375 640.25 590.8125 c 0
 619.75 610.6875 594.625 620.625 564.875 620.625 c 0
 536.125 620.625 512.125 611.625 492.875 593.625 c 0
 473.625 575.625 461 547.5 455 509.25 c 1
 385.625 517.5 l 1
 391.875 568.75 410.4375 608 441.3125 635.25 c 0
 472.1875 662.5 513 676.125 563.75 676.125 c 0
 617.5 676.125 660.375 661.5 692.375 632.25 c 0
 724.375 603 740.375 567.625 740.375 526.125 c 0
 740.375 502.125 734.75 480 723.5 459.75 c 0
 712.25 439.5 690.25 414.875 657.5 385.875 c 0
 635.5 366.375 621.125 352 614.375 342.75 c 0
 607.625 333.5 602.625 322.875 599.375 310.875 c 0
 596.125 298.875 594.25 279.375 593.75 252.375 c 1
 528.875 252.375 l 1xf6
524.75 117 m 1xfa
 524.75 193.875 l 1
 601.625 193.875 l 1
 601.625 117 l 1
 524.75 117 l 1xfa
EndSplineSet
Validated: 1
EndChar

StartChar: A
Encoding: 65 65 56
Width: 1139
VWidth: 2048
Flags: W
HStem: 117 76.875<524.75 601.625> 509.25 21G<385.625 458> 620.625 55.5<499.148 630.21>
VStem: 385.625 69.375<516.668 573.784> 524.75 76.875<117 193.875> 528.5 65.25<252.375 343.97> 671 69.375<466.207 580.855>
LayerCount: 2
Fore
SplineSet
528.875 252.375 m 1xf6
 528.625 261.375 528.5 268.125 528.5 272.625 c 0
 528.5 299.125 532.25 322 539.75 341.25 c 0
 545.25 355.75 554.125 370.375 566.375 385.125 c 0
 575.375 395.875 591.5625 411.5625 614.9375 432.1875 c 0
 638.3125 452.8125 653.5 469.25 660.5 481.5 c 0
 667.5 493.75 671 507.125 671 521.625 c 0
 671 547.875 660.75 570.9375 640.25 590.8125 c 0
 619.75 610.6875 594.625 620.625 564.875 620.625 c 0
 536.125 620.625 512.125 611.625 492.875 593.625 c 0
 473.625 575.625 461 547.5 455 509.25 c 1
 385.625 517.5 l 1
 391.875 568.75 410.4375 608 441.3125 635.25 c 0
 472.1875 662.5 513 676.125 563.75 676.125 c 0
 617.5 676.125 660.375 661.5 692.375 632.25 c 0
 724.375 603 740.375 567.625 740.375 526.125 c 0
 740.375 502.125 734.75 480 723.5 459.75 c 0
 712.25 439.5 690.25 414.875 657.5 385.875 c 0
 635.5 366.375 621.125 352 614.375 342.75 c 0
 607.625 333.5 602.625 322.875 599.375 310.875 c 0
 596.125 298.875 594.25 279.375 593.75 252.375 c 1
 528.875 252.375 l 1xf6
524.75 117 m 1xfa
 524.75 193.875 l 1
 601.625 193.875 l 1
 601.625 117 l 1
 524.75 117 l 1xfa
EndSplineSet
Validated: 1
EndChar

StartChar: B
Encoding: 66 66 57
Width: 1139
VWidth: 2048
Flags: W
HStem: 117 76.875<524.75 601.625> 509.25 21G<385.625 458> 620.625 55.5<499.148 630.21>
VStem: 385.625 69.375<516.668 573.784> 524.75 76.875<117 193.875> 528.5 65.25<252.375 343.97> 671 69.375<466.207 580.855>
LayerCount: 2
Fore
SplineSet
528.875 252.375 m 1xf6
 528.625 261.375 528.5 268.125 528.5 272.625 c 0
 528.5 299.125 532.25 322 539.75 341.25 c 0
 545.25 355.75 554.125 370.375 566.375 385.125 c 0
 575.375 395.875 591.5625 411.5625 614.9375 432.1875 c 0
 638.3125 452.8125 653.5 469.25 660.5 481.5 c 0
 667.5 493.75 671 507.125 671 521.625 c 0
 671 547.875 660.75 570.9375 640.25 590.8125 c 0
 619.75 610.6875 594.625 620.625 564.875 620.625 c 0
 536.125 620.625 512.125 611.625 492.875 593.625 c 0
 473.625 575.625 461 547.5 455 509.25 c 1
 385.625 517.5 l 1
 391.875 568.75 410.4375 608 441.3125 635.25 c 0
 472.1875 662.5 513 676.125 563.75 676.125 c 0
 617.5 676.125 660.375 661.5 692.375 632.25 c 0
 724.375 603 740.375 567.625 740.375 526.125 c 0
 740.375 502.125 734.75 480 723.5 459.75 c 0
 712.25 439.5 690.25 414.875 657.5 385.875 c 0
 635.5 366.375 621.125 352 614.375 342.75 c 0
 607.625 333.5 602.625 322.875 599.375 310.875 c 0
 596.125 298.875 594.25 279.375 593.75 252.375 c 1
 528.875 252.375 l 1xf6
524.75 117 m 1xfa
 524.75 193.875 l 1
 601.625 193.875 l 1
 601.625 117 l 1
 524.75 117 l 1xfa
EndSplineSet
Validated: 1
EndChar

StartChar: D
Encoding: 68 68 58
Width: 1139
VWidth: 2048
Flags: W
HStem: 117 76.875<524.75 601.625> 509.25 21G<385.625 458> 620.625 55.5<499.148 630.21>
VStem: 385.625 69.375<516.668 573.784> 524.75 76.875<117 193.875> 528.5 65.25<252.375 343.97> 671 69.375<466.207 580.855>
LayerCount: 2
Fore
SplineSet
528.875 252.375 m 1xf6
 528.625 261.375 528.5 268.125 528.5 272.625 c 0
 528.5 299.125 532.25 322 539.75 341.25 c 0
 545.25 355.75 554.125 370.375 566.375 385.125 c 0
 575.375 395.875 591.5625 411.5625 614.9375 432.1875 c 0
 638.3125 452.8125 653.5 469.25 660.5 481.5 c 0
 667.5 493.75 671 507.125 671 521.625 c 0
 671 547.875 660.75 570.9375 640.25 590.8125 c 0
 619.75 610.6875 594.625 620.625 564.875 620.625 c 0
 536.125 620.625 512.125 611.625 492.875 593.625 c 0
 473.625 575.625 461 547.5 455 509.25 c 1
 385.625 517.5 l 1
 391.875 568.75 410.4375 608 441.3125 635.25 c 0
 472.1875 662.5 513 676.125 563.75 676.125 c 0
 617.5 676.125 660.375 661.5 692.375 632.25 c 0
 724.375 603 740.375 567.625 740.375 526.125 c 0
 740.375 502.125 734.75 480 723.5 459.75 c 0
 712.25 439.5 690.25 414.875 657.5 385.875 c 0
 635.5 366.375 621.125 352 614.375 342.75 c 0
 607.625 333.5 602.625 322.875 599.375 310.875 c 0
 596.125 298.875 594.25 279.375 593.75 252.375 c 1
 528.875 252.375 l 1xf6
524.75 117 m 1xfa
 524.75 193.875 l 1
 601.625 193.875 l 1
 601.625 117 l 1
 524.75 117 l 1xfa
EndSplineSet
Validated: 1
EndChar

StartChar: E
Encoding: 69 69 59
Width: 1139
VWidth: 2048
Flags: W
HStem: 117 76.875<524.75 601.625> 509.25 21G<385.625 458> 620.625 55.5<499.148 630.21>
VStem: 385.625 69.375<516.668 573.784> 524.75 76.875<117 193.875> 528.5 65.25<252.375 343.97> 671 69.375<466.207 580.855>
LayerCount: 2
Fore
SplineSet
528.875 252.375 m 1xf6
 528.625 261.375 528.5 268.125 528.5 272.625 c 0
 528.5 299.125 532.25 322 539.75 341.25 c 0
 545.25 355.75 554.125 370.375 566.375 385.125 c 0
 575.375 395.875 591.5625 411.5625 614.9375 432.1875 c 0
 638.3125 452.8125 653.5 469.25 660.5 481.5 c 0
 667.5 493.75 671 507.125 671 521.625 c 0
 671 547.875 660.75 570.9375 640.25 590.8125 c 0
 619.75 610.6875 594.625 620.625 564.875 620.625 c 0
 536.125 620.625 512.125 611.625 492.875 593.625 c 0
 473.625 575.625 461 547.5 455 509.25 c 1
 385.625 517.5 l 1
 391.875 568.75 410.4375 608 441.3125 635.25 c 0
 472.1875 662.5 513 676.125 563.75 676.125 c 0
 617.5 676.125 660.375 661.5 692.375 632.25 c 0
 724.375 603 740.375 567.625 740.375 526.125 c 0
 740.375 502.125 734.75 480 723.5 459.75 c 0
 712.25 439.5 690.25 414.875 657.5 385.875 c 0
 635.5 366.375 621.125 352 614.375 342.75 c 0
 607.625 333.5 602.625 322.875 599.375 310.875 c 0
 596.125 298.875 594.25 279.375 593.75 252.375 c 1
 528.875 252.375 l 1xf6
524.75 117 m 1xfa
 524.75 193.875 l 1
 601.625 193.875 l 1
 601.625 117 l 1
 524.75 117 l 1xfa
EndSplineSet
Validated: 1
EndChar

StartChar: F
Encoding: 70 70 60
Width: 1139
VWidth: 2048
Flags: W
HStem: 117 76.875<524.75 601.625> 509.25 21G<385.625 458> 620.625 55.5<499.148 630.21>
VStem: 385.625 69.375<516.668 573.784> 524.75 76.875<117 193.875> 528.5 65.25<252.375 343.97> 671 69.375<466.207 580.855>
LayerCount: 2
Fore
SplineSet
528.875 252.375 m 1xf6
 528.625 261.375 528.5 268.125 528.5 272.625 c 0
 528.5 299.125 532.25 322 539.75 341.25 c 0
 545.25 355.75 554.125 370.375 566.375 385.125 c 0
 575.375 395.875 591.5625 411.5625 614.9375 432.1875 c 0
 638.3125 452.8125 653.5 469.25 660.5 481.5 c 0
 667.5 493.75 671 507.125 671 521.625 c 0
 671 547.875 660.75 570.9375 640.25 590.8125 c 0
 619.75 610.6875 594.625 620.625 564.875 620.625 c 0
 536.125 620.625 512.125 611.625 492.875 593.625 c 0
 473.625 575.625 461 547.5 455 509.25 c 1
 385.625 517.5 l 1
 391.875 568.75 410.4375 608 441.3125 635.25 c 0
 472.1875 662.5 513 676.125 563.75 676.125 c 0
 617.5 676.125 660.375 661.5 692.375 632.25 c 0
 724.375 603 740.375 567.625 740.375 526.125 c 0
 740.375 502.125 734.75 480 723.5 459.75 c 0
 712.25 439.5 690.25 414.875 657.5 385.875 c 0
 635.5 366.375 621.125 352 614.375 342.75 c 0
 607.625 333.5 602.625 322.875 599.375 310.875 c 0
 596.125 298.875 594.25 279.375 593.75 252.375 c 1
 528.875 252.375 l 1xf6
524.75 117 m 1xfa
 524.75 193.875 l 1
 601.625 193.875 l 1
 601.625 117 l 1
 524.75 117 l 1xfa
EndSplineSet
Validated: 1
EndChar

StartChar: G
Encoding: 71 71 61
Width: 1139
VWidth: 2048
Flags: W
HStem: 117 76.875<524.75 601.625> 509.25 21G<385.625 458> 620.625 55.5<499.148 630.21>
VStem: 385.625 69.375<516.668 573.784> 524.75 76.875<117 193.875> 528.5 65.25<252.375 343.97> 671 69.375<466.207 580.855>
LayerCount: 2
Fore
SplineSet
528.875 252.375 m 1xf6
 528.625 261.375 528.5 268.125 528.5 272.625 c 0
 528.5 299.125 532.25 322 539.75 341.25 c 0
 545.25 355.75 554.125 370.375 566.375 385.125 c 0
 575.375 395.875 591.5625 411.5625 614.9375 432.1875 c 0
 638.3125 452.8125 653.5 469.25 660.5 481.5 c 0
 667.5 493.75 671 507.125 671 521.625 c 0
 671 547.875 660.75 570.9375 640.25 590.8125 c 0
 619.75 610.6875 594.625 620.625 564.875 620.625 c 0
 536.125 620.625 512.125 611.625 492.875 593.625 c 0
 473.625 575.625 461 547.5 455 509.25 c 1
 385.625 517.5 l 1
 391.875 568.75 410.4375 608 441.3125 635.25 c 0
 472.1875 662.5 513 676.125 563.75 676.125 c 0
 617.5 676.125 660.375 661.5 692.375 632.25 c 0
 724.375 603 740.375 567.625 740.375 526.125 c 0
 740.375 502.125 734.75 480 723.5 459.75 c 0
 712.25 439.5 690.25 414.875 657.5 385.875 c 0
 635.5 366.375 621.125 352 614.375 342.75 c 0
 607.625 333.5 602.625 322.875 599.375 310.875 c 0
 596.125 298.875 594.25 279.375 593.75 252.375 c 1
 528.875 252.375 l 1xf6
524.75 117 m 1xfa
 524.75 193.875 l 1
 601.625 193.875 l 1
 601.625 117 l 1
 524.75 117 l 1xfa
EndSplineSet
Validated: 1
EndChar

StartChar: H
Encoding: 72 72 62
Width: 1139
VWidth: 2048
Flags: W
HStem: 117 76.875<524.75 601.625> 509.25 21G<385.625 458> 620.625 55.5<499.148 630.21>
VStem: 385.625 69.375<516.668 573.784> 524.75 76.875<117 193.875> 528.5 65.25<252.375 343.97> 671 69.375<466.207 580.855>
LayerCount: 2
Fore
SplineSet
528.875 252.375 m 1xf6
 528.625 261.375 528.5 268.125 528.5 272.625 c 0
 528.5 299.125 532.25 322 539.75 341.25 c 0
 545.25 355.75 554.125 370.375 566.375 385.125 c 0
 575.375 395.875 591.5625 411.5625 614.9375 432.1875 c 0
 638.3125 452.8125 653.5 469.25 660.5 481.5 c 0
 667.5 493.75 671 507.125 671 521.625 c 0
 671 547.875 660.75 570.9375 640.25 590.8125 c 0
 619.75 610.6875 594.625 620.625 564.875 620.625 c 0
 536.125 620.625 512.125 611.625 492.875 593.625 c 0
 473.625 575.625 461 547.5 455 509.25 c 1
 385.625 517.5 l 1
 391.875 568.75 410.4375 608 441.3125 635.25 c 0
 472.1875 662.5 513 676.125 563.75 676.125 c 0
 617.5 676.125 660.375 661.5 692.375 632.25 c 0
 724.375 603 740.375 567.625 740.375 526.125 c 0
 740.375 502.125 734.75 480 723.5 459.75 c 0
 712.25 439.5 690.25 414.875 657.5 385.875 c 0
 635.5 366.375 621.125 352 614.375 342.75 c 0
 607.625 333.5 602.625 322.875 599.375 310.875 c 0
 596.125 298.875 594.25 279.375 593.75 252.375 c 1
 528.875 252.375 l 1xf6
524.75 117 m 1xfa
 524.75 193.875 l 1
 601.625 193.875 l 1
 601.625 117 l 1
 524.75 117 l 1xfa
EndSplineSet
Validated: 1
EndChar

StartChar: I
Encoding: 73 73 63
Width: 1139
VWidth: 2048
Flags: W
HStem: 117 76.875<524.75 601.625> 509.25 21G<385.625 458> 620.625 55.5<499.148 630.21>
VStem: 385.625 69.375<516.668 573.784> 524.75 76.875<117 193.875> 528.5 65.25<252.375 343.97> 671 69.375<466.207 580.855>
LayerCount: 2
Fore
SplineSet
528.875 252.375 m 1xf6
 528.625 261.375 528.5 268.125 528.5 272.625 c 0
 528.5 299.125 532.25 322 539.75 341.25 c 0
 545.25 355.75 554.125 370.375 566.375 385.125 c 0
 575.375 395.875 591.5625 411.5625 614.9375 432.1875 c 0
 638.3125 452.8125 653.5 469.25 660.5 481.5 c 0
 667.5 493.75 671 507.125 671 521.625 c 0
 671 547.875 660.75 570.9375 640.25 590.8125 c 0
 619.75 610.6875 594.625 620.625 564.875 620.625 c 0
 536.125 620.625 512.125 611.625 492.875 593.625 c 0
 473.625 575.625 461 547.5 455 509.25 c 1
 385.625 517.5 l 1
 391.875 568.75 410.4375 608 441.3125 635.25 c 0
 472.1875 662.5 513 676.125 563.75 676.125 c 0
 617.5 676.125 660.375 661.5 692.375 632.25 c 0
 724.375 603 740.375 567.625 740.375 526.125 c 0
 740.375 502.125 734.75 480 723.5 459.75 c 0
 712.25 439.5 690.25 414.875 657.5 385.875 c 0
 635.5 366.375 621.125 352 614.375 342.75 c 0
 607.625 333.5 602.625 322.875 599.375 310.875 c 0
 596.125 298.875 594.25 279.375 593.75 252.375 c 1
 528.875 252.375 l 1xf6
524.75 117 m 1xfa
 524.75 193.875 l 1
 601.625 193.875 l 1
 601.625 117 l 1
 524.75 117 l 1xfa
EndSplineSet
Validated: 1
EndChar

StartChar: J
Encoding: 74 74 64
Width: 1139
VWidth: 2048
Flags: W
HStem: 117 76.875<524.75 601.625> 509.25 21G<385.625 458> 620.625 55.5<499.148 630.21>
VStem: 385.625 69.375<516.668 573.784> 524.75 76.875<117 193.875> 528.5 65.25<252.375 343.97> 671 69.375<466.207 580.855>
LayerCount: 2
Fore
SplineSet
528.875 252.375 m 1xf6
 528.625 261.375 528.5 268.125 528.5 272.625 c 0
 528.5 299.125 532.25 322 539.75 341.25 c 0
 545.25 355.75 554.125 370.375 566.375 385.125 c 0
 575.375 395.875 591.5625 411.5625 614.9375 432.1875 c 0
 638.3125 452.8125 653.5 469.25 660.5 481.5 c 0
 667.5 493.75 671 507.125 671 521.625 c 0
 671 547.875 660.75 570.9375 640.25 590.8125 c 0
 619.75 610.6875 594.625 620.625 564.875 620.625 c 0
 536.125 620.625 512.125 611.625 492.875 593.625 c 0
 473.625 575.625 461 547.5 455 509.25 c 1
 385.625 517.5 l 1
 391.875 568.75 410.4375 608 441.3125 635.25 c 0
 472.1875 662.5 513 676.125 563.75 676.125 c 0
 617.5 676.125 660.375 661.5 692.375 632.25 c 0
 724.375 603 740.375 567.625 740.375 526.125 c 0
 740.375 502.125 734.75 480 723.5 459.75 c 0
 712.25 439.5 690.25 414.875 657.5 385.875 c 0
 635.5 366.375 621.125 352 614.375 342.75 c 0
 607.625 333.5 602.625 322.875 599.375 310.875 c 0
 596.125 298.875 594.25 279.375 593.75 252.375 c 1
 528.875 252.375 l 1xf6
524.75 117 m 1xfa
 524.75 193.875 l 1
 601.625 193.875 l 1
 601.625 117 l 1
 524.75 117 l 1xfa
EndSplineSet
Validated: 1
EndChar

StartChar: K
Encoding: 75 75 65
Width: 1139
VWidth: 2048
Flags: W
HStem: 117 76.875<524.75 601.625> 509.25 21G<385.625 458> 620.625 55.5<499.148 630.21>
VStem: 385.625 69.375<516.668 573.784> 524.75 76.875<117 193.875> 528.5 65.25<252.375 343.97> 671 69.375<466.207 580.855>
LayerCount: 2
Fore
SplineSet
528.875 252.375 m 1xf6
 528.625 261.375 528.5 268.125 528.5 272.625 c 0
 528.5 299.125 532.25 322 539.75 341.25 c 0
 545.25 355.75 554.125 370.375 566.375 385.125 c 0
 575.375 395.875 591.5625 411.5625 614.9375 432.1875 c 0
 638.3125 452.8125 653.5 469.25 660.5 481.5 c 0
 667.5 493.75 671 507.125 671 521.625 c 0
 671 547.875 660.75 570.9375 640.25 590.8125 c 0
 619.75 610.6875 594.625 620.625 564.875 620.625 c 0
 536.125 620.625 512.125 611.625 492.875 593.625 c 0
 473.625 575.625 461 547.5 455 509.25 c 1
 385.625 517.5 l 1
 391.875 568.75 410.4375 608 441.3125 635.25 c 0
 472.1875 662.5 513 676.125 563.75 676.125 c 0
 617.5 676.125 660.375 661.5 692.375 632.25 c 0
 724.375 603 740.375 567.625 740.375 526.125 c 0
 740.375 502.125 734.75 480 723.5 459.75 c 0
 712.25 439.5 690.25 414.875 657.5 385.875 c 0
 635.5 366.375 621.125 352 614.375 342.75 c 0
 607.625 333.5 602.625 322.875 599.375 310.875 c 0
 596.125 298.875 594.25 279.375 593.75 252.375 c 1
 528.875 252.375 l 1xf6
524.75 117 m 1xfa
 524.75 193.875 l 1
 601.625 193.875 l 1
 601.625 117 l 1
 524.75 117 l 1xfa
EndSplineSet
Validated: 1
EndChar

StartChar: L
Encoding: 76 76 66
Width: 1139
VWidth: 2048
Flags: W
HStem: 117 76.875<524.75 601.625> 509.25 21G<385.625 458> 620.625 55.5<499.148 630.21>
VStem: 385.625 69.375<516.668 573.784> 524.75 76.875<117 193.875> 528.5 65.25<252.375 343.97> 671 69.375<466.207 580.855>
LayerCount: 2
Fore
SplineSet
528.875 252.375 m 1xf6
 528.625 261.375 528.5 268.125 528.5 272.625 c 0
 528.5 299.125 532.25 322 539.75 341.25 c 0
 545.25 355.75 554.125 370.375 566.375 385.125 c 0
 575.375 395.875 591.5625 411.5625 614.9375 432.1875 c 0
 638.3125 452.8125 653.5 469.25 660.5 481.5 c 0
 667.5 493.75 671 507.125 671 521.625 c 0
 671 547.875 660.75 570.9375 640.25 590.8125 c 0
 619.75 610.6875 594.625 620.625 564.875 620.625 c 0
 536.125 620.625 512.125 611.625 492.875 593.625 c 0
 473.625 575.625 461 547.5 455 509.25 c 1
 385.625 517.5 l 1
 391.875 568.75 410.4375 608 441.3125 635.25 c 0
 472.1875 662.5 513 676.125 563.75 676.125 c 0
 617.5 676.125 660.375 661.5 692.375 632.25 c 0
 724.375 603 740.375 567.625 740.375 526.125 c 0
 740.375 502.125 734.75 480 723.5 459.75 c 0
 712.25 439.5 690.25 414.875 657.5 385.875 c 0
 635.5 366.375 621.125 352 614.375 342.75 c 0
 607.625 333.5 602.625 322.875 599.375 310.875 c 0
 596.125 298.875 594.25 279.375 593.75 252.375 c 1
 528.875 252.375 l 1xf6
524.75 117 m 1xfa
 524.75 193.875 l 1
 601.625 193.875 l 1
 601.625 117 l 1
 524.75 117 l 1xfa
EndSplineSet
Validated: 1
EndChar

StartChar: M
Encoding: 77 77 67
Width: 1139
VWidth: 2048
Flags: W
HStem: 117 76.875<524.75 601.625> 509.25 21G<385.625 458> 620.625 55.5<499.148 630.21>
VStem: 385.625 69.375<516.668 573.784> 524.75 76.875<117 193.875> 528.5 65.25<252.375 343.97> 671 69.375<466.207 580.855>
LayerCount: 2
Fore
SplineSet
528.875 252.375 m 1xf6
 528.625 261.375 528.5 268.125 528.5 272.625 c 0
 528.5 299.125 532.25 322 539.75 341.25 c 0
 545.25 355.75 554.125 370.375 566.375 385.125 c 0
 575.375 395.875 591.5625 411.5625 614.9375 432.1875 c 0
 638.3125 452.8125 653.5 469.25 660.5 481.5 c 0
 667.5 493.75 671 507.125 671 521.625 c 0
 671 547.875 660.75 570.9375 640.25 590.8125 c 0
 619.75 610.6875 594.625 620.625 564.875 620.625 c 0
 536.125 620.625 512.125 611.625 492.875 593.625 c 0
 473.625 575.625 461 547.5 455 509.25 c 1
 385.625 517.5 l 1
 391.875 568.75 410.4375 608 441.3125 635.25 c 0
 472.1875 662.5 513 676.125 563.75 676.125 c 0
 617.5 676.125 660.375 661.5 692.375 632.25 c 0
 724.375 603 740.375 567.625 740.375 526.125 c 0
 740.375 502.125 734.75 480 723.5 459.75 c 0
 712.25 439.5 690.25 414.875 657.5 385.875 c 0
 635.5 366.375 621.125 352 614.375 342.75 c 0
 607.625 333.5 602.625 322.875 599.375 310.875 c 0
 596.125 298.875 594.25 279.375 593.75 252.375 c 1
 528.875 252.375 l 1xf6
524.75 117 m 1xfa
 524.75 193.875 l 1
 601.625 193.875 l 1
 601.625 117 l 1
 524.75 117 l 1xfa
EndSplineSet
Validated: 1
EndChar

StartChar: N
Encoding: 78 78 68
Width: 1139
VWidth: 2048
Flags: W
HStem: 117 76.875<524.75 601.625> 509.25 21G<385.625 458> 620.625 55.5<499.148 630.21>
VStem: 385.625 69.375<516.668 573.784> 524.75 76.875<117 193.875> 528.5 65.25<252.375 343.97> 671 69.375<466.207 580.855>
LayerCount: 2
Fore
SplineSet
528.875 252.375 m 1xf6
 528.625 261.375 528.5 268.125 528.5 272.625 c 0
 528.5 299.125 532.25 322 539.75 341.25 c 0
 545.25 355.75 554.125 370.375 566.375 385.125 c 0
 575.375 395.875 591.5625 411.5625 614.9375 432.1875 c 0
 638.3125 452.8125 653.5 469.25 660.5 481.5 c 0
 667.5 493.75 671 507.125 671 521.625 c 0
 671 547.875 660.75 570.9375 640.25 590.8125 c 0
 619.75 610.6875 594.625 620.625 564.875 620.625 c 0
 536.125 620.625 512.125 611.625 492.875 593.625 c 0
 473.625 575.625 461 547.5 455 509.25 c 1
 385.625 517.5 l 1
 391.875 568.75 410.4375 608 441.3125 635.25 c 0
 472.1875 662.5 513 676.125 563.75 676.125 c 0
 617.5 676.125 660.375 661.5 692.375 632.25 c 0
 724.375 603 740.375 567.625 740.375 526.125 c 0
 740.375 502.125 734.75 480 723.5 459.75 c 0
 712.25 439.5 690.25 414.875 657.5 385.875 c 0
 635.5 366.375 621.125 352 614.375 342.75 c 0
 607.625 333.5 602.625 322.875 599.375 310.875 c 0
 596.125 298.875 594.25 279.375 593.75 252.375 c 1
 528.875 252.375 l 1xf6
524.75 117 m 1xfa
 524.75 193.875 l 1
 601.625 193.875 l 1
 601.625 117 l 1
 524.75 117 l 1xfa
EndSplineSet
Validated: 1
EndChar

StartChar: O
Encoding: 79 79 69
Width: 1139
VWidth: 2048
Flags: W
HStem: 117 76.875<524.75 601.625> 509.25 21G<385.625 458> 620.625 55.5<499.148 630.21>
VStem: 385.625 69.375<516.668 573.784> 524.75 76.875<117 193.875> 528.5 65.25<252.375 343.97> 671 69.375<466.207 580.855>
LayerCount: 2
Fore
SplineSet
528.875 252.375 m 1xf6
 528.625 261.375 528.5 268.125 528.5 272.625 c 0
 528.5 299.125 532.25 322 539.75 341.25 c 0
 545.25 355.75 554.125 370.375 566.375 385.125 c 0
 575.375 395.875 591.5625 411.5625 614.9375 432.1875 c 0
 638.3125 452.8125 653.5 469.25 660.5 481.5 c 0
 667.5 493.75 671 507.125 671 521.625 c 0
 671 547.875 660.75 570.9375 640.25 590.8125 c 0
 619.75 610.6875 594.625 620.625 564.875 620.625 c 0
 536.125 620.625 512.125 611.625 492.875 593.625 c 0
 473.625 575.625 461 547.5 455 509.25 c 1
 385.625 517.5 l 1
 391.875 568.75 410.4375 608 441.3125 635.25 c 0
 472.1875 662.5 513 676.125 563.75 676.125 c 0
 617.5 676.125 660.375 661.5 692.375 632.25 c 0
 724.375 603 740.375 567.625 740.375 526.125 c 0
 740.375 502.125 734.75 480 723.5 459.75 c 0
 712.25 439.5 690.25 414.875 657.5 385.875 c 0
 635.5 366.375 621.125 352 614.375 342.75 c 0
 607.625 333.5 602.625 322.875 599.375 310.875 c 0
 596.125 298.875 594.25 279.375 593.75 252.375 c 1
 528.875 252.375 l 1xf6
524.75 117 m 1xfa
 524.75 193.875 l 1
 601.625 193.875 l 1
 601.625 117 l 1
 524.75 117 l 1xfa
EndSplineSet
Validated: 1
EndChar

StartChar: P
Encoding: 80 80 70
Width: 1139
VWidth: 2048
Flags: W
HStem: 117 76.875<524.75 601.625> 509.25 21G<385.625 458> 620.625 55.5<499.148 630.21>
VStem: 385.625 69.375<516.668 573.784> 524.75 76.875<117 193.875> 528.5 65.25<252.375 343.97> 671 69.375<466.207 580.855>
LayerCount: 2
Fore
SplineSet
528.875 252.375 m 1xf6
 528.625 261.375 528.5 268.125 528.5 272.625 c 0
 528.5 299.125 532.25 322 539.75 341.25 c 0
 545.25 355.75 554.125 370.375 566.375 385.125 c 0
 575.375 395.875 591.5625 411.5625 614.9375 432.1875 c 0
 638.3125 452.8125 653.5 469.25 660.5 481.5 c 0
 667.5 493.75 671 507.125 671 521.625 c 0
 671 547.875 660.75 570.9375 640.25 590.8125 c 0
 619.75 610.6875 594.625 620.625 564.875 620.625 c 0
 536.125 620.625 512.125 611.625 492.875 593.625 c 0
 473.625 575.625 461 547.5 455 509.25 c 1
 385.625 517.5 l 1
 391.875 568.75 410.4375 608 441.3125 635.25 c 0
 472.1875 662.5 513 676.125 563.75 676.125 c 0
 617.5 676.125 660.375 661.5 692.375 632.25 c 0
 724.375 603 740.375 567.625 740.375 526.125 c 0
 740.375 502.125 734.75 480 723.5 459.75 c 0
 712.25 439.5 690.25 414.875 657.5 385.875 c 0
 635.5 366.375 621.125 352 614.375 342.75 c 0
 607.625 333.5 602.625 322.875 599.375 310.875 c 0
 596.125 298.875 594.25 279.375 593.75 252.375 c 1
 528.875 252.375 l 1xf6
524.75 117 m 1xfa
 524.75 193.875 l 1
 601.625 193.875 l 1
 601.625 117 l 1
 524.75 117 l 1xfa
EndSplineSet
Validated: 1
EndChar

StartChar: Q
Encoding: 81 81 71
Width: 1139
VWidth: 2048
Flags: W
HStem: 117 76.875<524.75 601.625> 509.25 21G<385.625 458> 620.625 55.5<499.148 630.21>
VStem: 385.625 69.375<516.668 573.784> 524.75 76.875<117 193.875> 528.5 65.25<252.375 343.97> 671 69.375<466.207 580.855>
LayerCount: 2
Fore
SplineSet
528.875 252.375 m 1xf6
 528.625 261.375 528.5 268.125 528.5 272.625 c 0
 528.5 299.125 532.25 322 539.75 341.25 c 0
 545.25 355.75 554.125 370.375 566.375 385.125 c 0
 575.375 395.875 591.5625 411.5625 614.9375 432.1875 c 0
 638.3125 452.8125 653.5 469.25 660.5 481.5 c 0
 667.5 493.75 671 507.125 671 521.625 c 0
 671 547.875 660.75 570.9375 640.25 590.8125 c 0
 619.75 610.6875 594.625 620.625 564.875 620.625 c 0
 536.125 620.625 512.125 611.625 492.875 593.625 c 0
 473.625 575.625 461 547.5 455 509.25 c 1
 385.625 517.5 l 1
 391.875 568.75 410.4375 608 441.3125 635.25 c 0
 472.1875 662.5 513 676.125 563.75 676.125 c 0
 617.5 676.125 660.375 661.5 692.375 632.25 c 0
 724.375 603 740.375 567.625 740.375 526.125 c 0
 740.375 502.125 734.75 480 723.5 459.75 c 0
 712.25 439.5 690.25 414.875 657.5 385.875 c 0
 635.5 366.375 621.125 352 614.375 342.75 c 0
 607.625 333.5 602.625 322.875 599.375 310.875 c 0
 596.125 298.875 594.25 279.375 593.75 252.375 c 1
 528.875 252.375 l 1xf6
524.75 117 m 1xfa
 524.75 193.875 l 1
 601.625 193.875 l 1
 601.625 117 l 1
 524.75 117 l 1xfa
EndSplineSet
Validated: 1
EndChar

StartChar: S
Encoding: 83 83 72
Width: 1139
VWidth: 2048
Flags: W
HStem: 117 76.875<524.75 601.625> 509.25 21G<385.625 458> 620.625 55.5<499.148 630.21>
VStem: 385.625 69.375<516.668 573.784> 524.75 76.875<117 193.875> 528.5 65.25<252.375 343.97> 671 69.375<466.207 580.855>
LayerCount: 2
Fore
SplineSet
528.875 252.375 m 1xf6
 528.625 261.375 528.5 268.125 528.5 272.625 c 0
 528.5 299.125 532.25 322 539.75 341.25 c 0
 545.25 355.75 554.125 370.375 566.375 385.125 c 0
 575.375 395.875 591.5625 411.5625 614.9375 432.1875 c 0
 638.3125 452.8125 653.5 469.25 660.5 481.5 c 0
 667.5 493.75 671 507.125 671 521.625 c 0
 671 547.875 660.75 570.9375 640.25 590.8125 c 0
 619.75 610.6875 594.625 620.625 564.875 620.625 c 0
 536.125 620.625 512.125 611.625 492.875 593.625 c 0
 473.625 575.625 461 547.5 455 509.25 c 1
 385.625 517.5 l 1
 391.875 568.75 410.4375 608 441.3125 635.25 c 0
 472.1875 662.5 513 676.125 563.75 676.125 c 0
 617.5 676.125 660.375 661.5 692.375 632.25 c 0
 724.375 603 740.375 567.625 740.375 526.125 c 0
 740.375 502.125 734.75 480 723.5 459.75 c 0
 712.25 439.5 690.25 414.875 657.5 385.875 c 0
 635.5 366.375 621.125 352 614.375 342.75 c 0
 607.625 333.5 602.625 322.875 599.375 310.875 c 0
 596.125 298.875 594.25 279.375 593.75 252.375 c 1
 528.875 252.375 l 1xf6
524.75 117 m 1xfa
 524.75 193.875 l 1
 601.625 193.875 l 1
 601.625 117 l 1
 524.75 117 l 1xfa
EndSplineSet
Validated: 1
EndChar

StartChar: T
Encoding: 84 84 73
Width: 1139
VWidth: 2048
Flags: W
HStem: 117 76.875<524.75 601.625> 509.25 21G<385.625 458> 620.625 55.5<499.148 630.21>
VStem: 385.625 69.375<516.668 573.784> 524.75 76.875<117 193.875> 528.5 65.25<252.375 343.97> 671 69.375<466.207 580.855>
LayerCount: 2
Fore
SplineSet
528.875 252.375 m 1xf6
 528.625 261.375 528.5 268.125 528.5 272.625 c 0
 528.5 299.125 532.25 322 539.75 341.25 c 0
 545.25 355.75 554.125 370.375 566.375 385.125 c 0
 575.375 395.875 591.5625 411.5625 614.9375 432.1875 c 0
 638.3125 452.8125 653.5 469.25 660.5 481.5 c 0
 667.5 493.75 671 507.125 671 521.625 c 0
 671 547.875 660.75 570.9375 640.25 590.8125 c 0
 619.75 610.6875 594.625 620.625 564.875 620.625 c 0
 536.125 620.625 512.125 611.625 492.875 593.625 c 0
 473.625 575.625 461 547.5 455 509.25 c 1
 385.625 517.5 l 1
 391.875 568.75 410.4375 608 441.3125 635.25 c 0
 472.1875 662.5 513 676.125 563.75 676.125 c 0
 617.5 676.125 660.375 661.5 692.375 632.25 c 0
 724.375 603 740.375 567.625 740.375 526.125 c 0
 740.375 502.125 734.75 480 723.5 459.75 c 0
 712.25 439.5 690.25 414.875 657.5 385.875 c 0
 635.5 366.375 621.125 352 614.375 342.75 c 0
 607.625 333.5 602.625 322.875 599.375 310.875 c 0
 596.125 298.875 594.25 279.375 593.75 252.375 c 1
 528.875 252.375 l 1xf6
524.75 117 m 1xfa
 524.75 193.875 l 1
 601.625 193.875 l 1
 601.625 117 l 1
 524.75 117 l 1xfa
EndSplineSet
Validated: 1
EndChar

StartChar: U
Encoding: 85 85 74
Width: 1139
VWidth: 2048
Flags: W
HStem: 117 76.875<524.75 601.625> 509.25 21G<385.625 458> 620.625 55.5<499.148 630.21>
VStem: 385.625 69.375<516.668 573.784> 524.75 76.875<117 193.875> 528.5 65.25<252.375 343.97> 671 69.375<466.207 580.855>
LayerCount: 2
Fore
SplineSet
528.875 252.375 m 1xf6
 528.625 261.375 528.5 268.125 528.5 272.625 c 0
 528.5 299.125 532.25 322 539.75 341.25 c 0
 545.25 355.75 554.125 370.375 566.375 385.125 c 0
 575.375 395.875 591.5625 411.5625 614.9375 432.1875 c 0
 638.3125 452.8125 653.5 469.25 660.5 481.5 c 0
 667.5 493.75 671 507.125 671 521.625 c 0
 671 547.875 660.75 570.9375 640.25 590.8125 c 0
 619.75 610.6875 594.625 620.625 564.875 620.625 c 0
 536.125 620.625 512.125 611.625 492.875 593.625 c 0
 473.625 575.625 461 547.5 455 509.25 c 1
 385.625 517.5 l 1
 391.875 568.75 410.4375 608 441.3125 635.25 c 0
 472.1875 662.5 513 676.125 563.75 676.125 c 0
 617.5 676.125 660.375 661.5 692.375 632.25 c 0
 724.375 603 740.375 567.625 740.375 526.125 c 0
 740.375 502.125 734.75 480 723.5 459.75 c 0
 712.25 439.5 690.25 414.875 657.5 385.875 c 0
 635.5 366.375 621.125 352 614.375 342.75 c 0
 607.625 333.5 602.625 322.875 599.375 310.875 c 0
 596.125 298.875 594.25 279.375 593.75 252.375 c 1
 528.875 252.375 l 1xf6
524.75 117 m 1xfa
 524.75 193.875 l 1
 601.625 193.875 l 1
 601.625 117 l 1
 524.75 117 l 1xfa
EndSplineSet
Validated: 1
EndChar

StartChar: V
Encoding: 86 86 75
Width: 1139
VWidth: 2048
Flags: W
HStem: 117 76.875<524.75 601.625> 509.25 21G<385.625 458> 620.625 55.5<499.148 630.21>
VStem: 385.625 69.375<516.668 573.784> 524.75 76.875<117 193.875> 528.5 65.25<252.375 343.97> 671 69.375<466.207 580.855>
LayerCount: 2
Fore
SplineSet
528.875 252.375 m 1xf6
 528.625 261.375 528.5 268.125 528.5 272.625 c 0
 528.5 299.125 532.25 322 539.75 341.25 c 0
 545.25 355.75 554.125 370.375 566.375 385.125 c 0
 575.375 395.875 591.5625 411.5625 614.9375 432.1875 c 0
 638.3125 452.8125 653.5 469.25 660.5 481.5 c 0
 667.5 493.75 671 507.125 671 521.625 c 0
 671 547.875 660.75 570.9375 640.25 590.8125 c 0
 619.75 610.6875 594.625 620.625 564.875 620.625 c 0
 536.125 620.625 512.125 611.625 492.875 593.625 c 0
 473.625 575.625 461 547.5 455 509.25 c 1
 385.625 517.5 l 1
 391.875 568.75 410.4375 608 441.3125 635.25 c 0
 472.1875 662.5 513 676.125 563.75 676.125 c 0
 617.5 676.125 660.375 661.5 692.375 632.25 c 0
 724.375 603 740.375 567.625 740.375 526.125 c 0
 740.375 502.125 734.75 480 723.5 459.75 c 0
 712.25 439.5 690.25 414.875 657.5 385.875 c 0
 635.5 366.375 621.125 352 614.375 342.75 c 0
 607.625 333.5 602.625 322.875 599.375 310.875 c 0
 596.125 298.875 594.25 279.375 593.75 252.375 c 1
 528.875 252.375 l 1xf6
524.75 117 m 1xfa
 524.75 193.875 l 1
 601.625 193.875 l 1
 601.625 117 l 1
 524.75 117 l 1xfa
EndSplineSet
Validated: 1
EndChar

StartChar: X
Encoding: 88 88 76
Width: 1139
VWidth: 2048
Flags: W
HStem: 117 76.875<524.75 601.625> 509.25 21G<385.625 458> 620.625 55.5<499.148 630.21>
VStem: 385.625 69.375<516.668 573.784> 524.75 76.875<117 193.875> 528.5 65.25<252.375 343.97> 671 69.375<466.207 580.855>
LayerCount: 2
Fore
SplineSet
528.875 252.375 m 1xf6
 528.625 261.375 528.5 268.125 528.5 272.625 c 0
 528.5 299.125 532.25 322 539.75 341.25 c 0
 545.25 355.75 554.125 370.375 566.375 385.125 c 0
 575.375 395.875 591.5625 411.5625 614.9375 432.1875 c 0
 638.3125 452.8125 653.5 469.25 660.5 481.5 c 0
 667.5 493.75 671 507.125 671 521.625 c 0
 671 547.875 660.75 570.9375 640.25 590.8125 c 0
 619.75 610.6875 594.625 620.625 564.875 620.625 c 0
 536.125 620.625 512.125 611.625 492.875 593.625 c 0
 473.625 575.625 461 547.5 455 509.25 c 1
 385.625 517.5 l 1
 391.875 568.75 410.4375 608 441.3125 635.25 c 0
 472.1875 662.5 513 676.125 563.75 676.125 c 0
 617.5 676.125 660.375 661.5 692.375 632.25 c 0
 724.375 603 740.375 567.625 740.375 526.125 c 0
 740.375 502.125 734.75 480 723.5 459.75 c 0
 712.25 439.5 690.25 414.875 657.5 385.875 c 0
 635.5 366.375 621.125 352 614.375 342.75 c 0
 607.625 333.5 602.625 322.875 599.375 310.875 c 0
 596.125 298.875 594.25 279.375 593.75 252.375 c 1
 528.875 252.375 l 1xf6
524.75 117 m 1xfa
 524.75 193.875 l 1
 601.625 193.875 l 1
 601.625 117 l 1
 524.75 117 l 1xfa
EndSplineSet
Validated: 1
EndChar

StartChar: Y
Encoding: 89 89 77
Width: 1139
VWidth: 2048
Flags: W
HStem: 117 76.875<524.75 601.625> 509.25 21G<385.625 458> 620.625 55.5<499.148 630.21>
VStem: 385.625 69.375<516.668 573.784> 524.75 76.875<117 193.875> 528.5 65.25<252.375 343.97> 671 69.375<466.207 580.855>
LayerCount: 2
Fore
SplineSet
528.875 252.375 m 1xf6
 528.625 261.375 528.5 268.125 528.5 272.625 c 0
 528.5 299.125 532.25 322 539.75 341.25 c 0
 545.25 355.75 554.125 370.375 566.375 385.125 c 0
 575.375 395.875 591.5625 411.5625 614.9375 432.1875 c 0
 638.3125 452.8125 653.5 469.25 660.5 481.5 c 0
 667.5 493.75 671 507.125 671 521.625 c 0
 671 547.875 660.75 570.9375 640.25 590.8125 c 0
 619.75 610.6875 594.625 620.625 564.875 620.625 c 0
 536.125 620.625 512.125 611.625 492.875 593.625 c 0
 473.625 575.625 461 547.5 455 509.25 c 1
 385.625 517.5 l 1
 391.875 568.75 410.4375 608 441.3125 635.25 c 0
 472.1875 662.5 513 676.125 563.75 676.125 c 0
 617.5 676.125 660.375 661.5 692.375 632.25 c 0
 724.375 603 740.375 567.625 740.375 526.125 c 0
 740.375 502.125 734.75 480 723.5 459.75 c 0
 712.25 439.5 690.25 414.875 657.5 385.875 c 0
 635.5 366.375 621.125 352 614.375 342.75 c 0
 607.625 333.5 602.625 322.875 599.375 310.875 c 0
 596.125 298.875 594.25 279.375 593.75 252.375 c 1
 528.875 252.375 l 1xf6
524.75 117 m 1xfa
 524.75 193.875 l 1
 601.625 193.875 l 1
 601.625 117 l 1
 524.75 117 l 1xfa
EndSplineSet
Validated: 1
EndChar

StartChar: bracketleft
Encoding: 91 91 78
Width: 1139
VWidth: 2048
Flags: W
HStem: 117 76.875<524.75 601.625> 509.25 21G<385.625 458> 620.625 55.5<499.148 630.21>
VStem: 385.625 69.375<516.668 573.784> 524.75 76.875<117 193.875> 528.5 65.25<252.375 343.97> 671 69.375<466.207 580.855>
LayerCount: 2
Fore
SplineSet
528.875 252.375 m 1xf6
 528.625 261.375 528.5 268.125 528.5 272.625 c 0
 528.5 299.125 532.25 322 539.75 341.25 c 0
 545.25 355.75 554.125 370.375 566.375 385.125 c 0
 575.375 395.875 591.5625 411.5625 614.9375 432.1875 c 0
 638.3125 452.8125 653.5 469.25 660.5 481.5 c 0
 667.5 493.75 671 507.125 671 521.625 c 0
 671 547.875 660.75 570.9375 640.25 590.8125 c 0
 619.75 610.6875 594.625 620.625 564.875 620.625 c 0
 536.125 620.625 512.125 611.625 492.875 593.625 c 0
 473.625 575.625 461 547.5 455 509.25 c 1
 385.625 517.5 l 1
 391.875 568.75 410.4375 608 441.3125 635.25 c 0
 472.1875 662.5 513 676.125 563.75 676.125 c 0
 617.5 676.125 660.375 661.5 692.375 632.25 c 0
 724.375 603 740.375 567.625 740.375 526.125 c 0
 740.375 502.125 734.75 480 723.5 459.75 c 0
 712.25 439.5 690.25 414.875 657.5 385.875 c 0
 635.5 366.375 621.125 352 614.375 342.75 c 0
 607.625 333.5 602.625 322.875 599.375 310.875 c 0
 596.125 298.875 594.25 279.375 593.75 252.375 c 1
 528.875 252.375 l 1xf6
524.75 117 m 1xfa
 524.75 193.875 l 1
 601.625 193.875 l 1
 601.625 117 l 1
 524.75 117 l 1xfa
EndSplineSet
Validated: 1
EndChar

StartChar: bracketright
Encoding: 93 93 79
Width: 1139
VWidth: 2048
Flags: W
HStem: 117 76.875<524.75 601.625> 509.25 21G<385.625 458> 620.625 55.5<499.148 630.21>
VStem: 385.625 69.375<516.668 573.784> 524.75 76.875<117 193.875> 528.5 65.25<252.375 343.97> 671 69.375<466.207 580.855>
LayerCount: 2
Fore
SplineSet
528.875 252.375 m 1xf6
 528.625 261.375 528.5 268.125 528.5 272.625 c 0
 528.5 299.125 532.25 322 539.75 341.25 c 0
 545.25 355.75 554.125 370.375 566.375 385.125 c 0
 575.375 395.875 591.5625 411.5625 614.9375 432.1875 c 0
 638.3125 452.8125 653.5 469.25 660.5 481.5 c 0
 667.5 493.75 671 507.125 671 521.625 c 0
 671 547.875 660.75 570.9375 640.25 590.8125 c 0
 619.75 610.6875 594.625 620.625 564.875 620.625 c 0
 536.125 620.625 512.125 611.625 492.875 593.625 c 0
 473.625 575.625 461 547.5 455 509.25 c 1
 385.625 517.5 l 1
 391.875 568.75 410.4375 608 441.3125 635.25 c 0
 472.1875 662.5 513 676.125 563.75 676.125 c 0
 617.5 676.125 660.375 661.5 692.375 632.25 c 0
 724.375 603 740.375 567.625 740.375 526.125 c 0
 740.375 502.125 734.75 480 723.5 459.75 c 0
 712.25 439.5 690.25 414.875 657.5 385.875 c 0
 635.5 366.375 621.125 352 614.375 342.75 c 0
 607.625 333.5 602.625 322.875 599.375 310.875 c 0
 596.125 298.875 594.25 279.375 593.75 252.375 c 1
 528.875 252.375 l 1xf6
524.75 117 m 1xfa
 524.75 193.875 l 1
 601.625 193.875 l 1
 601.625 117 l 1
 524.75 117 l 1xfa
EndSplineSet
Validated: 1
EndChar

StartChar: asciicircum
Encoding: 94 94 80
Width: 1139
VWidth: 2048
Flags: W
HStem: 117 76.875<524.75 601.625> 509.25 21G<385.625 458> 620.625 55.5<499.148 630.21>
VStem: 385.625 69.375<516.668 573.784> 524.75 76.875<117 193.875> 528.5 65.25<252.375 343.97> 671 69.375<466.207 580.855>
LayerCount: 2
Fore
SplineSet
528.875 252.375 m 1xf6
 528.625 261.375 528.5 268.125 528.5 272.625 c 0
 528.5 299.125 532.25 322 539.75 341.25 c 0
 545.25 355.75 554.125 370.375 566.375 385.125 c 0
 575.375 395.875 591.5625 411.5625 614.9375 432.1875 c 0
 638.3125 452.8125 653.5 469.25 660.5 481.5 c 0
 667.5 493.75 671 507.125 671 521.625 c 0
 671 547.875 660.75 570.9375 640.25 590.8125 c 0
 619.75 610.6875 594.625 620.625 564.875 620.625 c 0
 536.125 620.625 512.125 611.625 492.875 593.625 c 0
 473.625 575.625 461 547.5 455 509.25 c 1
 385.625 517.5 l 1
 391.875 568.75 410.4375 608 441.3125 635.25 c 0
 472.1875 662.5 513 676.125 563.75 676.125 c 0
 617.5 676.125 660.375 661.5 692.375 632.25 c 0
 724.375 603 740.375 567.625 740.375 526.125 c 0
 740.375 502.125 734.75 480 723.5 459.75 c 0
 712.25 439.5 690.25 414.875 657.5 385.875 c 0
 635.5 366.375 621.125 352 614.375 342.75 c 0
 607.625 333.5 602.625 322.875 599.375 310.875 c 0
 596.125 298.875 594.25 279.375 593.75 252.375 c 1
 528.875 252.375 l 1xf6
524.75 117 m 1xfa
 524.75 193.875 l 1
 601.625 193.875 l 1
 601.625 117 l 1
 524.75 117 l 1xfa
EndSplineSet
Validated: 1
EndChar

StartChar: underscore
Encoding: 95 95 81
Width: 1139
VWidth: 2048
Flags: W
HStem: 117 76.875<524.75 601.625> 509.25 21G<385.625 458> 620.625 55.5<499.148 630.21>
VStem: 385.625 69.375<516.668 573.784> 524.75 76.875<117 193.875> 528.5 65.25<252.375 343.97> 671 69.375<466.207 580.855>
LayerCount: 2
Fore
SplineSet
528.875 252.375 m 1xf6
 528.625 261.375 528.5 268.125 528.5 272.625 c 0
 528.5 299.125 532.25 322 539.75 341.25 c 0
 545.25 355.75 554.125 370.375 566.375 385.125 c 0
 575.375 395.875 591.5625 411.5625 614.9375 432.1875 c 0
 638.3125 452.8125 653.5 469.25 660.5 481.5 c 0
 667.5 493.75 671 507.125 671 521.625 c 0
 671 547.875 660.75 570.9375 640.25 590.8125 c 0
 619.75 610.6875 594.625 620.625 564.875 620.625 c 0
 536.125 620.625 512.125 611.625 492.875 593.625 c 0
 473.625 575.625 461 547.5 455 509.25 c 1
 385.625 517.5 l 1
 391.875 568.75 410.4375 608 441.3125 635.25 c 0
 472.1875 662.5 513 676.125 563.75 676.125 c 0
 617.5 676.125 660.375 661.5 692.375 632.25 c 0
 724.375 603 740.375 567.625 740.375 526.125 c 0
 740.375 502.125 734.75 480 723.5 459.75 c 0
 712.25 439.5 690.25 414.875 657.5 385.875 c 0
 635.5 366.375 621.125 352 614.375 342.75 c 0
 607.625 333.5 602.625 322.875 599.375 310.875 c 0
 596.125 298.875 594.25 279.375 593.75 252.375 c 1
 528.875 252.375 l 1xf6
524.75 117 m 1xfa
 524.75 193.875 l 1
 601.625 193.875 l 1
 601.625 117 l 1
 524.75 117 l 1xfa
EndSplineSet
Validated: 1
EndChar

StartChar: grave
Encoding: 96 96 82
Width: 1139
VWidth: 2048
Flags: W
HStem: 117 76.875<524.75 601.625> 509.25 21G<385.625 458> 620.625 55.5<499.148 630.21>
VStem: 385.625 69.375<516.668 573.784> 524.75 76.875<117 193.875> 528.5 65.25<252.375 343.97> 671 69.375<466.207 580.855>
LayerCount: 2
Fore
SplineSet
528.875 252.375 m 1xf6
 528.625 261.375 528.5 268.125 528.5 272.625 c 0
 528.5 299.125 532.25 322 539.75 341.25 c 0
 545.25 355.75 554.125 370.375 566.375 385.125 c 0
 575.375 395.875 591.5625 411.5625 614.9375 432.1875 c 0
 638.3125 452.8125 653.5 469.25 660.5 481.5 c 0
 667.5 493.75 671 507.125 671 521.625 c 0
 671 547.875 660.75 570.9375 640.25 590.8125 c 0
 619.75 610.6875 594.625 620.625 564.875 620.625 c 0
 536.125 620.625 512.125 611.625 492.875 593.625 c 0
 473.625 575.625 461 547.5 455 509.25 c 1
 385.625 517.5 l 1
 391.875 568.75 410.4375 608 441.3125 635.25 c 0
 472.1875 662.5 513 676.125 563.75 676.125 c 0
 617.5 676.125 660.375 661.5 692.375 632.25 c 0
 724.375 603 740.375 567.625 740.375 526.125 c 0
 740.375 502.125 734.75 480 723.5 459.75 c 0
 712.25 439.5 690.25 414.875 657.5 385.875 c 0
 635.5 366.375 621.125 352 614.375 342.75 c 0
 607.625 333.5 602.625 322.875 599.375 310.875 c 0
 596.125 298.875 594.25 279.375 593.75 252.375 c 1
 528.875 252.375 l 1xf6
524.75 117 m 1xfa
 524.75 193.875 l 1
 601.625 193.875 l 1
 601.625 117 l 1
 524.75 117 l 1xfa
EndSplineSet
Validated: 1
EndChar

StartChar: f
Encoding: 102 102 83
Width: 1139
VWidth: 2048
Flags: W
HStem: 117 76.875<524.75 601.625> 509.25 21G<385.625 458> 620.625 55.5<499.148 630.21>
VStem: 385.625 69.375<516.668 573.784> 524.75 76.875<117 193.875> 528.5 65.25<252.375 343.97> 671 69.375<466.207 580.855>
LayerCount: 2
Fore
SplineSet
528.875 252.375 m 1xf6
 528.625 261.375 528.5 268.125 528.5 272.625 c 0
 528.5 299.125 532.25 322 539.75 341.25 c 0
 545.25 355.75 554.125 370.375 566.375 385.125 c 0
 575.375 395.875 591.5625 411.5625 614.9375 432.1875 c 0
 638.3125 452.8125 653.5 469.25 660.5 481.5 c 0
 667.5 493.75 671 507.125 671 521.625 c 0
 671 547.875 660.75 570.9375 640.25 590.8125 c 0
 619.75 610.6875 594.625 620.625 564.875 620.625 c 0
 536.125 620.625 512.125 611.625 492.875 593.625 c 0
 473.625 575.625 461 547.5 455 509.25 c 1
 385.625 517.5 l 1
 391.875 568.75 410.4375 608 441.3125 635.25 c 0
 472.1875 662.5 513 676.125 563.75 676.125 c 0
 617.5 676.125 660.375 661.5 692.375 632.25 c 0
 724.375 603 740.375 567.625 740.375 526.125 c 0
 740.375 502.125 734.75 480 723.5 459.75 c 0
 712.25 439.5 690.25 414.875 657.5 385.875 c 0
 635.5 366.375 621.125 352 614.375 342.75 c 0
 607.625 333.5 602.625 322.875 599.375 310.875 c 0
 596.125 298.875 594.25 279.375 593.75 252.375 c 1
 528.875 252.375 l 1xf6
524.75 117 m 1xfa
 524.75 193.875 l 1
 601.625 193.875 l 1
 601.625 117 l 1
 524.75 117 l 1xfa
EndSplineSet
Validated: 1
EndChar

StartChar: h
Encoding: 104 104 84
Width: 1139
VWidth: 2048
Flags: W
HStem: 117 76.875<524.75 601.625> 509.25 21G<385.625 458> 620.625 55.5<499.148 630.21>
VStem: 385.625 69.375<516.668 573.784> 524.75 76.875<117 193.875> 528.5 65.25<252.375 343.97> 671 69.375<466.207 580.855>
LayerCount: 2
Fore
SplineSet
528.875 252.375 m 1xf6
 528.625 261.375 528.5 268.125 528.5 272.625 c 0
 528.5 299.125 532.25 322 539.75 341.25 c 0
 545.25 355.75 554.125 370.375 566.375 385.125 c 0
 575.375 395.875 591.5625 411.5625 614.9375 432.1875 c 0
 638.3125 452.8125 653.5 469.25 660.5 481.5 c 0
 667.5 493.75 671 507.125 671 521.625 c 0
 671 547.875 660.75 570.9375 640.25 590.8125 c 0
 619.75 610.6875 594.625 620.625 564.875 620.625 c 0
 536.125 620.625 512.125 611.625 492.875 593.625 c 0
 473.625 575.625 461 547.5 455 509.25 c 1
 385.625 517.5 l 1
 391.875 568.75 410.4375 608 441.3125 635.25 c 0
 472.1875 662.5 513 676.125 563.75 676.125 c 0
 617.5 676.125 660.375 661.5 692.375 632.25 c 0
 724.375 603 740.375 567.625 740.375 526.125 c 0
 740.375 502.125 734.75 480 723.5 459.75 c 0
 712.25 439.5 690.25 414.875 657.5 385.875 c 0
 635.5 366.375 621.125 352 614.375 342.75 c 0
 607.625 333.5 602.625 322.875 599.375 310.875 c 0
 596.125 298.875 594.25 279.375 593.75 252.375 c 1
 528.875 252.375 l 1xf6
524.75 117 m 1xfa
 524.75 193.875 l 1
 601.625 193.875 l 1
 601.625 117 l 1
 524.75 117 l 1xfa
EndSplineSet
Validated: 1
EndChar

StartChar: j
Encoding: 106 106 85
Width: 1139
VWidth: 2048
Flags: W
HStem: 117 76.875<524.75 601.625> 509.25 21G<385.625 458> 620.625 55.5<499.148 630.21>
VStem: 385.625 69.375<516.668 573.784> 524.75 76.875<117 193.875> 528.5 65.25<252.375 343.97> 671 69.375<466.207 580.855>
LayerCount: 2
Fore
SplineSet
528.875 252.375 m 1xf6
 528.625 261.375 528.5 268.125 528.5 272.625 c 0
 528.5 299.125 532.25 322 539.75 341.25 c 0
 545.25 355.75 554.125 370.375 566.375 385.125 c 0
 575.375 395.875 591.5625 411.5625 614.9375 432.1875 c 0
 638.3125 452.8125 653.5 469.25 660.5 481.5 c 0
 667.5 493.75 671 507.125 671 521.625 c 0
 671 547.875 660.75 570.9375 640.25 590.8125 c 0
 619.75 610.6875 594.625 620.625 564.875 620.625 c 0
 536.125 620.625 512.125 611.625 492.875 593.625 c 0
 473.625 575.625 461 547.5 455 509.25 c 1
 385.625 517.5 l 1
 391.875 568.75 410.4375 608 441.3125 635.25 c 0
 472.1875 662.5 513 676.125 563.75 676.125 c 0
 617.5 676.125 660.375 661.5 692.375 632.25 c 0
 724.375 603 740.375 567.625 740.375 526.125 c 0
 740.375 502.125 734.75 480 723.5 459.75 c 0
 712.25 439.5 690.25 414.875 657.5 385.875 c 0
 635.5 366.375 621.125 352 614.375 342.75 c 0
 607.625 333.5 602.625 322.875 599.375 310.875 c 0
 596.125 298.875 594.25 279.375 593.75 252.375 c 1
 528.875 252.375 l 1xf6
524.75 117 m 1xfa
 524.75 193.875 l 1
 601.625 193.875 l 1
 601.625 117 l 1
 524.75 117 l 1xfa
EndSplineSet
Validated: 1
EndChar

StartChar: w
Encoding: 119 119 86
Width: 1139
VWidth: 2048
Flags: W
HStem: 117 76.875<524.75 601.625> 509.25 21G<385.625 458> 620.625 55.5<499.148 630.21>
VStem: 385.625 69.375<516.668 573.784> 524.75 76.875<117 193.875> 528.5 65.25<252.375 343.97> 671 69.375<466.207 580.855>
LayerCount: 2
Fore
SplineSet
528.875 252.375 m 1xf6
 528.625 261.375 528.5 268.125 528.5 272.625 c 0
 528.5 299.125 532.25 322 539.75 341.25 c 0
 545.25 355.75 554.125 370.375 566.375 385.125 c 0
 575.375 395.875 591.5625 411.5625 614.9375 432.1875 c 0
 638.3125 452.8125 653.5 469.25 660.5 481.5 c 0
 667.5 493.75 671 507.125 671 521.625 c 0
 671 547.875 660.75 570.9375 640.25 590.8125 c 0
 619.75 610.6875 594.625 620.625 564.875 620.625 c 0
 536.125 620.625 512.125 611.625 492.875 593.625 c 0
 473.625 575.625 461 547.5 455 509.25 c 1
 385.625 517.5 l 1
 391.875 568.75 410.4375 608 441.3125 635.25 c 0
 472.1875 662.5 513 676.125 563.75 676.125 c 0
 617.5 676.125 660.375 661.5 692.375 632.25 c 0
 724.375 603 740.375 567.625 740.375 526.125 c 0
 740.375 502.125 734.75 480 723.5 459.75 c 0
 712.25 439.5 690.25 414.875 657.5 385.875 c 0
 635.5 366.375 621.125 352 614.375 342.75 c 0
 607.625 333.5 602.625 322.875 599.375 310.875 c 0
 596.125 298.875 594.25 279.375 593.75 252.375 c 1
 528.875 252.375 l 1xf6
524.75 117 m 1xfa
 524.75 193.875 l 1
 601.625 193.875 l 1
 601.625 117 l 1
 524.75 117 l 1xfa
EndSplineSet
Validated: 1
EndChar

StartChar: y
Encoding: 121 121 87
Width: 1139
VWidth: 2048
Flags: W
HStem: 117 76.875<524.75 601.625> 509.25 21G<385.625 458> 620.625 55.5<499.148 630.21>
VStem: 385.625 69.375<516.668 573.784> 524.75 76.875<117 193.875> 528.5 65.25<252.375 343.97> 671 69.375<466.207 580.855>
LayerCount: 2
Fore
SplineSet
528.875 252.375 m 1xf6
 528.625 261.375 528.5 268.125 528.5 272.625 c 0
 528.5 299.125 532.25 322 539.75 341.25 c 0
 545.25 355.75 554.125 370.375 566.375 385.125 c 0
 575.375 395.875 591.5625 411.5625 614.9375 432.1875 c 0
 638.3125 452.8125 653.5 469.25 660.5 481.5 c 0
 667.5 493.75 671 507.125 671 521.625 c 0
 671 547.875 660.75 570.9375 640.25 590.8125 c 0
 619.75 610.6875 594.625 620.625 564.875 620.625 c 0
 536.125 620.625 512.125 611.625 492.875 593.625 c 0
 473.625 575.625 461 547.5 455 509.25 c 1
 385.625 517.5 l 1
 391.875 568.75 410.4375 608 441.3125 635.25 c 0
 472.1875 662.5 513 676.125 563.75 676.125 c 0
 617.5 676.125 660.375 661.5 692.375 632.25 c 0
 724.375 603 740.375 567.625 740.375 526.125 c 0
 740.375 502.125 734.75 480 723.5 459.75 c 0
 712.25 439.5 690.25 414.875 657.5 385.875 c 0
 635.5 366.375 621.125 352 614.375 342.75 c 0
 607.625 333.5 602.625 322.875 599.375 310.875 c 0
 596.125 298.875 594.25 279.375 593.75 252.375 c 1
 528.875 252.375 l 1xf6
524.75 117 m 1xfa
 524.75 193.875 l 1
 601.625 193.875 l 1
 601.625 117 l 1
 524.75 117 l 1xfa
EndSplineSet
Validated: 1
EndChar

StartChar: braceleft
Encoding: 123 123 88
Width: 1139
VWidth: 2048
Flags: W
HStem: 117 76.875<524.75 601.625> 509.25 21G<385.625 458> 620.625 55.5<499.148 630.21>
VStem: 385.625 69.375<516.668 573.784> 524.75 76.875<117 193.875> 528.5 65.25<252.375 343.97> 671 69.375<466.207 580.855>
LayerCount: 2
Fore
SplineSet
528.875 252.375 m 1xf6
 528.625 261.375 528.5 268.125 528.5 272.625 c 0
 528.5 299.125 532.25 322 539.75 341.25 c 0
 545.25 355.75 554.125 370.375 566.375 385.125 c 0
 575.375 395.875 591.5625 411.5625 614.9375 432.1875 c 0
 638.3125 452.8125 653.5 469.25 660.5 481.5 c 0
 667.5 493.75 671 507.125 671 521.625 c 0
 671 547.875 660.75 570.9375 640.25 590.8125 c 0
 619.75 610.6875 594.625 620.625 564.875 620.625 c 0
 536.125 620.625 512.125 611.625 492.875 593.625 c 0
 473.625 575.625 461 547.5 455 509.25 c 1
 385.625 517.5 l 1
 391.875 568.75 410.4375 608 441.3125 635.25 c 0
 472.1875 662.5 513 676.125 563.75 676.125 c 0
 617.5 676.125 660.375 661.5 692.375 632.25 c 0
 724.375 603 740.375 567.625 740.375 526.125 c 0
 740.375 502.125 734.75 480 723.5 459.75 c 0
 712.25 439.5 690.25 414.875 657.5 385.875 c 0
 635.5 366.375 621.125 352 614.375 342.75 c 0
 607.625 333.5 602.625 322.875 599.375 310.875 c 0
 596.125 298.875 594.25 279.375 593.75 252.375 c 1
 528.875 252.375 l 1xf6
524.75 117 m 1xfa
 524.75 193.875 l 1
 601.625 193.875 l 1
 601.625 117 l 1
 524.75 117 l 1xfa
EndSplineSet
Validated: 1
EndChar

StartChar: bar
Encoding: 124 124 89
Width: 1139
VWidth: 2048
Flags: W
HStem: 117 76.875<524.75 601.625> 509.25 21G<385.625 458> 620.625 55.5<499.148 630.21>
VStem: 385.625 69.375<516.668 573.784> 524.75 76.875<117 193.875> 528.5 65.25<252.375 343.97> 671 69.375<466.207 580.855>
LayerCount: 2
Fore
SplineSet
528.875 252.375 m 1xf6
 528.625 261.375 528.5 268.125 528.5 272.625 c 0
 528.5 299.125 532.25 322 539.75 341.25 c 0
 545.25 355.75 554.125 370.375 566.375 385.125 c 0
 575.375 395.875 591.5625 411.5625 614.9375 432.1875 c 0
 638.3125 452.8125 653.5 469.25 660.5 481.5 c 0
 667.5 493.75 671 507.125 671 521.625 c 0
 671 547.875 660.75 570.9375 640.25 590.8125 c 0
 619.75 610.6875 594.625 620.625 564.875 620.625 c 0
 536.125 620.625 512.125 611.625 492.875 593.625 c 0
 473.625 575.625 461 547.5 455 509.25 c 1
 385.625 517.5 l 1
 391.875 568.75 410.4375 608 441.3125 635.25 c 0
 472.1875 662.5 513 676.125 563.75 676.125 c 0
 617.5 676.125 660.375 661.5 692.375 632.25 c 0
 724.375 603 740.375 567.625 740.375 526.125 c 0
 740.375 502.125 734.75 480 723.5 459.75 c 0
 712.25 439.5 690.25 414.875 657.5 385.875 c 0
 635.5 366.375 621.125 352 614.375 342.75 c 0
 607.625 333.5 602.625 322.875 599.375 310.875 c 0
 596.125 298.875 594.25 279.375 593.75 252.375 c 1
 528.875 252.375 l 1xf6
524.75 117 m 1xfa
 524.75 193.875 l 1
 601.625 193.875 l 1
 601.625 117 l 1
 524.75 117 l 1xfa
EndSplineSet
Validated: 1
EndChar

StartChar: braceright
Encoding: 125 125 90
Width: 1139
VWidth: 2048
Flags: W
HStem: 117 76.875<524.75 601.625> 509.25 21G<385.625 458> 620.625 55.5<499.148 630.21>
VStem: 385.625 69.375<516.668 573.784> 524.75 76.875<117 193.875> 528.5 65.25<252.375 343.97> 671 69.375<466.207 580.855>
LayerCount: 2
Fore
SplineSet
528.875 252.375 m 1xf6
 528.625 261.375 528.5 268.125 528.5 272.625 c 0
 528.5 299.125 532.25 322 539.75 341.25 c 0
 545.25 355.75 554.125 370.375 566.375 385.125 c 0
 575.375 395.875 591.5625 411.5625 614.9375 432.1875 c 0
 638.3125 452.8125 653.5 469.25 660.5 481.5 c 0
 667.5 493.75 671 507.125 671 521.625 c 0
 671 547.875 660.75 570.9375 640.25 590.8125 c 0
 619.75 610.6875 594.625 620.625 564.875 620.625 c 0
 536.125 620.625 512.125 611.625 492.875 593.625 c 0
 473.625 575.625 461 547.5 455 509.25 c 1
 385.625 517.5 l 1
 391.875 568.75 410.4375 608 441.3125 635.25 c 0
 472.1875 662.5 513 676.125 563.75 676.125 c 0
 617.5 676.125 660.375 661.5 692.375 632.25 c 0
 724.375 603 740.375 567.625 740.375 526.125 c 0
 740.375 502.125 734.75 480 723.5 459.75 c 0
 712.25 439.5 690.25 414.875 657.5 385.875 c 0
 635.5 366.375 621.125 352 614.375 342.75 c 0
 607.625 333.5 602.625 322.875 599.375 310.875 c 0
 596.125 298.875 594.25 279.375 593.75 252.375 c 1
 528.875 252.375 l 1xf6
524.75 117 m 1xfa
 524.75 193.875 l 1
 601.625 193.875 l 1
 601.625 117 l 1
 524.75 117 l 1xfa
EndSplineSet
Validated: 1
EndChar

StartChar: asciitilde
Encoding: 126 126 91
Width: 1139
VWidth: 2048
Flags: W
HStem: 117 76.875<524.75 601.625> 509.25 21G<385.625 458> 620.625 55.5<499.148 630.21>
VStem: 385.625 69.375<516.668 573.784> 524.75 76.875<117 193.875> 528.5 65.25<252.375 343.97> 671 69.375<466.207 580.855>
LayerCount: 2
Fore
SplineSet
528.875 252.375 m 1xf6
 528.625 261.375 528.5 268.125 528.5 272.625 c 0
 528.5 299.125 532.25 322 539.75 341.25 c 0
 545.25 355.75 554.125 370.375 566.375 385.125 c 0
 575.375 395.875 591.5625 411.5625 614.9375 432.1875 c 0
 638.3125 452.8125 653.5 469.25 660.5 481.5 c 0
 667.5 493.75 671 507.125 671 521.625 c 0
 671 547.875 660.75 570.9375 640.25 590.8125 c 0
 619.75 610.6875 594.625 620.625 564.875 620.625 c 0
 536.125 620.625 512.125 611.625 492.875 593.625 c 0
 473.625 575.625 461 547.5 455 509.25 c 1
 385.625 517.5 l 1
 391.875 568.75 410.4375 608 441.3125 635.25 c 0
 472.1875 662.5 513 676.125 563.75 676.125 c 0
 617.5 676.125 660.375 661.5 692.375 632.25 c 0
 724.375 603 740.375 567.625 740.375 526.125 c 0
 740.375 502.125 734.75 480 723.5 459.75 c 0
 712.25 439.5 690.25 414.875 657.5 385.875 c 0
 635.5 366.375 621.125 352 614.375 342.75 c 0
 607.625 333.5 602.625 322.875 599.375 310.875 c 0
 596.125 298.875 594.25 279.375 593.75 252.375 c 1
 528.875 252.375 l 1xf6
524.75 117 m 1xfa
 524.75 193.875 l 1
 601.625 193.875 l 1
 601.625 117 l 1
 524.75 117 l 1xfa
EndSplineSet
Validated: 1
EndChar

StartChar: comma
Encoding: 44 44 92
Width: 1139
VWidth: 2048
Flags: W
HStem: 117 76.875<524.75 601.625> 509.25 21G<385.625 458> 620.625 55.5<499.148 630.21>
VStem: 385.625 69.375<516.668 573.784> 524.75 76.875<117 193.875> 528.5 65.25<252.375 343.97> 671 69.375<466.207 580.855>
LayerCount: 2
Fore
SplineSet
528.875 252.375 m 1xf6
 528.625 261.375 528.5 268.125 528.5 272.625 c 0
 528.5 299.125 532.25 322 539.75 341.25 c 0
 545.25 355.75 554.125 370.375 566.375 385.125 c 0
 575.375 395.875 591.5625 411.5625 614.9375 432.1875 c 0
 638.3125 452.8125 653.5 469.25 660.5 481.5 c 0
 667.5 493.75 671 507.125 671 521.625 c 0
 671 547.875 660.75 570.9375 640.25 590.8125 c 0
 619.75 610.6875 594.625 620.625 564.875 620.625 c 0
 536.125 620.625 512.125 611.625 492.875 593.625 c 0
 473.625 575.625 461 547.5 455 509.25 c 1
 385.625 517.5 l 1
 391.875 568.75 410.4375 608 441.3125 635.25 c 0
 472.1875 662.5 513 676.125 563.75 676.125 c 0
 617.5 676.125 660.375 661.5 692.375 632.25 c 0
 724.375 603 740.375 567.625 740.375 526.125 c 0
 740.375 502.125 734.75 480 723.5 459.75 c 0
 712.25 439.5 690.25 414.875 657.5 385.875 c 0
 635.5 366.375 621.125 352 614.375 342.75 c 0
 607.625 333.5 602.625 322.875 599.375 310.875 c 0
 596.125 298.875 594.25 279.375 593.75 252.375 c 1
 528.875 252.375 l 1xf6
524.75 117 m 1xfa
 524.75 193.875 l 1
 601.625 193.875 l 1
 601.625 117 l 1
 524.75 117 l 1xfa
EndSplineSet
Validated: 1
EndChar

StartChar: uni00A0
Encoding: 160 160 93
Width: 1139
VWidth: 2048
Flags: W
HStem: 117 76.875<524.75 601.625> 509.25 21G<385.625 458> 620.625 55.5<499.148 630.21>
VStem: 385.625 69.375<516.668 573.784> 524.75 76.875<117 193.875> 528.5 65.25<252.375 343.97> 671 69.375<466.207 580.855>
LayerCount: 2
Fore
SplineSet
528.875 252.375 m 1xf6
 528.625 261.375 528.5 268.125 528.5 272.625 c 0
 528.5 299.125 532.25 322 539.75 341.25 c 0
 545.25 355.75 554.125 370.375 566.375 385.125 c 0
 575.375 395.875 591.5625 411.5625 614.9375 432.1875 c 0
 638.3125 452.8125 653.5 469.25 660.5 481.5 c 0
 667.5 493.75 671 507.125 671 521.625 c 0
 671 547.875 660.75 570.9375 640.25 590.8125 c 0
 619.75 610.6875 594.625 620.625 564.875 620.625 c 0
 536.125 620.625 512.125 611.625 492.875 593.625 c 0
 473.625 575.625 461 547.5 455 509.25 c 1
 385.625 517.5 l 1
 391.875 568.75 410.4375 608 441.3125 635.25 c 0
 472.1875 662.5 513 676.125 563.75 676.125 c 0
 617.5 676.125 660.375 661.5 692.375 632.25 c 0
 724.375 603 740.375 567.625 740.375 526.125 c 0
 740.375 502.125 734.75 480 723.5 459.75 c 0
 712.25 439.5 690.25 414.875 657.5 385.875 c 0
 635.5 366.375 621.125 352 614.375 342.75 c 0
 607.625 333.5 602.625 322.875 599.375 310.875 c 0
 596.125 298.875 594.25 279.375 593.75 252.375 c 1
 528.875 252.375 l 1xf6
524.75 117 m 1xfa
 524.75 193.875 l 1
 601.625 193.875 l 1
 601.625 117 l 1
 524.75 117 l 1xfa
EndSplineSet
Validated: 1
EndChar

StartChar: exclamdown
Encoding: 161 161 94
Width: 1139
VWidth: 2048
Flags: W
HStem: 117 76.875<524.75 601.625> 509.25 21G<385.625 458> 620.625 55.5<499.148 630.21>
VStem: 385.625 69.375<516.668 573.784> 524.75 76.875<117 193.875> 528.5 65.25<252.375 343.97> 671 69.375<466.207 580.855>
LayerCount: 2
Fore
SplineSet
528.875 252.375 m 1xf6
 528.625 261.375 528.5 268.125 528.5 272.625 c 0
 528.5 299.125 532.25 322 539.75 341.25 c 0
 545.25 355.75 554.125 370.375 566.375 385.125 c 0
 575.375 395.875 591.5625 411.5625 614.9375 432.1875 c 0
 638.3125 452.8125 653.5 469.25 660.5 481.5 c 0
 667.5 493.75 671 507.125 671 521.625 c 0
 671 547.875 660.75 570.9375 640.25 590.8125 c 0
 619.75 610.6875 594.625 620.625 564.875 620.625 c 0
 536.125 620.625 512.125 611.625 492.875 593.625 c 0
 473.625 575.625 461 547.5 455 509.25 c 1
 385.625 517.5 l 1
 391.875 568.75 410.4375 608 441.3125 635.25 c 0
 472.1875 662.5 513 676.125 563.75 676.125 c 0
 617.5 676.125 660.375 661.5 692.375 632.25 c 0
 724.375 603 740.375 567.625 740.375 526.125 c 0
 740.375 502.125 734.75 480 723.5 459.75 c 0
 712.25 439.5 690.25 414.875 657.5 385.875 c 0
 635.5 366.375 621.125 352 614.375 342.75 c 0
 607.625 333.5 602.625 322.875 599.375 310.875 c 0
 596.125 298.875 594.25 279.375 593.75 252.375 c 1
 528.875 252.375 l 1xf6
524.75 117 m 1xfa
 524.75 193.875 l 1
 601.625 193.875 l 1
 601.625 117 l 1
 524.75 117 l 1xfa
EndSplineSet
Validated: 1
EndChar

StartChar: cent
Encoding: 162 162 95
Width: 1139
VWidth: 2048
Flags: W
HStem: 117 76.875<524.75 601.625> 509.25 21G<385.625 458> 620.625 55.5<499.148 630.21>
VStem: 385.625 69.375<516.668 573.784> 524.75 76.875<117 193.875> 528.5 65.25<252.375 343.97> 671 69.375<466.207 580.855>
LayerCount: 2
Fore
SplineSet
528.875 252.375 m 1xf6
 528.625 261.375 528.5 268.125 528.5 272.625 c 0
 528.5 299.125 532.25 322 539.75 341.25 c 0
 545.25 355.75 554.125 370.375 566.375 385.125 c 0
 575.375 395.875 591.5625 411.5625 614.9375 432.1875 c 0
 638.3125 452.8125 653.5 469.25 660.5 481.5 c 0
 667.5 493.75 671 507.125 671 521.625 c 0
 671 547.875 660.75 570.9375 640.25 590.8125 c 0
 619.75 610.6875 594.625 620.625 564.875 620.625 c 0
 536.125 620.625 512.125 611.625 492.875 593.625 c 0
 473.625 575.625 461 547.5 455 509.25 c 1
 385.625 517.5 l 1
 391.875 568.75 410.4375 608 441.3125 635.25 c 0
 472.1875 662.5 513 676.125 563.75 676.125 c 0
 617.5 676.125 660.375 661.5 692.375 632.25 c 0
 724.375 603 740.375 567.625 740.375 526.125 c 0
 740.375 502.125 734.75 480 723.5 459.75 c 0
 712.25 439.5 690.25 414.875 657.5 385.875 c 0
 635.5 366.375 621.125 352 614.375 342.75 c 0
 607.625 333.5 602.625 322.875 599.375 310.875 c 0
 596.125 298.875 594.25 279.375 593.75 252.375 c 1
 528.875 252.375 l 1xf6
524.75 117 m 1xfa
 524.75 193.875 l 1
 601.625 193.875 l 1
 601.625 117 l 1
 524.75 117 l 1xfa
EndSplineSet
Validated: 1
EndChar

StartChar: sterling
Encoding: 163 163 96
Width: 1139
VWidth: 2048
Flags: W
HStem: 117 76.875<524.75 601.625> 509.25 21G<385.625 458> 620.625 55.5<499.148 630.21>
VStem: 385.625 69.375<516.668 573.784> 524.75 76.875<117 193.875> 528.5 65.25<252.375 343.97> 671 69.375<466.207 580.855>
LayerCount: 2
Fore
SplineSet
528.875 252.375 m 1xf6
 528.625 261.375 528.5 268.125 528.5 272.625 c 0
 528.5 299.125 532.25 322 539.75 341.25 c 0
 545.25 355.75 554.125 370.375 566.375 385.125 c 0
 575.375 395.875 591.5625 411.5625 614.9375 432.1875 c 0
 638.3125 452.8125 653.5 469.25 660.5 481.5 c 0
 667.5 493.75 671 507.125 671 521.625 c 0
 671 547.875 660.75 570.9375 640.25 590.8125 c 0
 619.75 610.6875 594.625 620.625 564.875 620.625 c 0
 536.125 620.625 512.125 611.625 492.875 593.625 c 0
 473.625 575.625 461 547.5 455 509.25 c 1
 385.625 517.5 l 1
 391.875 568.75 410.4375 608 441.3125 635.25 c 0
 472.1875 662.5 513 676.125 563.75 676.125 c 0
 617.5 676.125 660.375 661.5 692.375 632.25 c 0
 724.375 603 740.375 567.625 740.375 526.125 c 0
 740.375 502.125 734.75 480 723.5 459.75 c 0
 712.25 439.5 690.25 414.875 657.5 385.875 c 0
 635.5 366.375 621.125 352 614.375 342.75 c 0
 607.625 333.5 602.625 322.875 599.375 310.875 c 0
 596.125 298.875 594.25 279.375 593.75 252.375 c 1
 528.875 252.375 l 1xf6
524.75 117 m 1xfa
 524.75 193.875 l 1
 601.625 193.875 l 1
 601.625 117 l 1
 524.75 117 l 1xfa
EndSplineSet
Validated: 1
EndChar

StartChar: currency
Encoding: 164 164 97
Width: 1139
VWidth: 2048
Flags: W
HStem: 117 76.875<524.75 601.625> 509.25 21G<385.625 458> 620.625 55.5<499.148 630.21>
VStem: 385.625 69.375<516.668 573.784> 524.75 76.875<117 193.875> 528.5 65.25<252.375 343.97> 671 69.375<466.207 580.855>
LayerCount: 2
Fore
SplineSet
528.875 252.375 m 1xf6
 528.625 261.375 528.5 268.125 528.5 272.625 c 0
 528.5 299.125 532.25 322 539.75 341.25 c 0
 545.25 355.75 554.125 370.375 566.375 385.125 c 0
 575.375 395.875 591.5625 411.5625 614.9375 432.1875 c 0
 638.3125 452.8125 653.5 469.25 660.5 481.5 c 0
 667.5 493.75 671 507.125 671 521.625 c 0
 671 547.875 660.75 570.9375 640.25 590.8125 c 0
 619.75 610.6875 594.625 620.625 564.875 620.625 c 0
 536.125 620.625 512.125 611.625 492.875 593.625 c 0
 473.625 575.625 461 547.5 455 509.25 c 1
 385.625 517.5 l 1
 391.875 568.75 410.4375 608 441.3125 635.25 c 0
 472.1875 662.5 513 676.125 563.75 676.125 c 0
 617.5 676.125 660.375 661.5 692.375 632.25 c 0
 724.375 603 740.375 567.625 740.375 526.125 c 0
 740.375 502.125 734.75 480 723.5 459.75 c 0
 712.25 439.5 690.25 414.875 657.5 385.875 c 0
 635.5 366.375 621.125 352 614.375 342.75 c 0
 607.625 333.5 602.625 322.875 599.375 310.875 c 0
 596.125 298.875 594.25 279.375 593.75 252.375 c 1
 528.875 252.375 l 1xf6
524.75 117 m 1xfa
 524.75 193.875 l 1
 601.625 193.875 l 1
 601.625 117 l 1
 524.75 117 l 1xfa
EndSplineSet
Validated: 1
EndChar

StartChar: yen
Encoding: 165 165 98
Width: 1139
VWidth: 2048
Flags: W
HStem: 117 76.875<524.75 601.625> 509.25 21G<385.625 458> 620.625 55.5<499.148 630.21>
VStem: 385.625 69.375<516.668 573.784> 524.75 76.875<117 193.875> 528.5 65.25<252.375 343.97> 671 69.375<466.207 580.855>
LayerCount: 2
Fore
SplineSet
528.875 252.375 m 1xf6
 528.625 261.375 528.5 268.125 528.5 272.625 c 0
 528.5 299.125 532.25 322 539.75 341.25 c 0
 545.25 355.75 554.125 370.375 566.375 385.125 c 0
 575.375 395.875 591.5625 411.5625 614.9375 432.1875 c 0
 638.3125 452.8125 653.5 469.25 660.5 481.5 c 0
 667.5 493.75 671 507.125 671 521.625 c 0
 671 547.875 660.75 570.9375 640.25 590.8125 c 0
 619.75 610.6875 594.625 620.625 564.875 620.625 c 0
 536.125 620.625 512.125 611.625 492.875 593.625 c 0
 473.625 575.625 461 547.5 455 509.25 c 1
 385.625 517.5 l 1
 391.875 568.75 410.4375 608 441.3125 635.25 c 0
 472.1875 662.5 513 676.125 563.75 676.125 c 0
 617.5 676.125 660.375 661.5 692.375 632.25 c 0
 724.375 603 740.375 567.625 740.375 526.125 c 0
 740.375 502.125 734.75 480 723.5 459.75 c 0
 712.25 439.5 690.25 414.875 657.5 385.875 c 0
 635.5 366.375 621.125 352 614.375 342.75 c 0
 607.625 333.5 602.625 322.875 599.375 310.875 c 0
 596.125 298.875 594.25 279.375 593.75 252.375 c 1
 528.875 252.375 l 1xf6
524.75 117 m 1xfa
 524.75 193.875 l 1
 601.625 193.875 l 1
 601.625 117 l 1
 524.75 117 l 1xfa
EndSplineSet
Validated: 1
EndChar

StartChar: brokenbar
Encoding: 166 166 99
Width: 1139
VWidth: 2048
Flags: W
HStem: 117 76.875<524.75 601.625> 509.25 21G<385.625 458> 620.625 55.5<499.148 630.21>
VStem: 385.625 69.375<516.668 573.784> 524.75 76.875<117 193.875> 528.5 65.25<252.375 343.97> 671 69.375<466.207 580.855>
LayerCount: 2
Fore
SplineSet
528.875 252.375 m 1xf6
 528.625 261.375 528.5 268.125 528.5 272.625 c 0
 528.5 299.125 532.25 322 539.75 341.25 c 0
 545.25 355.75 554.125 370.375 566.375 385.125 c 0
 575.375 395.875 591.5625 411.5625 614.9375 432.1875 c 0
 638.3125 452.8125 653.5 469.25 660.5 481.5 c 0
 667.5 493.75 671 507.125 671 521.625 c 0
 671 547.875 660.75 570.9375 640.25 590.8125 c 0
 619.75 610.6875 594.625 620.625 564.875 620.625 c 0
 536.125 620.625 512.125 611.625 492.875 593.625 c 0
 473.625 575.625 461 547.5 455 509.25 c 1
 385.625 517.5 l 1
 391.875 568.75 410.4375 608 441.3125 635.25 c 0
 472.1875 662.5 513 676.125 563.75 676.125 c 0
 617.5 676.125 660.375 661.5 692.375 632.25 c 0
 724.375 603 740.375 567.625 740.375 526.125 c 0
 740.375 502.125 734.75 480 723.5 459.75 c 0
 712.25 439.5 690.25 414.875 657.5 385.875 c 0
 635.5 366.375 621.125 352 614.375 342.75 c 0
 607.625 333.5 602.625 322.875 599.375 310.875 c 0
 596.125 298.875 594.25 279.375 593.75 252.375 c 1
 528.875 252.375 l 1xf6
524.75 117 m 1xfa
 524.75 193.875 l 1
 601.625 193.875 l 1
 601.625 117 l 1
 524.75 117 l 1xfa
EndSplineSet
Validated: 1
EndChar

StartChar: section
Encoding: 167 167 100
Width: 1139
VWidth: 2048
Flags: W
HStem: 117 76.875<524.75 601.625> 509.25 21G<385.625 458> 620.625 55.5<499.148 630.21>
VStem: 385.625 69.375<516.668 573.784> 524.75 76.875<117 193.875> 528.5 65.25<252.375 343.97> 671 69.375<466.207 580.855>
LayerCount: 2
Fore
SplineSet
528.875 252.375 m 1xf6
 528.625 261.375 528.5 268.125 528.5 272.625 c 0
 528.5 299.125 532.25 322 539.75 341.25 c 0
 545.25 355.75 554.125 370.375 566.375 385.125 c 0
 575.375 395.875 591.5625 411.5625 614.9375 432.1875 c 0
 638.3125 452.8125 653.5 469.25 660.5 481.5 c 0
 667.5 493.75 671 507.125 671 521.625 c 0
 671 547.875 660.75 570.9375 640.25 590.8125 c 0
 619.75 610.6875 594.625 620.625 564.875 620.625 c 0
 536.125 620.625 512.125 611.625 492.875 593.625 c 0
 473.625 575.625 461 547.5 455 509.25 c 1
 385.625 517.5 l 1
 391.875 568.75 410.4375 608 441.3125 635.25 c 0
 472.1875 662.5 513 676.125 563.75 676.125 c 0
 617.5 676.125 660.375 661.5 692.375 632.25 c 0
 724.375 603 740.375 567.625 740.375 526.125 c 0
 740.375 502.125 734.75 480 723.5 459.75 c 0
 712.25 439.5 690.25 414.875 657.5 385.875 c 0
 635.5 366.375 621.125 352 614.375 342.75 c 0
 607.625 333.5 602.625 322.875 599.375 310.875 c 0
 596.125 298.875 594.25 279.375 593.75 252.375 c 1
 528.875 252.375 l 1xf6
524.75 117 m 1xfa
 524.75 193.875 l 1
 601.625 193.875 l 1
 601.625 117 l 1
 524.75 117 l 1xfa
EndSplineSet
Validated: 1
EndChar

StartChar: dieresis
Encoding: 168 168 101
Width: 1139
VWidth: 2048
Flags: W
HStem: 117 76.875<524.75 601.625> 509.25 21G<385.625 458> 620.625 55.5<499.148 630.21>
VStem: 385.625 69.375<516.668 573.784> 524.75 76.875<117 193.875> 528.5 65.25<252.375 343.97> 671 69.375<466.207 580.855>
LayerCount: 2
Fore
SplineSet
528.875 252.375 m 1xf6
 528.625 261.375 528.5 268.125 528.5 272.625 c 0
 528.5 299.125 532.25 322 539.75 341.25 c 0
 545.25 355.75 554.125 370.375 566.375 385.125 c 0
 575.375 395.875 591.5625 411.5625 614.9375 432.1875 c 0
 638.3125 452.8125 653.5 469.25 660.5 481.5 c 0
 667.5 493.75 671 507.125 671 521.625 c 0
 671 547.875 660.75 570.9375 640.25 590.8125 c 0
 619.75 610.6875 594.625 620.625 564.875 620.625 c 0
 536.125 620.625 512.125 611.625 492.875 593.625 c 0
 473.625 575.625 461 547.5 455 509.25 c 1
 385.625 517.5 l 1
 391.875 568.75 410.4375 608 441.3125 635.25 c 0
 472.1875 662.5 513 676.125 563.75 676.125 c 0
 617.5 676.125 660.375 661.5 692.375 632.25 c 0
 724.375 603 740.375 567.625 740.375 526.125 c 0
 740.375 502.125 734.75 480 723.5 459.75 c 0
 712.25 439.5 690.25 414.875 657.5 385.875 c 0
 635.5 366.375 621.125 352 614.375 342.75 c 0
 607.625 333.5 602.625 322.875 599.375 310.875 c 0
 596.125 298.875 594.25 279.375 593.75 252.375 c 1
 528.875 252.375 l 1xf6
524.75 117 m 1xfa
 524.75 193.875 l 1
 601.625 193.875 l 1
 601.625 117 l 1
 524.75 117 l 1xfa
EndSplineSet
Validated: 1
EndChar

StartChar: copyright
Encoding: 169 169 102
Width: 1139
VWidth: 2048
Flags: W
HStem: 117 76.875<524.75 601.625> 509.25 21G<385.625 458> 620.625 55.5<499.148 630.21>
VStem: 385.625 69.375<516.668 573.784> 524.75 76.875<117 193.875> 528.5 65.25<252.375 343.97> 671 69.375<466.207 580.855>
LayerCount: 2
Fore
SplineSet
528.875 252.375 m 1xf6
 528.625 261.375 528.5 268.125 528.5 272.625 c 0
 528.5 299.125 532.25 322 539.75 341.25 c 0
 545.25 355.75 554.125 370.375 566.375 385.125 c 0
 575.375 395.875 591.5625 411.5625 614.9375 432.1875 c 0
 638.3125 452.8125 653.5 469.25 660.5 481.5 c 0
 667.5 493.75 671 507.125 671 521.625 c 0
 671 547.875 660.75 570.9375 640.25 590.8125 c 0
 619.75 610.6875 594.625 620.625 564.875 620.625 c 0
 536.125 620.625 512.125 611.625 492.875 593.625 c 0
 473.625 575.625 461 547.5 455 509.25 c 1
 385.625 517.5 l 1
 391.875 568.75 410.4375 608 441.3125 635.25 c 0
 472.1875 662.5 513 676.125 563.75 676.125 c 0
 617.5 676.125 660.375 661.5 692.375 632.25 c 0
 724.375 603 740.375 567.625 740.375 526.125 c 0
 740.375 502.125 734.75 480 723.5 459.75 c 0
 712.25 439.5 690.25 414.875 657.5 385.875 c 0
 635.5 366.375 621.125 352 614.375 342.75 c 0
 607.625 333.5 602.625 322.875 599.375 310.875 c 0
 596.125 298.875 594.25 279.375 593.75 252.375 c 1
 528.875 252.375 l 1xf6
524.75 117 m 1xfa
 524.75 193.875 l 1
 601.625 193.875 l 1
 601.625 117 l 1
 524.75 117 l 1xfa
EndSplineSet
Validated: 1
EndChar

StartChar: ordfeminine
Encoding: 170 170 103
Width: 1139
VWidth: 2048
Flags: W
HStem: 117 76.875<524.75 601.625> 509.25 21G<385.625 458> 620.625 55.5<499.148 630.21>
VStem: 385.625 69.375<516.668 573.784> 524.75 76.875<117 193.875> 528.5 65.25<252.375 343.97> 671 69.375<466.207 580.855>
LayerCount: 2
Fore
SplineSet
528.875 252.375 m 1xf6
 528.625 261.375 528.5 268.125 528.5 272.625 c 0
 528.5 299.125 532.25 322 539.75 341.25 c 0
 545.25 355.75 554.125 370.375 566.375 385.125 c 0
 575.375 395.875 591.5625 411.5625 614.9375 432.1875 c 0
 638.3125 452.8125 653.5 469.25 660.5 481.5 c 0
 667.5 493.75 671 507.125 671 521.625 c 0
 671 547.875 660.75 570.9375 640.25 590.8125 c 0
 619.75 610.6875 594.625 620.625 564.875 620.625 c 0
 536.125 620.625 512.125 611.625 492.875 593.625 c 0
 473.625 575.625 461 547.5 455 509.25 c 1
 385.625 517.5 l 1
 391.875 568.75 410.4375 608 441.3125 635.25 c 0
 472.1875 662.5 513 676.125 563.75 676.125 c 0
 617.5 676.125 660.375 661.5 692.375 632.25 c 0
 724.375 603 740.375 567.625 740.375 526.125 c 0
 740.375 502.125 734.75 480 723.5 459.75 c 0
 712.25 439.5 690.25 414.875 657.5 385.875 c 0
 635.5 366.375 621.125 352 614.375 342.75 c 0
 607.625 333.5 602.625 322.875 599.375 310.875 c 0
 596.125 298.875 594.25 279.375 593.75 252.375 c 1
 528.875 252.375 l 1xf6
524.75 117 m 1xfa
 524.75 193.875 l 1
 601.625 193.875 l 1
 601.625 117 l 1
 524.75 117 l 1xfa
EndSplineSet
Validated: 1
EndChar

StartChar: guillemotleft
Encoding: 171 171 104
Width: 1139
VWidth: 2048
Flags: W
HStem: 117 76.875<524.75 601.625> 509.25 21G<385.625 458> 620.625 55.5<499.148 630.21>
VStem: 385.625 69.375<516.668 573.784> 524.75 76.875<117 193.875> 528.5 65.25<252.375 343.97> 671 69.375<466.207 580.855>
LayerCount: 2
Fore
SplineSet
528.875 252.375 m 1xf6
 528.625 261.375 528.5 268.125 528.5 272.625 c 0
 528.5 299.125 532.25 322 539.75 341.25 c 0
 545.25 355.75 554.125 370.375 566.375 385.125 c 0
 575.375 395.875 591.5625 411.5625 614.9375 432.1875 c 0
 638.3125 452.8125 653.5 469.25 660.5 481.5 c 0
 667.5 493.75 671 507.125 671 521.625 c 0
 671 547.875 660.75 570.9375 640.25 590.8125 c 0
 619.75 610.6875 594.625 620.625 564.875 620.625 c 0
 536.125 620.625 512.125 611.625 492.875 593.625 c 0
 473.625 575.625 461 547.5 455 509.25 c 1
 385.625 517.5 l 1
 391.875 568.75 410.4375 608 441.3125 635.25 c 0
 472.1875 662.5 513 676.125 563.75 676.125 c 0
 617.5 676.125 660.375 661.5 692.375 632.25 c 0
 724.375 603 740.375 567.625 740.375 526.125 c 0
 740.375 502.125 734.75 480 723.5 459.75 c 0
 712.25 439.5 690.25 414.875 657.5 385.875 c 0
 635.5 366.375 621.125 352 614.375 342.75 c 0
 607.625 333.5 602.625 322.875 599.375 310.875 c 0
 596.125 298.875 594.25 279.375 593.75 252.375 c 1
 528.875 252.375 l 1xf6
524.75 117 m 1xfa
 524.75 193.875 l 1
 601.625 193.875 l 1
 601.625 117 l 1
 524.75 117 l 1xfa
EndSplineSet
Validated: 1
EndChar

StartChar: logicalnot
Encoding: 172 172 105
Width: 1139
VWidth: 2048
Flags: W
HStem: 117 76.875<524.75 601.625> 509.25 21G<385.625 458> 620.625 55.5<499.148 630.21>
VStem: 385.625 69.375<516.668 573.784> 524.75 76.875<117 193.875> 528.5 65.25<252.375 343.97> 671 69.375<466.207 580.855>
LayerCount: 2
Fore
SplineSet
528.875 252.375 m 1xf6
 528.625 261.375 528.5 268.125 528.5 272.625 c 0
 528.5 299.125 532.25 322 539.75 341.25 c 0
 545.25 355.75 554.125 370.375 566.375 385.125 c 0
 575.375 395.875 591.5625 411.5625 614.9375 432.1875 c 0
 638.3125 452.8125 653.5 469.25 660.5 481.5 c 0
 667.5 493.75 671 507.125 671 521.625 c 0
 671 547.875 660.75 570.9375 640.25 590.8125 c 0
 619.75 610.6875 594.625 620.625 564.875 620.625 c 0
 536.125 620.625 512.125 611.625 492.875 593.625 c 0
 473.625 575.625 461 547.5 455 509.25 c 1
 385.625 517.5 l 1
 391.875 568.75 410.4375 608 441.3125 635.25 c 0
 472.1875 662.5 513 676.125 563.75 676.125 c 0
 617.5 676.125 660.375 661.5 692.375 632.25 c 0
 724.375 603 740.375 567.625 740.375 526.125 c 0
 740.375 502.125 734.75 480 723.5 459.75 c 0
 712.25 439.5 690.25 414.875 657.5 385.875 c 0
 635.5 366.375 621.125 352 614.375 342.75 c 0
 607.625 333.5 602.625 322.875 599.375 310.875 c 0
 596.125 298.875 594.25 279.375 593.75 252.375 c 1
 528.875 252.375 l 1xf6
524.75 117 m 1xfa
 524.75 193.875 l 1
 601.625 193.875 l 1
 601.625 117 l 1
 524.75 117 l 1xfa
EndSplineSet
Validated: 1
EndChar

StartChar: uni00AD
Encoding: 173 173 106
Width: 1139
VWidth: 2048
Flags: W
HStem: 117 76.875<524.75 601.625> 509.25 21G<385.625 458> 620.625 55.5<499.148 630.21>
VStem: 385.625 69.375<516.668 573.784> 524.75 76.875<117 193.875> 528.5 65.25<252.375 343.97> 671 69.375<466.207 580.855>
LayerCount: 2
Fore
SplineSet
528.875 252.375 m 1xf6
 528.625 261.375 528.5 268.125 528.5 272.625 c 0
 528.5 299.125 532.25 322 539.75 341.25 c 0
 545.25 355.75 554.125 370.375 566.375 385.125 c 0
 575.375 395.875 591.5625 411.5625 614.9375 432.1875 c 0
 638.3125 452.8125 653.5 469.25 660.5 481.5 c 0
 667.5 493.75 671 507.125 671 521.625 c 0
 671 547.875 660.75 570.9375 640.25 590.8125 c 0
 619.75 610.6875 594.625 620.625 564.875 620.625 c 0
 536.125 620.625 512.125 611.625 492.875 593.625 c 0
 473.625 575.625 461 547.5 455 509.25 c 1
 385.625 517.5 l 1
 391.875 568.75 410.4375 608 441.3125 635.25 c 0
 472.1875 662.5 513 676.125 563.75 676.125 c 0
 617.5 676.125 660.375 661.5 692.375 632.25 c 0
 724.375 603 740.375 567.625 740.375 526.125 c 0
 740.375 502.125 734.75 480 723.5 459.75 c 0
 712.25 439.5 690.25 414.875 657.5 385.875 c 0
 635.5 366.375 621.125 352 614.375 342.75 c 0
 607.625 333.5 602.625 322.875 599.375 310.875 c 0
 596.125 298.875 594.25 279.375 593.75 252.375 c 1
 528.875 252.375 l 1xf6
524.75 117 m 1xfa
 524.75 193.875 l 1
 601.625 193.875 l 1
 601.625 117 l 1
 524.75 117 l 1xfa
EndSplineSet
Validated: 1
EndChar

StartChar: registered
Encoding: 174 174 107
Width: 1139
VWidth: 2048
Flags: W
HStem: 117 76.875<524.75 601.625> 509.25 21G<385.625 458> 620.625 55.5<499.148 630.21>
VStem: 385.625 69.375<516.668 573.784> 524.75 76.875<117 193.875> 528.5 65.25<252.375 343.97> 671 69.375<466.207 580.855>
LayerCount: 2
Fore
SplineSet
528.875 252.375 m 1xf6
 528.625 261.375 528.5 268.125 528.5 272.625 c 0
 528.5 299.125 532.25 322 539.75 341.25 c 0
 545.25 355.75 554.125 370.375 566.375 385.125 c 0
 575.375 395.875 591.5625 411.5625 614.9375 432.1875 c 0
 638.3125 452.8125 653.5 469.25 660.5 481.5 c 0
 667.5 493.75 671 507.125 671 521.625 c 0
 671 547.875 660.75 570.9375 640.25 590.8125 c 0
 619.75 610.6875 594.625 620.625 564.875 620.625 c 0
 536.125 620.625 512.125 611.625 492.875 593.625 c 0
 473.625 575.625 461 547.5 455 509.25 c 1
 385.625 517.5 l 1
 391.875 568.75 410.4375 608 441.3125 635.25 c 0
 472.1875 662.5 513 676.125 563.75 676.125 c 0
 617.5 676.125 660.375 661.5 692.375 632.25 c 0
 724.375 603 740.375 567.625 740.375 526.125 c 0
 740.375 502.125 734.75 480 723.5 459.75 c 0
 712.25 439.5 690.25 414.875 657.5 385.875 c 0
 635.5 366.375 621.125 352 614.375 342.75 c 0
 607.625 333.5 602.625 322.875 599.375 310.875 c 0
 596.125 298.875 594.25 279.375 593.75 252.375 c 1
 528.875 252.375 l 1xf6
524.75 117 m 1xfa
 524.75 193.875 l 1
 601.625 193.875 l 1
 601.625 117 l 1
 524.75 117 l 1xfa
EndSplineSet
Validated: 1
EndChar

StartChar: macron
Encoding: 175 175 108
Width: 1139
VWidth: 2048
Flags: W
HStem: 117 76.875<524.75 601.625> 509.25 21G<385.625 458> 620.625 55.5<499.148 630.21>
VStem: 385.625 69.375<516.668 573.784> 524.75 76.875<117 193.875> 528.5 65.25<252.375 343.97> 671 69.375<466.207 580.855>
LayerCount: 2
Fore
SplineSet
528.875 252.375 m 1xf6
 528.625 261.375 528.5 268.125 528.5 272.625 c 0
 528.5 299.125 532.25 322 539.75 341.25 c 0
 545.25 355.75 554.125 370.375 566.375 385.125 c 0
 575.375 395.875 591.5625 411.5625 614.9375 432.1875 c 0
 638.3125 452.8125 653.5 469.25 660.5 481.5 c 0
 667.5 493.75 671 507.125 671 521.625 c 0
 671 547.875 660.75 570.9375 640.25 590.8125 c 0
 619.75 610.6875 594.625 620.625 564.875 620.625 c 0
 536.125 620.625 512.125 611.625 492.875 593.625 c 0
 473.625 575.625 461 547.5 455 509.25 c 1
 385.625 517.5 l 1
 391.875 568.75 410.4375 608 441.3125 635.25 c 0
 472.1875 662.5 513 676.125 563.75 676.125 c 0
 617.5 676.125 660.375 661.5 692.375 632.25 c 0
 724.375 603 740.375 567.625 740.375 526.125 c 0
 740.375 502.125 734.75 480 723.5 459.75 c 0
 712.25 439.5 690.25 414.875 657.5 385.875 c 0
 635.5 366.375 621.125 352 614.375 342.75 c 0
 607.625 333.5 602.625 322.875 599.375 310.875 c 0
 596.125 298.875 594.25 279.375 593.75 252.375 c 1
 528.875 252.375 l 1xf6
524.75 117 m 1xfa
 524.75 193.875 l 1
 601.625 193.875 l 1
 601.625 117 l 1
 524.75 117 l 1xfa
EndSplineSet
Validated: 1
EndChar

StartChar: degree
Encoding: 176 176 109
Width: 1139
VWidth: 2048
Flags: W
HStem: 117 76.875<524.75 601.625> 509.25 21G<385.625 458> 620.625 55.5<499.148 630.21>
VStem: 385.625 69.375<516.668 573.784> 524.75 76.875<117 193.875> 528.5 65.25<252.375 343.97> 671 69.375<466.207 580.855>
LayerCount: 2
Fore
SplineSet
528.875 252.375 m 1xf6
 528.625 261.375 528.5 268.125 528.5 272.625 c 0
 528.5 299.125 532.25 322 539.75 341.25 c 0
 545.25 355.75 554.125 370.375 566.375 385.125 c 0
 575.375 395.875 591.5625 411.5625 614.9375 432.1875 c 0
 638.3125 452.8125 653.5 469.25 660.5 481.5 c 0
 667.5 493.75 671 507.125 671 521.625 c 0
 671 547.875 660.75 570.9375 640.25 590.8125 c 0
 619.75 610.6875 594.625 620.625 564.875 620.625 c 0
 536.125 620.625 512.125 611.625 492.875 593.625 c 0
 473.625 575.625 461 547.5 455 509.25 c 1
 385.625 517.5 l 1
 391.875 568.75 410.4375 608 441.3125 635.25 c 0
 472.1875 662.5 513 676.125 563.75 676.125 c 0
 617.5 676.125 660.375 661.5 692.375 632.25 c 0
 724.375 603 740.375 567.625 740.375 526.125 c 0
 740.375 502.125 734.75 480 723.5 459.75 c 0
 712.25 439.5 690.25 414.875 657.5 385.875 c 0
 635.5 366.375 621.125 352 614.375 342.75 c 0
 607.625 333.5 602.625 322.875 599.375 310.875 c 0
 596.125 298.875 594.25 279.375 593.75 252.375 c 1
 528.875 252.375 l 1xf6
524.75 117 m 1xfa
 524.75 193.875 l 1
 601.625 193.875 l 1
 601.625 117 l 1
 524.75 117 l 1xfa
EndSplineSet
Validated: 1
EndChar

StartChar: plusminus
Encoding: 177 177 110
Width: 1139
VWidth: 2048
Flags: W
HStem: 117 76.875<524.75 601.625> 509.25 21G<385.625 458> 620.625 55.5<499.148 630.21>
VStem: 385.625 69.375<516.668 573.784> 524.75 76.875<117 193.875> 528.5 65.25<252.375 343.97> 671 69.375<466.207 580.855>
LayerCount: 2
Fore
SplineSet
528.875 252.375 m 1xf6
 528.625 261.375 528.5 268.125 528.5 272.625 c 0
 528.5 299.125 532.25 322 539.75 341.25 c 0
 545.25 355.75 554.125 370.375 566.375 385.125 c 0
 575.375 395.875 591.5625 411.5625 614.9375 432.1875 c 0
 638.3125 452.8125 653.5 469.25 660.5 481.5 c 0
 667.5 493.75 671 507.125 671 521.625 c 0
 671 547.875 660.75 570.9375 640.25 590.8125 c 0
 619.75 610.6875 594.625 620.625 564.875 620.625 c 0
 536.125 620.625 512.125 611.625 492.875 593.625 c 0
 473.625 575.625 461 547.5 455 509.25 c 1
 385.625 517.5 l 1
 391.875 568.75 410.4375 608 441.3125 635.25 c 0
 472.1875 662.5 513 676.125 563.75 676.125 c 0
 617.5 676.125 660.375 661.5 692.375 632.25 c 0
 724.375 603 740.375 567.625 740.375 526.125 c 0
 740.375 502.125 734.75 480 723.5 459.75 c 0
 712.25 439.5 690.25 414.875 657.5 385.875 c 0
 635.5 366.375 621.125 352 614.375 342.75 c 0
 607.625 333.5 602.625 322.875 599.375 310.875 c 0
 596.125 298.875 594.25 279.375 593.75 252.375 c 1
 528.875 252.375 l 1xf6
524.75 117 m 1xfa
 524.75 193.875 l 1
 601.625 193.875 l 1
 601.625 117 l 1
 524.75 117 l 1xfa
EndSplineSet
Validated: 1
EndChar

StartChar: uni00B2
Encoding: 178 178 111
Width: 1139
VWidth: 2048
Flags: W
HStem: 117 76.875<524.75 601.625> 509.25 21G<385.625 458> 620.625 55.5<499.148 630.21>
VStem: 385.625 69.375<516.668 573.784> 524.75 76.875<117 193.875> 528.5 65.25<252.375 343.97> 671 69.375<466.207 580.855>
LayerCount: 2
Fore
SplineSet
528.875 252.375 m 1xf6
 528.625 261.375 528.5 268.125 528.5 272.625 c 0
 528.5 299.125 532.25 322 539.75 341.25 c 0
 545.25 355.75 554.125 370.375 566.375 385.125 c 0
 575.375 395.875 591.5625 411.5625 614.9375 432.1875 c 0
 638.3125 452.8125 653.5 469.25 660.5 481.5 c 0
 667.5 493.75 671 507.125 671 521.625 c 0
 671 547.875 660.75 570.9375 640.25 590.8125 c 0
 619.75 610.6875 594.625 620.625 564.875 620.625 c 0
 536.125 620.625 512.125 611.625 492.875 593.625 c 0
 473.625 575.625 461 547.5 455 509.25 c 1
 385.625 517.5 l 1
 391.875 568.75 410.4375 608 441.3125 635.25 c 0
 472.1875 662.5 513 676.125 563.75 676.125 c 0
 617.5 676.125 660.375 661.5 692.375 632.25 c 0
 724.375 603 740.375 567.625 740.375 526.125 c 0
 740.375 502.125 734.75 480 723.5 459.75 c 0
 712.25 439.5 690.25 414.875 657.5 385.875 c 0
 635.5 366.375 621.125 352 614.375 342.75 c 0
 607.625 333.5 602.625 322.875 599.375 310.875 c 0
 596.125 298.875 594.25 279.375 593.75 252.375 c 1
 528.875 252.375 l 1xf6
524.75 117 m 1xfa
 524.75 193.875 l 1
 601.625 193.875 l 1
 601.625 117 l 1
 524.75 117 l 1xfa
EndSplineSet
Validated: 1
EndChar

StartChar: uni00B3
Encoding: 179 179 112
Width: 1139
VWidth: 2048
Flags: W
HStem: 117 76.875<524.75 601.625> 509.25 21G<385.625 458> 620.625 55.5<499.148 630.21>
VStem: 385.625 69.375<516.668 573.784> 524.75 76.875<117 193.875> 528.5 65.25<252.375 343.97> 671 69.375<466.207 580.855>
LayerCount: 2
Fore
SplineSet
528.875 252.375 m 1xf6
 528.625 261.375 528.5 268.125 528.5 272.625 c 0
 528.5 299.125 532.25 322 539.75 341.25 c 0
 545.25 355.75 554.125 370.375 566.375 385.125 c 0
 575.375 395.875 591.5625 411.5625 614.9375 432.1875 c 0
 638.3125 452.8125 653.5 469.25 660.5 481.5 c 0
 667.5 493.75 671 507.125 671 521.625 c 0
 671 547.875 660.75 570.9375 640.25 590.8125 c 0
 619.75 610.6875 594.625 620.625 564.875 620.625 c 0
 536.125 620.625 512.125 611.625 492.875 593.625 c 0
 473.625 575.625 461 547.5 455 509.25 c 1
 385.625 517.5 l 1
 391.875 568.75 410.4375 608 441.3125 635.25 c 0
 472.1875 662.5 513 676.125 563.75 676.125 c 0
 617.5 676.125 660.375 661.5 692.375 632.25 c 0
 724.375 603 740.375 567.625 740.375 526.125 c 0
 740.375 502.125 734.75 480 723.5 459.75 c 0
 712.25 439.5 690.25 414.875 657.5 385.875 c 0
 635.5 366.375 621.125 352 614.375 342.75 c 0
 607.625 333.5 602.625 322.875 599.375 310.875 c 0
 596.125 298.875 594.25 279.375 593.75 252.375 c 1
 528.875 252.375 l 1xf6
524.75 117 m 1xfa
 524.75 193.875 l 1
 601.625 193.875 l 1
 601.625 117 l 1
 524.75 117 l 1xfa
EndSplineSet
Validated: 1
EndChar

StartChar: acute
Encoding: 180 180 113
Width: 1139
VWidth: 2048
Flags: W
HStem: 117 76.875<524.75 601.625> 509.25 21G<385.625 458> 620.625 55.5<499.148 630.21>
VStem: 385.625 69.375<516.668 573.784> 524.75 76.875<117 193.875> 528.5 65.25<252.375 343.97> 671 69.375<466.207 580.855>
LayerCount: 2
Fore
SplineSet
528.875 252.375 m 1xf6
 528.625 261.375 528.5 268.125 528.5 272.625 c 0
 528.5 299.125 532.25 322 539.75 341.25 c 0
 545.25 355.75 554.125 370.375 566.375 385.125 c 0
 575.375 395.875 591.5625 411.5625 614.9375 432.1875 c 0
 638.3125 452.8125 653.5 469.25 660.5 481.5 c 0
 667.5 493.75 671 507.125 671 521.625 c 0
 671 547.875 660.75 570.9375 640.25 590.8125 c 0
 619.75 610.6875 594.625 620.625 564.875 620.625 c 0
 536.125 620.625 512.125 611.625 492.875 593.625 c 0
 473.625 575.625 461 547.5 455 509.25 c 1
 385.625 517.5 l 1
 391.875 568.75 410.4375 608 441.3125 635.25 c 0
 472.1875 662.5 513 676.125 563.75 676.125 c 0
 617.5 676.125 660.375 661.5 692.375 632.25 c 0
 724.375 603 740.375 567.625 740.375 526.125 c 0
 740.375 502.125 734.75 480 723.5 459.75 c 0
 712.25 439.5 690.25 414.875 657.5 385.875 c 0
 635.5 366.375 621.125 352 614.375 342.75 c 0
 607.625 333.5 602.625 322.875 599.375 310.875 c 0
 596.125 298.875 594.25 279.375 593.75 252.375 c 1
 528.875 252.375 l 1xf6
524.75 117 m 1xfa
 524.75 193.875 l 1
 601.625 193.875 l 1
 601.625 117 l 1
 524.75 117 l 1xfa
EndSplineSet
Validated: 1
EndChar

StartChar: mu
Encoding: 181 181 114
Width: 1139
VWidth: 2048
Flags: W
HStem: 117 76.875<524.75 601.625> 509.25 21G<385.625 458> 620.625 55.5<499.148 630.21>
VStem: 385.625 69.375<516.668 573.784> 524.75 76.875<117 193.875> 528.5 65.25<252.375 343.97> 671 69.375<466.207 580.855>
LayerCount: 2
Fore
SplineSet
528.875 252.375 m 1xf6
 528.625 261.375 528.5 268.125 528.5 272.625 c 0
 528.5 299.125 532.25 322 539.75 341.25 c 0
 545.25 355.75 554.125 370.375 566.375 385.125 c 0
 575.375 395.875 591.5625 411.5625 614.9375 432.1875 c 0
 638.3125 452.8125 653.5 469.25 660.5 481.5 c 0
 667.5 493.75 671 507.125 671 521.625 c 0
 671 547.875 660.75 570.9375 640.25 590.8125 c 0
 619.75 610.6875 594.625 620.625 564.875 620.625 c 0
 536.125 620.625 512.125 611.625 492.875 593.625 c 0
 473.625 575.625 461 547.5 455 509.25 c 1
 385.625 517.5 l 1
 391.875 568.75 410.4375 608 441.3125 635.25 c 0
 472.1875 662.5 513 676.125 563.75 676.125 c 0
 617.5 676.125 660.375 661.5 692.375 632.25 c 0
 724.375 603 740.375 567.625 740.375 526.125 c 0
 740.375 502.125 734.75 480 723.5 459.75 c 0
 712.25 439.5 690.25 414.875 657.5 385.875 c 0
 635.5 366.375 621.125 352 614.375 342.75 c 0
 607.625 333.5 602.625 322.875 599.375 310.875 c 0
 596.125 298.875 594.25 279.375 593.75 252.375 c 1
 528.875 252.375 l 1xf6
524.75 117 m 1xfa
 524.75 193.875 l 1
 601.625 193.875 l 1
 601.625 117 l 1
 524.75 117 l 1xfa
EndSplineSet
Validated: 1
EndChar

StartChar: paragraph
Encoding: 182 182 115
Width: 1139
VWidth: 2048
Flags: W
HStem: 117 76.875<524.75 601.625> 509.25 21G<385.625 458> 620.625 55.5<499.148 630.21>
VStem: 385.625 69.375<516.668 573.784> 524.75 76.875<117 193.875> 528.5 65.25<252.375 343.97> 671 69.375<466.207 580.855>
LayerCount: 2
Fore
SplineSet
528.875 252.375 m 1xf6
 528.625 261.375 528.5 268.125 528.5 272.625 c 0
 528.5 299.125 532.25 322 539.75 341.25 c 0
 545.25 355.75 554.125 370.375 566.375 385.125 c 0
 575.375 395.875 591.5625 411.5625 614.9375 432.1875 c 0
 638.3125 452.8125 653.5 469.25 660.5 481.5 c 0
 667.5 493.75 671 507.125 671 521.625 c 0
 671 547.875 660.75 570.9375 640.25 590.8125 c 0
 619.75 610.6875 594.625 620.625 564.875 620.625 c 0
 536.125 620.625 512.125 611.625 492.875 593.625 c 0
 473.625 575.625 461 547.5 455 509.25 c 1
 385.625 517.5 l 1
 391.875 568.75 410.4375 608 441.3125 635.25 c 0
 472.1875 662.5 513 676.125 563.75 676.125 c 0
 617.5 676.125 660.375 661.5 692.375 632.25 c 0
 724.375 603 740.375 567.625 740.375 526.125 c 0
 740.375 502.125 734.75 480 723.5 459.75 c 0
 712.25 439.5 690.25 414.875 657.5 385.875 c 0
 635.5 366.375 621.125 352 614.375 342.75 c 0
 607.625 333.5 602.625 322.875 599.375 310.875 c 0
 596.125 298.875 594.25 279.375 593.75 252.375 c 1
 528.875 252.375 l 1xf6
524.75 117 m 1xfa
 524.75 193.875 l 1
 601.625 193.875 l 1
 601.625 117 l 1
 524.75 117 l 1xfa
EndSplineSet
Validated: 1
EndChar

StartChar: periodcentered
Encoding: 183 183 116
Width: 1139
VWidth: 2048
Flags: W
HStem: 117 76.875<524.75 601.625> 509.25 21G<385.625 458> 620.625 55.5<499.148 630.21>
VStem: 385.625 69.375<516.668 573.784> 524.75 76.875<117 193.875> 528.5 65.25<252.375 343.97> 671 69.375<466.207 580.855>
LayerCount: 2
Fore
SplineSet
528.875 252.375 m 1xf6
 528.625 261.375 528.5 268.125 528.5 272.625 c 0
 528.5 299.125 532.25 322 539.75 341.25 c 0
 545.25 355.75 554.125 370.375 566.375 385.125 c 0
 575.375 395.875 591.5625 411.5625 614.9375 432.1875 c 0
 638.3125 452.8125 653.5 469.25 660.5 481.5 c 0
 667.5 493.75 671 507.125 671 521.625 c 0
 671 547.875 660.75 570.9375 640.25 590.8125 c 0
 619.75 610.6875 594.625 620.625 564.875 620.625 c 0
 536.125 620.625 512.125 611.625 492.875 593.625 c 0
 473.625 575.625 461 547.5 455 509.25 c 1
 385.625 517.5 l 1
 391.875 568.75 410.4375 608 441.3125 635.25 c 0
 472.1875 662.5 513 676.125 563.75 676.125 c 0
 617.5 676.125 660.375 661.5 692.375 632.25 c 0
 724.375 603 740.375 567.625 740.375 526.125 c 0
 740.375 502.125 734.75 480 723.5 459.75 c 0
 712.25 439.5 690.25 414.875 657.5 385.875 c 0
 635.5 366.375 621.125 352 614.375 342.75 c 0
 607.625 333.5 602.625 322.875 599.375 310.875 c 0
 596.125 298.875 594.25 279.375 593.75 252.375 c 1
 528.875 252.375 l 1xf6
524.75 117 m 1xfa
 524.75 193.875 l 1
 601.625 193.875 l 1
 601.625 117 l 1
 524.75 117 l 1xfa
EndSplineSet
Validated: 1
EndChar

StartChar: cedilla
Encoding: 184 184 117
Width: 1139
VWidth: 2048
Flags: W
HStem: 117 76.875<524.75 601.625> 509.25 21G<385.625 458> 620.625 55.5<499.148 630.21>
VStem: 385.625 69.375<516.668 573.784> 524.75 76.875<117 193.875> 528.5 65.25<252.375 343.97> 671 69.375<466.207 580.855>
LayerCount: 2
Fore
SplineSet
528.875 252.375 m 1xf6
 528.625 261.375 528.5 268.125 528.5 272.625 c 0
 528.5 299.125 532.25 322 539.75 341.25 c 0
 545.25 355.75 554.125 370.375 566.375 385.125 c 0
 575.375 395.875 591.5625 411.5625 614.9375 432.1875 c 0
 638.3125 452.8125 653.5 469.25 660.5 481.5 c 0
 667.5 493.75 671 507.125 671 521.625 c 0
 671 547.875 660.75 570.9375 640.25 590.8125 c 0
 619.75 610.6875 594.625 620.625 564.875 620.625 c 0
 536.125 620.625 512.125 611.625 492.875 593.625 c 0
 473.625 575.625 461 547.5 455 509.25 c 1
 385.625 517.5 l 1
 391.875 568.75 410.4375 608 441.3125 635.25 c 0
 472.1875 662.5 513 676.125 563.75 676.125 c 0
 617.5 676.125 660.375 661.5 692.375 632.25 c 0
 724.375 603 740.375 567.625 740.375 526.125 c 0
 740.375 502.125 734.75 480 723.5 459.75 c 0
 712.25 439.5 690.25 414.875 657.5 385.875 c 0
 635.5 366.375 621.125 352 614.375 342.75 c 0
 607.625 333.5 602.625 322.875 599.375 310.875 c 0
 596.125 298.875 594.25 279.375 593.75 252.375 c 1
 528.875 252.375 l 1xf6
524.75 117 m 1xfa
 524.75 193.875 l 1
 601.625 193.875 l 1
 601.625 117 l 1
 524.75 117 l 1xfa
EndSplineSet
Validated: 1
EndChar

StartChar: uni00B9
Encoding: 185 185 118
Width: 1139
VWidth: 2048
Flags: W
HStem: 117 76.875<524.75 601.625> 509.25 21G<385.625 458> 620.625 55.5<499.148 630.21>
VStem: 385.625 69.375<516.668 573.784> 524.75 76.875<117 193.875> 528.5 65.25<252.375 343.97> 671 69.375<466.207 580.855>
LayerCount: 2
Fore
SplineSet
528.875 252.375 m 1xf6
 528.625 261.375 528.5 268.125 528.5 272.625 c 0
 528.5 299.125 532.25 322 539.75 341.25 c 0
 545.25 355.75 554.125 370.375 566.375 385.125 c 0
 575.375 395.875 591.5625 411.5625 614.9375 432.1875 c 0
 638.3125 452.8125 653.5 469.25 660.5 481.5 c 0
 667.5 493.75 671 507.125 671 521.625 c 0
 671 547.875 660.75 570.9375 640.25 590.8125 c 0
 619.75 610.6875 594.625 620.625 564.875 620.625 c 0
 536.125 620.625 512.125 611.625 492.875 593.625 c 0
 473.625 575.625 461 547.5 455 509.25 c 1
 385.625 517.5 l 1
 391.875 568.75 410.4375 608 441.3125 635.25 c 0
 472.1875 662.5 513 676.125 563.75 676.125 c 0
 617.5 676.125 660.375 661.5 692.375 632.25 c 0
 724.375 603 740.375 567.625 740.375 526.125 c 0
 740.375 502.125 734.75 480 723.5 459.75 c 0
 712.25 439.5 690.25 414.875 657.5 385.875 c 0
 635.5 366.375 621.125 352 614.375 342.75 c 0
 607.625 333.5 602.625 322.875 599.375 310.875 c 0
 596.125 298.875 594.25 279.375 593.75 252.375 c 1
 528.875 252.375 l 1xf6
524.75 117 m 1xfa
 524.75 193.875 l 1
 601.625 193.875 l 1
 601.625 117 l 1
 524.75 117 l 1xfa
EndSplineSet
Validated: 1
EndChar

StartChar: ordmasculine
Encoding: 186 186 119
Width: 1139
VWidth: 2048
Flags: W
HStem: 117 76.875<524.75 601.625> 509.25 21G<385.625 458> 620.625 55.5<499.148 630.21>
VStem: 385.625 69.375<516.668 573.784> 524.75 76.875<117 193.875> 528.5 65.25<252.375 343.97> 671 69.375<466.207 580.855>
LayerCount: 2
Fore
SplineSet
528.875 252.375 m 1xf6
 528.625 261.375 528.5 268.125 528.5 272.625 c 0
 528.5 299.125 532.25 322 539.75 341.25 c 0
 545.25 355.75 554.125 370.375 566.375 385.125 c 0
 575.375 395.875 591.5625 411.5625 614.9375 432.1875 c 0
 638.3125 452.8125 653.5 469.25 660.5 481.5 c 0
 667.5 493.75 671 507.125 671 521.625 c 0
 671 547.875 660.75 570.9375 640.25 590.8125 c 0
 619.75 610.6875 594.625 620.625 564.875 620.625 c 0
 536.125 620.625 512.125 611.625 492.875 593.625 c 0
 473.625 575.625 461 547.5 455 509.25 c 1
 385.625 517.5 l 1
 391.875 568.75 410.4375 608 441.3125 635.25 c 0
 472.1875 662.5 513 676.125 563.75 676.125 c 0
 617.5 676.125 660.375 661.5 692.375 632.25 c 0
 724.375 603 740.375 567.625 740.375 526.125 c 0
 740.375 502.125 734.75 480 723.5 459.75 c 0
 712.25 439.5 690.25 414.875 657.5 385.875 c 0
 635.5 366.375 621.125 352 614.375 342.75 c 0
 607.625 333.5 602.625 322.875 599.375 310.875 c 0
 596.125 298.875 594.25 279.375 593.75 252.375 c 1
 528.875 252.375 l 1xf6
524.75 117 m 1xfa
 524.75 193.875 l 1
 601.625 193.875 l 1
 601.625 117 l 1
 524.75 117 l 1xfa
EndSplineSet
Validated: 1
EndChar

StartChar: guillemotright
Encoding: 187 187 120
Width: 1139
VWidth: 2048
Flags: W
HStem: 117 76.875<524.75 601.625> 509.25 21G<385.625 458> 620.625 55.5<499.148 630.21>
VStem: 385.625 69.375<516.668 573.784> 524.75 76.875<117 193.875> 528.5 65.25<252.375 343.97> 671 69.375<466.207 580.855>
LayerCount: 2
Fore
SplineSet
528.875 252.375 m 1xf6
 528.625 261.375 528.5 268.125 528.5 272.625 c 0
 528.5 299.125 532.25 322 539.75 341.25 c 0
 545.25 355.75 554.125 370.375 566.375 385.125 c 0
 575.375 395.875 591.5625 411.5625 614.9375 432.1875 c 0
 638.3125 452.8125 653.5 469.25 660.5 481.5 c 0
 667.5 493.75 671 507.125 671 521.625 c 0
 671 547.875 660.75 570.9375 640.25 590.8125 c 0
 619.75 610.6875 594.625 620.625 564.875 620.625 c 0
 536.125 620.625 512.125 611.625 492.875 593.625 c 0
 473.625 575.625 461 547.5 455 509.25 c 1
 385.625 517.5 l 1
 391.875 568.75 410.4375 608 441.3125 635.25 c 0
 472.1875 662.5 513 676.125 563.75 676.125 c 0
 617.5 676.125 660.375 661.5 692.375 632.25 c 0
 724.375 603 740.375 567.625 740.375 526.125 c 0
 740.375 502.125 734.75 480 723.5 459.75 c 0
 712.25 439.5 690.25 414.875 657.5 385.875 c 0
 635.5 366.375 621.125 352 614.375 342.75 c 0
 607.625 333.5 602.625 322.875 599.375 310.875 c 0
 596.125 298.875 594.25 279.375 593.75 252.375 c 1
 528.875 252.375 l 1xf6
524.75 117 m 1xfa
 524.75 193.875 l 1
 601.625 193.875 l 1
 601.625 117 l 1
 524.75 117 l 1xfa
EndSplineSet
Validated: 1
EndChar

StartChar: onequarter
Encoding: 188 188 121
Width: 1139
VWidth: 2048
Flags: W
HStem: 117 76.875<524.75 601.625> 509.25 21G<385.625 458> 620.625 55.5<499.148 630.21>
VStem: 385.625 69.375<516.668 573.784> 524.75 76.875<117 193.875> 528.5 65.25<252.375 343.97> 671 69.375<466.207 580.855>
LayerCount: 2
Fore
SplineSet
528.875 252.375 m 1xf6
 528.625 261.375 528.5 268.125 528.5 272.625 c 0
 528.5 299.125 532.25 322 539.75 341.25 c 0
 545.25 355.75 554.125 370.375 566.375 385.125 c 0
 575.375 395.875 591.5625 411.5625 614.9375 432.1875 c 0
 638.3125 452.8125 653.5 469.25 660.5 481.5 c 0
 667.5 493.75 671 507.125 671 521.625 c 0
 671 547.875 660.75 570.9375 640.25 590.8125 c 0
 619.75 610.6875 594.625 620.625 564.875 620.625 c 0
 536.125 620.625 512.125 611.625 492.875 593.625 c 0
 473.625 575.625 461 547.5 455 509.25 c 1
 385.625 517.5 l 1
 391.875 568.75 410.4375 608 441.3125 635.25 c 0
 472.1875 662.5 513 676.125 563.75 676.125 c 0
 617.5 676.125 660.375 661.5 692.375 632.25 c 0
 724.375 603 740.375 567.625 740.375 526.125 c 0
 740.375 502.125 734.75 480 723.5 459.75 c 0
 712.25 439.5 690.25 414.875 657.5 385.875 c 0
 635.5 366.375 621.125 352 614.375 342.75 c 0
 607.625 333.5 602.625 322.875 599.375 310.875 c 0
 596.125 298.875 594.25 279.375 593.75 252.375 c 1
 528.875 252.375 l 1xf6
524.75 117 m 1xfa
 524.75 193.875 l 1
 601.625 193.875 l 1
 601.625 117 l 1
 524.75 117 l 1xfa
EndSplineSet
Validated: 1
EndChar

StartChar: onehalf
Encoding: 189 189 122
Width: 1139
VWidth: 2048
Flags: W
HStem: 117 76.875<524.75 601.625> 509.25 21G<385.625 458> 620.625 55.5<499.148 630.21>
VStem: 385.625 69.375<516.668 573.784> 524.75 76.875<117 193.875> 528.5 65.25<252.375 343.97> 671 69.375<466.207 580.855>
LayerCount: 2
Fore
SplineSet
528.875 252.375 m 1xf6
 528.625 261.375 528.5 268.125 528.5 272.625 c 0
 528.5 299.125 532.25 322 539.75 341.25 c 0
 545.25 355.75 554.125 370.375 566.375 385.125 c 0
 575.375 395.875 591.5625 411.5625 614.9375 432.1875 c 0
 638.3125 452.8125 653.5 469.25 660.5 481.5 c 0
 667.5 493.75 671 507.125 671 521.625 c 0
 671 547.875 660.75 570.9375 640.25 590.8125 c 0
 619.75 610.6875 594.625 620.625 564.875 620.625 c 0
 536.125 620.625 512.125 611.625 492.875 593.625 c 0
 473.625 575.625 461 547.5 455 509.25 c 1
 385.625 517.5 l 1
 391.875 568.75 410.4375 608 441.3125 635.25 c 0
 472.1875 662.5 513 676.125 563.75 676.125 c 0
 617.5 676.125 660.375 661.5 692.375 632.25 c 0
 724.375 603 740.375 567.625 740.375 526.125 c 0
 740.375 502.125 734.75 480 723.5 459.75 c 0
 712.25 439.5 690.25 414.875 657.5 385.875 c 0
 635.5 366.375 621.125 352 614.375 342.75 c 0
 607.625 333.5 602.625 322.875 599.375 310.875 c 0
 596.125 298.875 594.25 279.375 593.75 252.375 c 1
 528.875 252.375 l 1xf6
524.75 117 m 1xfa
 524.75 193.875 l 1
 601.625 193.875 l 1
 601.625 117 l 1
 524.75 117 l 1xfa
EndSplineSet
Validated: 1
EndChar

StartChar: threequarters
Encoding: 190 190 123
Width: 1139
VWidth: 2048
Flags: W
HStem: 117 76.875<524.75 601.625> 509.25 21G<385.625 458> 620.625 55.5<499.148 630.21>
VStem: 385.625 69.375<516.668 573.784> 524.75 76.875<117 193.875> 528.5 65.25<252.375 343.97> 671 69.375<466.207 580.855>
LayerCount: 2
Fore
SplineSet
528.875 252.375 m 1xf6
 528.625 261.375 528.5 268.125 528.5 272.625 c 0
 528.5 299.125 532.25 322 539.75 341.25 c 0
 545.25 355.75 554.125 370.375 566.375 385.125 c 0
 575.375 395.875 591.5625 411.5625 614.9375 432.1875 c 0
 638.3125 452.8125 653.5 469.25 660.5 481.5 c 0
 667.5 493.75 671 507.125 671 521.625 c 0
 671 547.875 660.75 570.9375 640.25 590.8125 c 0
 619.75 610.6875 594.625 620.625 564.875 620.625 c 0
 536.125 620.625 512.125 611.625 492.875 593.625 c 0
 473.625 575.625 461 547.5 455 509.25 c 1
 385.625 517.5 l 1
 391.875 568.75 410.4375 608 441.3125 635.25 c 0
 472.1875 662.5 513 676.125 563.75 676.125 c 0
 617.5 676.125 660.375 661.5 692.375 632.25 c 0
 724.375 603 740.375 567.625 740.375 526.125 c 0
 740.375 502.125 734.75 480 723.5 459.75 c 0
 712.25 439.5 690.25 414.875 657.5 385.875 c 0
 635.5 366.375 621.125 352 614.375 342.75 c 0
 607.625 333.5 602.625 322.875 599.375 310.875 c 0
 596.125 298.875 594.25 279.375 593.75 252.375 c 1
 528.875 252.375 l 1xf6
524.75 117 m 1xfa
 524.75 193.875 l 1
 601.625 193.875 l 1
 601.625 117 l 1
 524.75 117 l 1xfa
EndSplineSet
Validated: 1
EndChar

StartChar: questiondown
Encoding: 191 191 124
Width: 1139
VWidth: 2048
Flags: W
HStem: 117 76.875<524.75 601.625> 509.25 21G<385.625 458> 620.625 55.5<499.148 630.21>
VStem: 385.625 69.375<516.668 573.784> 524.75 76.875<117 193.875> 528.5 65.25<252.375 343.97> 671 69.375<466.207 580.855>
LayerCount: 2
Fore
SplineSet
528.875 252.375 m 1xf6
 528.625 261.375 528.5 268.125 528.5 272.625 c 0
 528.5 299.125 532.25 322 539.75 341.25 c 0
 545.25 355.75 554.125 370.375 566.375 385.125 c 0
 575.375 395.875 591.5625 411.5625 614.9375 432.1875 c 0
 638.3125 452.8125 653.5 469.25 660.5 481.5 c 0
 667.5 493.75 671 507.125 671 521.625 c 0
 671 547.875 660.75 570.9375 640.25 590.8125 c 0
 619.75 610.6875 594.625 620.625 564.875 620.625 c 0
 536.125 620.625 512.125 611.625 492.875 593.625 c 0
 473.625 575.625 461 547.5 455 509.25 c 1
 385.625 517.5 l 1
 391.875 568.75 410.4375 608 441.3125 635.25 c 0
 472.1875 662.5 513 676.125 563.75 676.125 c 0
 617.5 676.125 660.375 661.5 692.375 632.25 c 0
 724.375 603 740.375 567.625 740.375 526.125 c 0
 740.375 502.125 734.75 480 723.5 459.75 c 0
 712.25 439.5 690.25 414.875 657.5 385.875 c 0
 635.5 366.375 621.125 352 614.375 342.75 c 0
 607.625 333.5 602.625 322.875 599.375 310.875 c 0
 596.125 298.875 594.25 279.375 593.75 252.375 c 1
 528.875 252.375 l 1xf6
524.75 117 m 1xfa
 524.75 193.875 l 1
 601.625 193.875 l 1
 601.625 117 l 1
 524.75 117 l 1xfa
EndSplineSet
Validated: 1
EndChar

StartChar: Agrave
Encoding: 192 192 125
Width: 1139
VWidth: 2048
Flags: W
HStem: 117 76.875<524.75 601.625> 509.25 21G<385.625 458> 620.625 55.5<499.148 630.21>
VStem: 385.625 69.375<516.668 573.784> 524.75 76.875<117 193.875> 528.5 65.25<252.375 343.97> 671 69.375<466.207 580.855>
LayerCount: 2
Fore
SplineSet
528.875 252.375 m 1xf6
 528.625 261.375 528.5 268.125 528.5 272.625 c 0
 528.5 299.125 532.25 322 539.75 341.25 c 0
 545.25 355.75 554.125 370.375 566.375 385.125 c 0
 575.375 395.875 591.5625 411.5625 614.9375 432.1875 c 0
 638.3125 452.8125 653.5 469.25 660.5 481.5 c 0
 667.5 493.75 671 507.125 671 521.625 c 0
 671 547.875 660.75 570.9375 640.25 590.8125 c 0
 619.75 610.6875 594.625 620.625 564.875 620.625 c 0
 536.125 620.625 512.125 611.625 492.875 593.625 c 0
 473.625 575.625 461 547.5 455 509.25 c 1
 385.625 517.5 l 1
 391.875 568.75 410.4375 608 441.3125 635.25 c 0
 472.1875 662.5 513 676.125 563.75 676.125 c 0
 617.5 676.125 660.375 661.5 692.375 632.25 c 0
 724.375 603 740.375 567.625 740.375 526.125 c 0
 740.375 502.125 734.75 480 723.5 459.75 c 0
 712.25 439.5 690.25 414.875 657.5 385.875 c 0
 635.5 366.375 621.125 352 614.375 342.75 c 0
 607.625 333.5 602.625 322.875 599.375 310.875 c 0
 596.125 298.875 594.25 279.375 593.75 252.375 c 1
 528.875 252.375 l 1xf6
524.75 117 m 1xfa
 524.75 193.875 l 1
 601.625 193.875 l 1
 601.625 117 l 1
 524.75 117 l 1xfa
EndSplineSet
Validated: 1
EndChar

StartChar: Aacute
Encoding: 193 193 126
Width: 1139
VWidth: 2048
Flags: W
HStem: 117 76.875<524.75 601.625> 509.25 21G<385.625 458> 620.625 55.5<499.148 630.21>
VStem: 385.625 69.375<516.668 573.784> 524.75 76.875<117 193.875> 528.5 65.25<252.375 343.97> 671 69.375<466.207 580.855>
LayerCount: 2
Fore
SplineSet
528.875 252.375 m 1xf6
 528.625 261.375 528.5 268.125 528.5 272.625 c 0
 528.5 299.125 532.25 322 539.75 341.25 c 0
 545.25 355.75 554.125 370.375 566.375 385.125 c 0
 575.375 395.875 591.5625 411.5625 614.9375 432.1875 c 0
 638.3125 452.8125 653.5 469.25 660.5 481.5 c 0
 667.5 493.75 671 507.125 671 521.625 c 0
 671 547.875 660.75 570.9375 640.25 590.8125 c 0
 619.75 610.6875 594.625 620.625 564.875 620.625 c 0
 536.125 620.625 512.125 611.625 492.875 593.625 c 0
 473.625 575.625 461 547.5 455 509.25 c 1
 385.625 517.5 l 1
 391.875 568.75 410.4375 608 441.3125 635.25 c 0
 472.1875 662.5 513 676.125 563.75 676.125 c 0
 617.5 676.125 660.375 661.5 692.375 632.25 c 0
 724.375 603 740.375 567.625 740.375 526.125 c 0
 740.375 502.125 734.75 480 723.5 459.75 c 0
 712.25 439.5 690.25 414.875 657.5 385.875 c 0
 635.5 366.375 621.125 352 614.375 342.75 c 0
 607.625 333.5 602.625 322.875 599.375 310.875 c 0
 596.125 298.875 594.25 279.375 593.75 252.375 c 1
 528.875 252.375 l 1xf6
524.75 117 m 1xfa
 524.75 193.875 l 1
 601.625 193.875 l 1
 601.625 117 l 1
 524.75 117 l 1xfa
EndSplineSet
Validated: 1
EndChar

StartChar: Acircumflex
Encoding: 194 194 127
Width: 1139
VWidth: 2048
Flags: W
HStem: 117 76.875<524.75 601.625> 509.25 21G<385.625 458> 620.625 55.5<499.148 630.21>
VStem: 385.625 69.375<516.668 573.784> 524.75 76.875<117 193.875> 528.5 65.25<252.375 343.97> 671 69.375<466.207 580.855>
LayerCount: 2
Fore
SplineSet
528.875 252.375 m 1xf6
 528.625 261.375 528.5 268.125 528.5 272.625 c 0
 528.5 299.125 532.25 322 539.75 341.25 c 0
 545.25 355.75 554.125 370.375 566.375 385.125 c 0
 575.375 395.875 591.5625 411.5625 614.9375 432.1875 c 0
 638.3125 452.8125 653.5 469.25 660.5 481.5 c 0
 667.5 493.75 671 507.125 671 521.625 c 0
 671 547.875 660.75 570.9375 640.25 590.8125 c 0
 619.75 610.6875 594.625 620.625 564.875 620.625 c 0
 536.125 620.625 512.125 611.625 492.875 593.625 c 0
 473.625 575.625 461 547.5 455 509.25 c 1
 385.625 517.5 l 1
 391.875 568.75 410.4375 608 441.3125 635.25 c 0
 472.1875 662.5 513 676.125 563.75 676.125 c 0
 617.5 676.125 660.375 661.5 692.375 632.25 c 0
 724.375 603 740.375 567.625 740.375 526.125 c 0
 740.375 502.125 734.75 480 723.5 459.75 c 0
 712.25 439.5 690.25 414.875 657.5 385.875 c 0
 635.5 366.375 621.125 352 614.375 342.75 c 0
 607.625 333.5 602.625 322.875 599.375 310.875 c 0
 596.125 298.875 594.25 279.375 593.75 252.375 c 1
 528.875 252.375 l 1xf6
524.75 117 m 1xfa
 524.75 193.875 l 1
 601.625 193.875 l 1
 601.625 117 l 1
 524.75 117 l 1xfa
EndSplineSet
Validated: 1
EndChar

StartChar: Atilde
Encoding: 195 195 128
Width: 1139
VWidth: 2048
Flags: W
HStem: 117 76.875<524.75 601.625> 509.25 21G<385.625 458> 620.625 55.5<499.148 630.21>
VStem: 385.625 69.375<516.668 573.784> 524.75 76.875<117 193.875> 528.5 65.25<252.375 343.97> 671 69.375<466.207 580.855>
LayerCount: 2
Fore
SplineSet
528.875 252.375 m 1xf6
 528.625 261.375 528.5 268.125 528.5 272.625 c 0
 528.5 299.125 532.25 322 539.75 341.25 c 0
 545.25 355.75 554.125 370.375 566.375 385.125 c 0
 575.375 395.875 591.5625 411.5625 614.9375 432.1875 c 0
 638.3125 452.8125 653.5 469.25 660.5 481.5 c 0
 667.5 493.75 671 507.125 671 521.625 c 0
 671 547.875 660.75 570.9375 640.25 590.8125 c 0
 619.75 610.6875 594.625 620.625 564.875 620.625 c 0
 536.125 620.625 512.125 611.625 492.875 593.625 c 0
 473.625 575.625 461 547.5 455 509.25 c 1
 385.625 517.5 l 1
 391.875 568.75 410.4375 608 441.3125 635.25 c 0
 472.1875 662.5 513 676.125 563.75 676.125 c 0
 617.5 676.125 660.375 661.5 692.375 632.25 c 0
 724.375 603 740.375 567.625 740.375 526.125 c 0
 740.375 502.125 734.75 480 723.5 459.75 c 0
 712.25 439.5 690.25 414.875 657.5 385.875 c 0
 635.5 366.375 621.125 352 614.375 342.75 c 0
 607.625 333.5 602.625 322.875 599.375 310.875 c 0
 596.125 298.875 594.25 279.375 593.75 252.375 c 1
 528.875 252.375 l 1xf6
524.75 117 m 1xfa
 524.75 193.875 l 1
 601.625 193.875 l 1
 601.625 117 l 1
 524.75 117 l 1xfa
EndSplineSet
Validated: 1
EndChar

StartChar: Adieresis
Encoding: 196 196 129
Width: 1139
VWidth: 2048
Flags: W
HStem: 117 76.875<524.75 601.625> 509.25 21G<385.625 458> 620.625 55.5<499.148 630.21>
VStem: 385.625 69.375<516.668 573.784> 524.75 76.875<117 193.875> 528.5 65.25<252.375 343.97> 671 69.375<466.207 580.855>
LayerCount: 2
Fore
SplineSet
528.875 252.375 m 1xf6
 528.625 261.375 528.5 268.125 528.5 272.625 c 0
 528.5 299.125 532.25 322 539.75 341.25 c 0
 545.25 355.75 554.125 370.375 566.375 385.125 c 0
 575.375 395.875 591.5625 411.5625 614.9375 432.1875 c 0
 638.3125 452.8125 653.5 469.25 660.5 481.5 c 0
 667.5 493.75 671 507.125 671 521.625 c 0
 671 547.875 660.75 570.9375 640.25 590.8125 c 0
 619.75 610.6875 594.625 620.625 564.875 620.625 c 0
 536.125 620.625 512.125 611.625 492.875 593.625 c 0
 473.625 575.625 461 547.5 455 509.25 c 1
 385.625 517.5 l 1
 391.875 568.75 410.4375 608 441.3125 635.25 c 0
 472.1875 662.5 513 676.125 563.75 676.125 c 0
 617.5 676.125 660.375 661.5 692.375 632.25 c 0
 724.375 603 740.375 567.625 740.375 526.125 c 0
 740.375 502.125 734.75 480 723.5 459.75 c 0
 712.25 439.5 690.25 414.875 657.5 385.875 c 0
 635.5 366.375 621.125 352 614.375 342.75 c 0
 607.625 333.5 602.625 322.875 599.375 310.875 c 0
 596.125 298.875 594.25 279.375 593.75 252.375 c 1
 528.875 252.375 l 1xf6
524.75 117 m 1xfa
 524.75 193.875 l 1
 601.625 193.875 l 1
 601.625 117 l 1
 524.75 117 l 1xfa
EndSplineSet
Validated: 1
EndChar

StartChar: Aring
Encoding: 197 197 130
Width: 1139
VWidth: 2048
Flags: W
HStem: 117 76.875<524.75 601.625> 509.25 21G<385.625 458> 620.625 55.5<499.148 630.21>
VStem: 385.625 69.375<516.668 573.784> 524.75 76.875<117 193.875> 528.5 65.25<252.375 343.97> 671 69.375<466.207 580.855>
LayerCount: 2
Fore
SplineSet
528.875 252.375 m 1xf6
 528.625 261.375 528.5 268.125 528.5 272.625 c 0
 528.5 299.125 532.25 322 539.75 341.25 c 0
 545.25 355.75 554.125 370.375 566.375 385.125 c 0
 575.375 395.875 591.5625 411.5625 614.9375 432.1875 c 0
 638.3125 452.8125 653.5 469.25 660.5 481.5 c 0
 667.5 493.75 671 507.125 671 521.625 c 0
 671 547.875 660.75 570.9375 640.25 590.8125 c 0
 619.75 610.6875 594.625 620.625 564.875 620.625 c 0
 536.125 620.625 512.125 611.625 492.875 593.625 c 0
 473.625 575.625 461 547.5 455 509.25 c 1
 385.625 517.5 l 1
 391.875 568.75 410.4375 608 441.3125 635.25 c 0
 472.1875 662.5 513 676.125 563.75 676.125 c 0
 617.5 676.125 660.375 661.5 692.375 632.25 c 0
 724.375 603 740.375 567.625 740.375 526.125 c 0
 740.375 502.125 734.75 480 723.5 459.75 c 0
 712.25 439.5 690.25 414.875 657.5 385.875 c 0
 635.5 366.375 621.125 352 614.375 342.75 c 0
 607.625 333.5 602.625 322.875 599.375 310.875 c 0
 596.125 298.875 594.25 279.375 593.75 252.375 c 1
 528.875 252.375 l 1xf6
524.75 117 m 1xfa
 524.75 193.875 l 1
 601.625 193.875 l 1
 601.625 117 l 1
 524.75 117 l 1xfa
EndSplineSet
Validated: 1
EndChar

StartChar: AE
Encoding: 198 198 131
Width: 1139
VWidth: 2048
Flags: W
HStem: 117 76.875<524.75 601.625> 509.25 21G<385.625 458> 620.625 55.5<499.148 630.21>
VStem: 385.625 69.375<516.668 573.784> 524.75 76.875<117 193.875> 528.5 65.25<252.375 343.97> 671 69.375<466.207 580.855>
LayerCount: 2
Fore
SplineSet
528.875 252.375 m 1xf6
 528.625 261.375 528.5 268.125 528.5 272.625 c 0
 528.5 299.125 532.25 322 539.75 341.25 c 0
 545.25 355.75 554.125 370.375 566.375 385.125 c 0
 575.375 395.875 591.5625 411.5625 614.9375 432.1875 c 0
 638.3125 452.8125 653.5 469.25 660.5 481.5 c 0
 667.5 493.75 671 507.125 671 521.625 c 0
 671 547.875 660.75 570.9375 640.25 590.8125 c 0
 619.75 610.6875 594.625 620.625 564.875 620.625 c 0
 536.125 620.625 512.125 611.625 492.875 593.625 c 0
 473.625 575.625 461 547.5 455 509.25 c 1
 385.625 517.5 l 1
 391.875 568.75 410.4375 608 441.3125 635.25 c 0
 472.1875 662.5 513 676.125 563.75 676.125 c 0
 617.5 676.125 660.375 661.5 692.375 632.25 c 0
 724.375 603 740.375 567.625 740.375 526.125 c 0
 740.375 502.125 734.75 480 723.5 459.75 c 0
 712.25 439.5 690.25 414.875 657.5 385.875 c 0
 635.5 366.375 621.125 352 614.375 342.75 c 0
 607.625 333.5 602.625 322.875 599.375 310.875 c 0
 596.125 298.875 594.25 279.375 593.75 252.375 c 1
 528.875 252.375 l 1xf6
524.75 117 m 1xfa
 524.75 193.875 l 1
 601.625 193.875 l 1
 601.625 117 l 1
 524.75 117 l 1xfa
EndSplineSet
Validated: 1
EndChar

StartChar: Ccedilla
Encoding: 199 199 132
Width: 1139
VWidth: 2048
Flags: W
HStem: 117 76.875<524.75 601.625> 509.25 21G<385.625 458> 620.625 55.5<499.148 630.21>
VStem: 385.625 69.375<516.668 573.784> 524.75 76.875<117 193.875> 528.5 65.25<252.375 343.97> 671 69.375<466.207 580.855>
LayerCount: 2
Fore
SplineSet
528.875 252.375 m 1xf6
 528.625 261.375 528.5 268.125 528.5 272.625 c 0
 528.5 299.125 532.25 322 539.75 341.25 c 0
 545.25 355.75 554.125 370.375 566.375 385.125 c 0
 575.375 395.875 591.5625 411.5625 614.9375 432.1875 c 0
 638.3125 452.8125 653.5 469.25 660.5 481.5 c 0
 667.5 493.75 671 507.125 671 521.625 c 0
 671 547.875 660.75 570.9375 640.25 590.8125 c 0
 619.75 610.6875 594.625 620.625 564.875 620.625 c 0
 536.125 620.625 512.125 611.625 492.875 593.625 c 0
 473.625 575.625 461 547.5 455 509.25 c 1
 385.625 517.5 l 1
 391.875 568.75 410.4375 608 441.3125 635.25 c 0
 472.1875 662.5 513 676.125 563.75 676.125 c 0
 617.5 676.125 660.375 661.5 692.375 632.25 c 0
 724.375 603 740.375 567.625 740.375 526.125 c 0
 740.375 502.125 734.75 480 723.5 459.75 c 0
 712.25 439.5 690.25 414.875 657.5 385.875 c 0
 635.5 366.375 621.125 352 614.375 342.75 c 0
 607.625 333.5 602.625 322.875 599.375 310.875 c 0
 596.125 298.875 594.25 279.375 593.75 252.375 c 1
 528.875 252.375 l 1xf6
524.75 117 m 1xfa
 524.75 193.875 l 1
 601.625 193.875 l 1
 601.625 117 l 1
 524.75 117 l 1xfa
EndSplineSet
Validated: 1
EndChar

StartChar: Egrave
Encoding: 200 200 133
Width: 1139
VWidth: 2048
Flags: W
HStem: 117 76.875<524.75 601.625> 509.25 21G<385.625 458> 620.625 55.5<499.148 630.21>
VStem: 385.625 69.375<516.668 573.784> 524.75 76.875<117 193.875> 528.5 65.25<252.375 343.97> 671 69.375<466.207 580.855>
LayerCount: 2
Fore
SplineSet
528.875 252.375 m 1xf6
 528.625 261.375 528.5 268.125 528.5 272.625 c 0
 528.5 299.125 532.25 322 539.75 341.25 c 0
 545.25 355.75 554.125 370.375 566.375 385.125 c 0
 575.375 395.875 591.5625 411.5625 614.9375 432.1875 c 0
 638.3125 452.8125 653.5 469.25 660.5 481.5 c 0
 667.5 493.75 671 507.125 671 521.625 c 0
 671 547.875 660.75 570.9375 640.25 590.8125 c 0
 619.75 610.6875 594.625 620.625 564.875 620.625 c 0
 536.125 620.625 512.125 611.625 492.875 593.625 c 0
 473.625 575.625 461 547.5 455 509.25 c 1
 385.625 517.5 l 1
 391.875 568.75 410.4375 608 441.3125 635.25 c 0
 472.1875 662.5 513 676.125 563.75 676.125 c 0
 617.5 676.125 660.375 661.5 692.375 632.25 c 0
 724.375 603 740.375 567.625 740.375 526.125 c 0
 740.375 502.125 734.75 480 723.5 459.75 c 0
 712.25 439.5 690.25 414.875 657.5 385.875 c 0
 635.5 366.375 621.125 352 614.375 342.75 c 0
 607.625 333.5 602.625 322.875 599.375 310.875 c 0
 596.125 298.875 594.25 279.375 593.75 252.375 c 1
 528.875 252.375 l 1xf6
524.75 117 m 1xfa
 524.75 193.875 l 1
 601.625 193.875 l 1
 601.625 117 l 1
 524.75 117 l 1xfa
EndSplineSet
Validated: 1
EndChar

StartChar: Eacute
Encoding: 201 201 134
Width: 1139
VWidth: 2048
Flags: W
HStem: 117 76.875<524.75 601.625> 509.25 21G<385.625 458> 620.625 55.5<499.148 630.21>
VStem: 385.625 69.375<516.668 573.784> 524.75 76.875<117 193.875> 528.5 65.25<252.375 343.97> 671 69.375<466.207 580.855>
LayerCount: 2
Fore
SplineSet
528.875 252.375 m 1xf6
 528.625 261.375 528.5 268.125 528.5 272.625 c 0
 528.5 299.125 532.25 322 539.75 341.25 c 0
 545.25 355.75 554.125 370.375 566.375 385.125 c 0
 575.375 395.875 591.5625 411.5625 614.9375 432.1875 c 0
 638.3125 452.8125 653.5 469.25 660.5 481.5 c 0
 667.5 493.75 671 507.125 671 521.625 c 0
 671 547.875 660.75 570.9375 640.25 590.8125 c 0
 619.75 610.6875 594.625 620.625 564.875 620.625 c 0
 536.125 620.625 512.125 611.625 492.875 593.625 c 0
 473.625 575.625 461 547.5 455 509.25 c 1
 385.625 517.5 l 1
 391.875 568.75 410.4375 608 441.3125 635.25 c 0
 472.1875 662.5 513 676.125 563.75 676.125 c 0
 617.5 676.125 660.375 661.5 692.375 632.25 c 0
 724.375 603 740.375 567.625 740.375 526.125 c 0
 740.375 502.125 734.75 480 723.5 459.75 c 0
 712.25 439.5 690.25 414.875 657.5 385.875 c 0
 635.5 366.375 621.125 352 614.375 342.75 c 0
 607.625 333.5 602.625 322.875 599.375 310.875 c 0
 596.125 298.875 594.25 279.375 593.75 252.375 c 1
 528.875 252.375 l 1xf6
524.75 117 m 1xfa
 524.75 193.875 l 1
 601.625 193.875 l 1
 601.625 117 l 1
 524.75 117 l 1xfa
EndSplineSet
Validated: 1
EndChar

StartChar: Ecircumflex
Encoding: 202 202 135
Width: 1139
VWidth: 2048
Flags: W
HStem: 117 76.875<524.75 601.625> 509.25 21G<385.625 458> 620.625 55.5<499.148 630.21>
VStem: 385.625 69.375<516.668 573.784> 524.75 76.875<117 193.875> 528.5 65.25<252.375 343.97> 671 69.375<466.207 580.855>
LayerCount: 2
Fore
SplineSet
528.875 252.375 m 1xf6
 528.625 261.375 528.5 268.125 528.5 272.625 c 0
 528.5 299.125 532.25 322 539.75 341.25 c 0
 545.25 355.75 554.125 370.375 566.375 385.125 c 0
 575.375 395.875 591.5625 411.5625 614.9375 432.1875 c 0
 638.3125 452.8125 653.5 469.25 660.5 481.5 c 0
 667.5 493.75 671 507.125 671 521.625 c 0
 671 547.875 660.75 570.9375 640.25 590.8125 c 0
 619.75 610.6875 594.625 620.625 564.875 620.625 c 0
 536.125 620.625 512.125 611.625 492.875 593.625 c 0
 473.625 575.625 461 547.5 455 509.25 c 1
 385.625 517.5 l 1
 391.875 568.75 410.4375 608 441.3125 635.25 c 0
 472.1875 662.5 513 676.125 563.75 676.125 c 0
 617.5 676.125 660.375 661.5 692.375 632.25 c 0
 724.375 603 740.375 567.625 740.375 526.125 c 0
 740.375 502.125 734.75 480 723.5 459.75 c 0
 712.25 439.5 690.25 414.875 657.5 385.875 c 0
 635.5 366.375 621.125 352 614.375 342.75 c 0
 607.625 333.5 602.625 322.875 599.375 310.875 c 0
 596.125 298.875 594.25 279.375 593.75 252.375 c 1
 528.875 252.375 l 1xf6
524.75 117 m 1xfa
 524.75 193.875 l 1
 601.625 193.875 l 1
 601.625 117 l 1
 524.75 117 l 1xfa
EndSplineSet
Validated: 1
EndChar

StartChar: Edieresis
Encoding: 203 203 136
Width: 1139
VWidth: 2048
Flags: W
HStem: 117 76.875<524.75 601.625> 509.25 21G<385.625 458> 620.625 55.5<499.148 630.21>
VStem: 385.625 69.375<516.668 573.784> 524.75 76.875<117 193.875> 528.5 65.25<252.375 343.97> 671 69.375<466.207 580.855>
LayerCount: 2
Fore
SplineSet
528.875 252.375 m 1xf6
 528.625 261.375 528.5 268.125 528.5 272.625 c 0
 528.5 299.125 532.25 322 539.75 341.25 c 0
 545.25 355.75 554.125 370.375 566.375 385.125 c 0
 575.375 395.875 591.5625 411.5625 614.9375 432.1875 c 0
 638.3125 452.8125 653.5 469.25 660.5 481.5 c 0
 667.5 493.75 671 507.125 671 521.625 c 0
 671 547.875 660.75 570.9375 640.25 590.8125 c 0
 619.75 610.6875 594.625 620.625 564.875 620.625 c 0
 536.125 620.625 512.125 611.625 492.875 593.625 c 0
 473.625 575.625 461 547.5 455 509.25 c 1
 385.625 517.5 l 1
 391.875 568.75 410.4375 608 441.3125 635.25 c 0
 472.1875 662.5 513 676.125 563.75 676.125 c 0
 617.5 676.125 660.375 661.5 692.375 632.25 c 0
 724.375 603 740.375 567.625 740.375 526.125 c 0
 740.375 502.125 734.75 480 723.5 459.75 c 0
 712.25 439.5 690.25 414.875 657.5 385.875 c 0
 635.5 366.375 621.125 352 614.375 342.75 c 0
 607.625 333.5 602.625 322.875 599.375 310.875 c 0
 596.125 298.875 594.25 279.375 593.75 252.375 c 1
 528.875 252.375 l 1xf6
524.75 117 m 1xfa
 524.75 193.875 l 1
 601.625 193.875 l 1
 601.625 117 l 1
 524.75 117 l 1xfa
EndSplineSet
Validated: 1
EndChar

StartChar: Igrave
Encoding: 204 204 137
Width: 1139
VWidth: 2048
Flags: W
HStem: 117 76.875<524.75 601.625> 509.25 21G<385.625 458> 620.625 55.5<499.148 630.21>
VStem: 385.625 69.375<516.668 573.784> 524.75 76.875<117 193.875> 528.5 65.25<252.375 343.97> 671 69.375<466.207 580.855>
LayerCount: 2
Fore
SplineSet
528.875 252.375 m 1xf6
 528.625 261.375 528.5 268.125 528.5 272.625 c 0
 528.5 299.125 532.25 322 539.75 341.25 c 0
 545.25 355.75 554.125 370.375 566.375 385.125 c 0
 575.375 395.875 591.5625 411.5625 614.9375 432.1875 c 0
 638.3125 452.8125 653.5 469.25 660.5 481.5 c 0
 667.5 493.75 671 507.125 671 521.625 c 0
 671 547.875 660.75 570.9375 640.25 590.8125 c 0
 619.75 610.6875 594.625 620.625 564.875 620.625 c 0
 536.125 620.625 512.125 611.625 492.875 593.625 c 0
 473.625 575.625 461 547.5 455 509.25 c 1
 385.625 517.5 l 1
 391.875 568.75 410.4375 608 441.3125 635.25 c 0
 472.1875 662.5 513 676.125 563.75 676.125 c 0
 617.5 676.125 660.375 661.5 692.375 632.25 c 0
 724.375 603 740.375 567.625 740.375 526.125 c 0
 740.375 502.125 734.75 480 723.5 459.75 c 0
 712.25 439.5 690.25 414.875 657.5 385.875 c 0
 635.5 366.375 621.125 352 614.375 342.75 c 0
 607.625 333.5 602.625 322.875 599.375 310.875 c 0
 596.125 298.875 594.25 279.375 593.75 252.375 c 1
 528.875 252.375 l 1xf6
524.75 117 m 1xfa
 524.75 193.875 l 1
 601.625 193.875 l 1
 601.625 117 l 1
 524.75 117 l 1xfa
EndSplineSet
Validated: 1
EndChar

StartChar: Iacute
Encoding: 205 205 138
Width: 1139
VWidth: 2048
Flags: W
HStem: 117 76.875<524.75 601.625> 509.25 21G<385.625 458> 620.625 55.5<499.148 630.21>
VStem: 385.625 69.375<516.668 573.784> 524.75 76.875<117 193.875> 528.5 65.25<252.375 343.97> 671 69.375<466.207 580.855>
LayerCount: 2
Fore
SplineSet
528.875 252.375 m 1xf6
 528.625 261.375 528.5 268.125 528.5 272.625 c 0
 528.5 299.125 532.25 322 539.75 341.25 c 0
 545.25 355.75 554.125 370.375 566.375 385.125 c 0
 575.375 395.875 591.5625 411.5625 614.9375 432.1875 c 0
 638.3125 452.8125 653.5 469.25 660.5 481.5 c 0
 667.5 493.75 671 507.125 671 521.625 c 0
 671 547.875 660.75 570.9375 640.25 590.8125 c 0
 619.75 610.6875 594.625 620.625 564.875 620.625 c 0
 536.125 620.625 512.125 611.625 492.875 593.625 c 0
 473.625 575.625 461 547.5 455 509.25 c 1
 385.625 517.5 l 1
 391.875 568.75 410.4375 608 441.3125 635.25 c 0
 472.1875 662.5 513 676.125 563.75 676.125 c 0
 617.5 676.125 660.375 661.5 692.375 632.25 c 0
 724.375 603 740.375 567.625 740.375 526.125 c 0
 740.375 502.125 734.75 480 723.5 459.75 c 0
 712.25 439.5 690.25 414.875 657.5 385.875 c 0
 635.5 366.375 621.125 352 614.375 342.75 c 0
 607.625 333.5 602.625 322.875 599.375 310.875 c 0
 596.125 298.875 594.25 279.375 593.75 252.375 c 1
 528.875 252.375 l 1xf6
524.75 117 m 1xfa
 524.75 193.875 l 1
 601.625 193.875 l 1
 601.625 117 l 1
 524.75 117 l 1xfa
EndSplineSet
Validated: 1
EndChar

StartChar: Icircumflex
Encoding: 206 206 139
Width: 1139
VWidth: 2048
Flags: W
HStem: 117 76.875<524.75 601.625> 509.25 21G<385.625 458> 620.625 55.5<499.148 630.21>
VStem: 385.625 69.375<516.668 573.784> 524.75 76.875<117 193.875> 528.5 65.25<252.375 343.97> 671 69.375<466.207 580.855>
LayerCount: 2
Fore
SplineSet
528.875 252.375 m 1xf6
 528.625 261.375 528.5 268.125 528.5 272.625 c 0
 528.5 299.125 532.25 322 539.75 341.25 c 0
 545.25 355.75 554.125 370.375 566.375 385.125 c 0
 575.375 395.875 591.5625 411.5625 614.9375 432.1875 c 0
 638.3125 452.8125 653.5 469.25 660.5 481.5 c 0
 667.5 493.75 671 507.125 671 521.625 c 0
 671 547.875 660.75 570.9375 640.25 590.8125 c 0
 619.75 610.6875 594.625 620.625 564.875 620.625 c 0
 536.125 620.625 512.125 611.625 492.875 593.625 c 0
 473.625 575.625 461 547.5 455 509.25 c 1
 385.625 517.5 l 1
 391.875 568.75 410.4375 608 441.3125 635.25 c 0
 472.1875 662.5 513 676.125 563.75 676.125 c 0
 617.5 676.125 660.375 661.5 692.375 632.25 c 0
 724.375 603 740.375 567.625 740.375 526.125 c 0
 740.375 502.125 734.75 480 723.5 459.75 c 0
 712.25 439.5 690.25 414.875 657.5 385.875 c 0
 635.5 366.375 621.125 352 614.375 342.75 c 0
 607.625 333.5 602.625 322.875 599.375 310.875 c 0
 596.125 298.875 594.25 279.375 593.75 252.375 c 1
 528.875 252.375 l 1xf6
524.75 117 m 1xfa
 524.75 193.875 l 1
 601.625 193.875 l 1
 601.625 117 l 1
 524.75 117 l 1xfa
EndSplineSet
Validated: 1
EndChar

StartChar: Idieresis
Encoding: 207 207 140
Width: 1139
VWidth: 2048
Flags: W
HStem: 117 76.875<524.75 601.625> 509.25 21G<385.625 458> 620.625 55.5<499.148 630.21>
VStem: 385.625 69.375<516.668 573.784> 524.75 76.875<117 193.875> 528.5 65.25<252.375 343.97> 671 69.375<466.207 580.855>
LayerCount: 2
Fore
SplineSet
528.875 252.375 m 1xf6
 528.625 261.375 528.5 268.125 528.5 272.625 c 0
 528.5 299.125 532.25 322 539.75 341.25 c 0
 545.25 355.75 554.125 370.375 566.375 385.125 c 0
 575.375 395.875 591.5625 411.5625 614.9375 432.1875 c 0
 638.3125 452.8125 653.5 469.25 660.5 481.5 c 0
 667.5 493.75 671 507.125 671 521.625 c 0
 671 547.875 660.75 570.9375 640.25 590.8125 c 0
 619.75 610.6875 594.625 620.625 564.875 620.625 c 0
 536.125 620.625 512.125 611.625 492.875 593.625 c 0
 473.625 575.625 461 547.5 455 509.25 c 1
 385.625 517.5 l 1
 391.875 568.75 410.4375 608 441.3125 635.25 c 0
 472.1875 662.5 513 676.125 563.75 676.125 c 0
 617.5 676.125 660.375 661.5 692.375 632.25 c 0
 724.375 603 740.375 567.625 740.375 526.125 c 0
 740.375 502.125 734.75 480 723.5 459.75 c 0
 712.25 439.5 690.25 414.875 657.5 385.875 c 0
 635.5 366.375 621.125 352 614.375 342.75 c 0
 607.625 333.5 602.625 322.875 599.375 310.875 c 0
 596.125 298.875 594.25 279.375 593.75 252.375 c 1
 528.875 252.375 l 1xf6
524.75 117 m 1xfa
 524.75 193.875 l 1
 601.625 193.875 l 1
 601.625 117 l 1
 524.75 117 l 1xfa
EndSplineSet
Validated: 1
EndChar

StartChar: Eth
Encoding: 208 208 141
Width: 1139
VWidth: 2048
Flags: W
HStem: 117 76.875<524.75 601.625> 509.25 21G<385.625 458> 620.625 55.5<499.148 630.21>
VStem: 385.625 69.375<516.668 573.784> 524.75 76.875<117 193.875> 528.5 65.25<252.375 343.97> 671 69.375<466.207 580.855>
LayerCount: 2
Fore
SplineSet
528.875 252.375 m 1xf6
 528.625 261.375 528.5 268.125 528.5 272.625 c 0
 528.5 299.125 532.25 322 539.75 341.25 c 0
 545.25 355.75 554.125 370.375 566.375 385.125 c 0
 575.375 395.875 591.5625 411.5625 614.9375 432.1875 c 0
 638.3125 452.8125 653.5 469.25 660.5 481.5 c 0
 667.5 493.75 671 507.125 671 521.625 c 0
 671 547.875 660.75 570.9375 640.25 590.8125 c 0
 619.75 610.6875 594.625 620.625 564.875 620.625 c 0
 536.125 620.625 512.125 611.625 492.875 593.625 c 0
 473.625 575.625 461 547.5 455 509.25 c 1
 385.625 517.5 l 1
 391.875 568.75 410.4375 608 441.3125 635.25 c 0
 472.1875 662.5 513 676.125 563.75 676.125 c 0
 617.5 676.125 660.375 661.5 692.375 632.25 c 0
 724.375 603 740.375 567.625 740.375 526.125 c 0
 740.375 502.125 734.75 480 723.5 459.75 c 0
 712.25 439.5 690.25 414.875 657.5 385.875 c 0
 635.5 366.375 621.125 352 614.375 342.75 c 0
 607.625 333.5 602.625 322.875 599.375 310.875 c 0
 596.125 298.875 594.25 279.375 593.75 252.375 c 1
 528.875 252.375 l 1xf6
524.75 117 m 1xfa
 524.75 193.875 l 1
 601.625 193.875 l 1
 601.625 117 l 1
 524.75 117 l 1xfa
EndSplineSet
Validated: 1
EndChar

StartChar: Ntilde
Encoding: 209 209 142
Width: 1139
VWidth: 2048
Flags: W
HStem: 117 76.875<524.75 601.625> 509.25 21G<385.625 458> 620.625 55.5<499.148 630.21>
VStem: 385.625 69.375<516.668 573.784> 524.75 76.875<117 193.875> 528.5 65.25<252.375 343.97> 671 69.375<466.207 580.855>
LayerCount: 2
Fore
SplineSet
528.875 252.375 m 1xf6
 528.625 261.375 528.5 268.125 528.5 272.625 c 0
 528.5 299.125 532.25 322 539.75 341.25 c 0
 545.25 355.75 554.125 370.375 566.375 385.125 c 0
 575.375 395.875 591.5625 411.5625 614.9375 432.1875 c 0
 638.3125 452.8125 653.5 469.25 660.5 481.5 c 0
 667.5 493.75 671 507.125 671 521.625 c 0
 671 547.875 660.75 570.9375 640.25 590.8125 c 0
 619.75 610.6875 594.625 620.625 564.875 620.625 c 0
 536.125 620.625 512.125 611.625 492.875 593.625 c 0
 473.625 575.625 461 547.5 455 509.25 c 1
 385.625 517.5 l 1
 391.875 568.75 410.4375 608 441.3125 635.25 c 0
 472.1875 662.5 513 676.125 563.75 676.125 c 0
 617.5 676.125 660.375 661.5 692.375 632.25 c 0
 724.375 603 740.375 567.625 740.375 526.125 c 0
 740.375 502.125 734.75 480 723.5 459.75 c 0
 712.25 439.5 690.25 414.875 657.5 385.875 c 0
 635.5 366.375 621.125 352 614.375 342.75 c 0
 607.625 333.5 602.625 322.875 599.375 310.875 c 0
 596.125 298.875 594.25 279.375 593.75 252.375 c 1
 528.875 252.375 l 1xf6
524.75 117 m 1xfa
 524.75 193.875 l 1
 601.625 193.875 l 1
 601.625 117 l 1
 524.75 117 l 1xfa
EndSplineSet
Validated: 1
EndChar

StartChar: Ograve
Encoding: 210 210 143
Width: 1139
VWidth: 2048
Flags: W
HStem: 117 76.875<524.75 601.625> 509.25 21G<385.625 458> 620.625 55.5<499.148 630.21>
VStem: 385.625 69.375<516.668 573.784> 524.75 76.875<117 193.875> 528.5 65.25<252.375 343.97> 671 69.375<466.207 580.855>
LayerCount: 2
Fore
SplineSet
528.875 252.375 m 1xf6
 528.625 261.375 528.5 268.125 528.5 272.625 c 0
 528.5 299.125 532.25 322 539.75 341.25 c 0
 545.25 355.75 554.125 370.375 566.375 385.125 c 0
 575.375 395.875 591.5625 411.5625 614.9375 432.1875 c 0
 638.3125 452.8125 653.5 469.25 660.5 481.5 c 0
 667.5 493.75 671 507.125 671 521.625 c 0
 671 547.875 660.75 570.9375 640.25 590.8125 c 0
 619.75 610.6875 594.625 620.625 564.875 620.625 c 0
 536.125 620.625 512.125 611.625 492.875 593.625 c 0
 473.625 575.625 461 547.5 455 509.25 c 1
 385.625 517.5 l 1
 391.875 568.75 410.4375 608 441.3125 635.25 c 0
 472.1875 662.5 513 676.125 563.75 676.125 c 0
 617.5 676.125 660.375 661.5 692.375 632.25 c 0
 724.375 603 740.375 567.625 740.375 526.125 c 0
 740.375 502.125 734.75 480 723.5 459.75 c 0
 712.25 439.5 690.25 414.875 657.5 385.875 c 0
 635.5 366.375 621.125 352 614.375 342.75 c 0
 607.625 333.5 602.625 322.875 599.375 310.875 c 0
 596.125 298.875 594.25 279.375 593.75 252.375 c 1
 528.875 252.375 l 1xf6
524.75 117 m 1xfa
 524.75 193.875 l 1
 601.625 193.875 l 1
 601.625 117 l 1
 524.75 117 l 1xfa
EndSplineSet
Validated: 1
EndChar

StartChar: Oacute
Encoding: 211 211 144
Width: 1139
VWidth: 2048
Flags: W
HStem: 117 76.875<524.75 601.625> 509.25 21G<385.625 458> 620.625 55.5<499.148 630.21>
VStem: 385.625 69.375<516.668 573.784> 524.75 76.875<117 193.875> 528.5 65.25<252.375 343.97> 671 69.375<466.207 580.855>
LayerCount: 2
Fore
SplineSet
528.875 252.375 m 1xf6
 528.625 261.375 528.5 268.125 528.5 272.625 c 0
 528.5 299.125 532.25 322 539.75 341.25 c 0
 545.25 355.75 554.125 370.375 566.375 385.125 c 0
 575.375 395.875 591.5625 411.5625 614.9375 432.1875 c 0
 638.3125 452.8125 653.5 469.25 660.5 481.5 c 0
 667.5 493.75 671 507.125 671 521.625 c 0
 671 547.875 660.75 570.9375 640.25 590.8125 c 0
 619.75 610.6875 594.625 620.625 564.875 620.625 c 0
 536.125 620.625 512.125 611.625 492.875 593.625 c 0
 473.625 575.625 461 547.5 455 509.25 c 1
 385.625 517.5 l 1
 391.875 568.75 410.4375 608 441.3125 635.25 c 0
 472.1875 662.5 513 676.125 563.75 676.125 c 0
 617.5 676.125 660.375 661.5 692.375 632.25 c 0
 724.375 603 740.375 567.625 740.375 526.125 c 0
 740.375 502.125 734.75 480 723.5 459.75 c 0
 712.25 439.5 690.25 414.875 657.5 385.875 c 0
 635.5 366.375 621.125 352 614.375 342.75 c 0
 607.625 333.5 602.625 322.875 599.375 310.875 c 0
 596.125 298.875 594.25 279.375 593.75 252.375 c 1
 528.875 252.375 l 1xf6
524.75 117 m 1xfa
 524.75 193.875 l 1
 601.625 193.875 l 1
 601.625 117 l 1
 524.75 117 l 1xfa
EndSplineSet
Validated: 1
EndChar

StartChar: Ocircumflex
Encoding: 212 212 145
Width: 1139
VWidth: 2048
Flags: W
HStem: 117 76.875<524.75 601.625> 509.25 21G<385.625 458> 620.625 55.5<499.148 630.21>
VStem: 385.625 69.375<516.668 573.784> 524.75 76.875<117 193.875> 528.5 65.25<252.375 343.97> 671 69.375<466.207 580.855>
LayerCount: 2
Fore
SplineSet
528.875 252.375 m 1xf6
 528.625 261.375 528.5 268.125 528.5 272.625 c 0
 528.5 299.125 532.25 322 539.75 341.25 c 0
 545.25 355.75 554.125 370.375 566.375 385.125 c 0
 575.375 395.875 591.5625 411.5625 614.9375 432.1875 c 0
 638.3125 452.8125 653.5 469.25 660.5 481.5 c 0
 667.5 493.75 671 507.125 671 521.625 c 0
 671 547.875 660.75 570.9375 640.25 590.8125 c 0
 619.75 610.6875 594.625 620.625 564.875 620.625 c 0
 536.125 620.625 512.125 611.625 492.875 593.625 c 0
 473.625 575.625 461 547.5 455 509.25 c 1
 385.625 517.5 l 1
 391.875 568.75 410.4375 608 441.3125 635.25 c 0
 472.1875 662.5 513 676.125 563.75 676.125 c 0
 617.5 676.125 660.375 661.5 692.375 632.25 c 0
 724.375 603 740.375 567.625 740.375 526.125 c 0
 740.375 502.125 734.75 480 723.5 459.75 c 0
 712.25 439.5 690.25 414.875 657.5 385.875 c 0
 635.5 366.375 621.125 352 614.375 342.75 c 0
 607.625 333.5 602.625 322.875 599.375 310.875 c 0
 596.125 298.875 594.25 279.375 593.75 252.375 c 1
 528.875 252.375 l 1xf6
524.75 117 m 1xfa
 524.75 193.875 l 1
 601.625 193.875 l 1
 601.625 117 l 1
 524.75 117 l 1xfa
EndSplineSet
Validated: 1
EndChar

StartChar: Otilde
Encoding: 213 213 146
Width: 1139
VWidth: 2048
Flags: W
HStem: 117 76.875<524.75 601.625> 509.25 21G<385.625 458> 620.625 55.5<499.148 630.21>
VStem: 385.625 69.375<516.668 573.784> 524.75 76.875<117 193.875> 528.5 65.25<252.375 343.97> 671 69.375<466.207 580.855>
LayerCount: 2
Fore
SplineSet
528.875 252.375 m 1xf6
 528.625 261.375 528.5 268.125 528.5 272.625 c 0
 528.5 299.125 532.25 322 539.75 341.25 c 0
 545.25 355.75 554.125 370.375 566.375 385.125 c 0
 575.375 395.875 591.5625 411.5625 614.9375 432.1875 c 0
 638.3125 452.8125 653.5 469.25 660.5 481.5 c 0
 667.5 493.75 671 507.125 671 521.625 c 0
 671 547.875 660.75 570.9375 640.25 590.8125 c 0
 619.75 610.6875 594.625 620.625 564.875 620.625 c 0
 536.125 620.625 512.125 611.625 492.875 593.625 c 0
 473.625 575.625 461 547.5 455 509.25 c 1
 385.625 517.5 l 1
 391.875 568.75 410.4375 608 441.3125 635.25 c 0
 472.1875 662.5 513 676.125 563.75 676.125 c 0
 617.5 676.125 660.375 661.5 692.375 632.25 c 0
 724.375 603 740.375 567.625 740.375 526.125 c 0
 740.375 502.125 734.75 480 723.5 459.75 c 0
 712.25 439.5 690.25 414.875 657.5 385.875 c 0
 635.5 366.375 621.125 352 614.375 342.75 c 0
 607.625 333.5 602.625 322.875 599.375 310.875 c 0
 596.125 298.875 594.25 279.375 593.75 252.375 c 1
 528.875 252.375 l 1xf6
524.75 117 m 1xfa
 524.75 193.875 l 1
 601.625 193.875 l 1
 601.625 117 l 1
 524.75 117 l 1xfa
EndSplineSet
Validated: 1
EndChar

StartChar: Odieresis
Encoding: 214 214 147
Width: 1139
VWidth: 2048
Flags: W
HStem: 117 76.875<524.75 601.625> 509.25 21G<385.625 458> 620.625 55.5<499.148 630.21>
VStem: 385.625 69.375<516.668 573.784> 524.75 76.875<117 193.875> 528.5 65.25<252.375 343.97> 671 69.375<466.207 580.855>
LayerCount: 2
Fore
SplineSet
528.875 252.375 m 1xf6
 528.625 261.375 528.5 268.125 528.5 272.625 c 0
 528.5 299.125 532.25 322 539.75 341.25 c 0
 545.25 355.75 554.125 370.375 566.375 385.125 c 0
 575.375 395.875 591.5625 411.5625 614.9375 432.1875 c 0
 638.3125 452.8125 653.5 469.25 660.5 481.5 c 0
 667.5 493.75 671 507.125 671 521.625 c 0
 671 547.875 660.75 570.9375 640.25 590.8125 c 0
 619.75 610.6875 594.625 620.625 564.875 620.625 c 0
 536.125 620.625 512.125 611.625 492.875 593.625 c 0
 473.625 575.625 461 547.5 455 509.25 c 1
 385.625 517.5 l 1
 391.875 568.75 410.4375 608 441.3125 635.25 c 0
 472.1875 662.5 513 676.125 563.75 676.125 c 0
 617.5 676.125 660.375 661.5 692.375 632.25 c 0
 724.375 603 740.375 567.625 740.375 526.125 c 0
 740.375 502.125 734.75 480 723.5 459.75 c 0
 712.25 439.5 690.25 414.875 657.5 385.875 c 0
 635.5 366.375 621.125 352 614.375 342.75 c 0
 607.625 333.5 602.625 322.875 599.375 310.875 c 0
 596.125 298.875 594.25 279.375 593.75 252.375 c 1
 528.875 252.375 l 1xf6
524.75 117 m 1xfa
 524.75 193.875 l 1
 601.625 193.875 l 1
 601.625 117 l 1
 524.75 117 l 1xfa
EndSplineSet
Validated: 1
EndChar

StartChar: multiply
Encoding: 215 215 148
Width: 1139
VWidth: 2048
Flags: W
HStem: 117 76.875<524.75 601.625> 509.25 21G<385.625 458> 620.625 55.5<499.148 630.21>
VStem: 385.625 69.375<516.668 573.784> 524.75 76.875<117 193.875> 528.5 65.25<252.375 343.97> 671 69.375<466.207 580.855>
LayerCount: 2
Fore
SplineSet
528.875 252.375 m 1xf6
 528.625 261.375 528.5 268.125 528.5 272.625 c 0
 528.5 299.125 532.25 322 539.75 341.25 c 0
 545.25 355.75 554.125 370.375 566.375 385.125 c 0
 575.375 395.875 591.5625 411.5625 614.9375 432.1875 c 0
 638.3125 452.8125 653.5 469.25 660.5 481.5 c 0
 667.5 493.75 671 507.125 671 521.625 c 0
 671 547.875 660.75 570.9375 640.25 590.8125 c 0
 619.75 610.6875 594.625 620.625 564.875 620.625 c 0
 536.125 620.625 512.125 611.625 492.875 593.625 c 0
 473.625 575.625 461 547.5 455 509.25 c 1
 385.625 517.5 l 1
 391.875 568.75 410.4375 608 441.3125 635.25 c 0
 472.1875 662.5 513 676.125 563.75 676.125 c 0
 617.5 676.125 660.375 661.5 692.375 632.25 c 0
 724.375 603 740.375 567.625 740.375 526.125 c 0
 740.375 502.125 734.75 480 723.5 459.75 c 0
 712.25 439.5 690.25 414.875 657.5 385.875 c 0
 635.5 366.375 621.125 352 614.375 342.75 c 0
 607.625 333.5 602.625 322.875 599.375 310.875 c 0
 596.125 298.875 594.25 279.375 593.75 252.375 c 1
 528.875 252.375 l 1xf6
524.75 117 m 1xfa
 524.75 193.875 l 1
 601.625 193.875 l 1
 601.625 117 l 1
 524.75 117 l 1xfa
EndSplineSet
Validated: 1
EndChar

StartChar: Oslash
Encoding: 216 216 149
Width: 1139
VWidth: 2048
Flags: W
HStem: 117 76.875<524.75 601.625> 509.25 21G<385.625 458> 620.625 55.5<499.148 630.21>
VStem: 385.625 69.375<516.668 573.784> 524.75 76.875<117 193.875> 528.5 65.25<252.375 343.97> 671 69.375<466.207 580.855>
LayerCount: 2
Fore
SplineSet
528.875 252.375 m 1xf6
 528.625 261.375 528.5 268.125 528.5 272.625 c 0
 528.5 299.125 532.25 322 539.75 341.25 c 0
 545.25 355.75 554.125 370.375 566.375 385.125 c 0
 575.375 395.875 591.5625 411.5625 614.9375 432.1875 c 0
 638.3125 452.8125 653.5 469.25 660.5 481.5 c 0
 667.5 493.75 671 507.125 671 521.625 c 0
 671 547.875 660.75 570.9375 640.25 590.8125 c 0
 619.75 610.6875 594.625 620.625 564.875 620.625 c 0
 536.125 620.625 512.125 611.625 492.875 593.625 c 0
 473.625 575.625 461 547.5 455 509.25 c 1
 385.625 517.5 l 1
 391.875 568.75 410.4375 608 441.3125 635.25 c 0
 472.1875 662.5 513 676.125 563.75 676.125 c 0
 617.5 676.125 660.375 661.5 692.375 632.25 c 0
 724.375 603 740.375 567.625 740.375 526.125 c 0
 740.375 502.125 734.75 480 723.5 459.75 c 0
 712.25 439.5 690.25 414.875 657.5 385.875 c 0
 635.5 366.375 621.125 352 614.375 342.75 c 0
 607.625 333.5 602.625 322.875 599.375 310.875 c 0
 596.125 298.875 594.25 279.375 593.75 252.375 c 1
 528.875 252.375 l 1xf6
524.75 117 m 1xfa
 524.75 193.875 l 1
 601.625 193.875 l 1
 601.625 117 l 1
 524.75 117 l 1xfa
EndSplineSet
Validated: 1
EndChar

StartChar: Ugrave
Encoding: 217 217 150
Width: 1139
VWidth: 2048
Flags: W
HStem: 117 76.875<524.75 601.625> 509.25 21G<385.625 458> 620.625 55.5<499.148 630.21>
VStem: 385.625 69.375<516.668 573.784> 524.75 76.875<117 193.875> 528.5 65.25<252.375 343.97> 671 69.375<466.207 580.855>
LayerCount: 2
Fore
SplineSet
528.875 252.375 m 1xf6
 528.625 261.375 528.5 268.125 528.5 272.625 c 0
 528.5 299.125 532.25 322 539.75 341.25 c 0
 545.25 355.75 554.125 370.375 566.375 385.125 c 0
 575.375 395.875 591.5625 411.5625 614.9375 432.1875 c 0
 638.3125 452.8125 653.5 469.25 660.5 481.5 c 0
 667.5 493.75 671 507.125 671 521.625 c 0
 671 547.875 660.75 570.9375 640.25 590.8125 c 0
 619.75 610.6875 594.625 620.625 564.875 620.625 c 0
 536.125 620.625 512.125 611.625 492.875 593.625 c 0
 473.625 575.625 461 547.5 455 509.25 c 1
 385.625 517.5 l 1
 391.875 568.75 410.4375 608 441.3125 635.25 c 0
 472.1875 662.5 513 676.125 563.75 676.125 c 0
 617.5 676.125 660.375 661.5 692.375 632.25 c 0
 724.375 603 740.375 567.625 740.375 526.125 c 0
 740.375 502.125 734.75 480 723.5 459.75 c 0
 712.25 439.5 690.25 414.875 657.5 385.875 c 0
 635.5 366.375 621.125 352 614.375 342.75 c 0
 607.625 333.5 602.625 322.875 599.375 310.875 c 0
 596.125 298.875 594.25 279.375 593.75 252.375 c 1
 528.875 252.375 l 1xf6
524.75 117 m 1xfa
 524.75 193.875 l 1
 601.625 193.875 l 1
 601.625 117 l 1
 524.75 117 l 1xfa
EndSplineSet
Validated: 1
EndChar

StartChar: Uacute
Encoding: 218 218 151
Width: 1139
VWidth: 2048
Flags: W
HStem: 117 76.875<524.75 601.625> 509.25 21G<385.625 458> 620.625 55.5<499.148 630.21>
VStem: 385.625 69.375<516.668 573.784> 524.75 76.875<117 193.875> 528.5 65.25<252.375 343.97> 671 69.375<466.207 580.855>
LayerCount: 2
Fore
SplineSet
528.875 252.375 m 1xf6
 528.625 261.375 528.5 268.125 528.5 272.625 c 0
 528.5 299.125 532.25 322 539.75 341.25 c 0
 545.25 355.75 554.125 370.375 566.375 385.125 c 0
 575.375 395.875 591.5625 411.5625 614.9375 432.1875 c 0
 638.3125 452.8125 653.5 469.25 660.5 481.5 c 0
 667.5 493.75 671 507.125 671 521.625 c 0
 671 547.875 660.75 570.9375 640.25 590.8125 c 0
 619.75 610.6875 594.625 620.625 564.875 620.625 c 0
 536.125 620.625 512.125 611.625 492.875 593.625 c 0
 473.625 575.625 461 547.5 455 509.25 c 1
 385.625 517.5 l 1
 391.875 568.75 410.4375 608 441.3125 635.25 c 0
 472.1875 662.5 513 676.125 563.75 676.125 c 0
 617.5 676.125 660.375 661.5 692.375 632.25 c 0
 724.375 603 740.375 567.625 740.375 526.125 c 0
 740.375 502.125 734.75 480 723.5 459.75 c 0
 712.25 439.5 690.25 414.875 657.5 385.875 c 0
 635.5 366.375 621.125 352 614.375 342.75 c 0
 607.625 333.5 602.625 322.875 599.375 310.875 c 0
 596.125 298.875 594.25 279.375 593.75 252.375 c 1
 528.875 252.375 l 1xf6
524.75 117 m 1xfa
 524.75 193.875 l 1
 601.625 193.875 l 1
 601.625 117 l 1
 524.75 117 l 1xfa
EndSplineSet
Validated: 1
EndChar

StartChar: Ucircumflex
Encoding: 219 219 152
Width: 1139
VWidth: 2048
Flags: W
HStem: 117 76.875<524.75 601.625> 509.25 21G<385.625 458> 620.625 55.5<499.148 630.21>
VStem: 385.625 69.375<516.668 573.784> 524.75 76.875<117 193.875> 528.5 65.25<252.375 343.97> 671 69.375<466.207 580.855>
LayerCount: 2
Fore
SplineSet
528.875 252.375 m 1xf6
 528.625 261.375 528.5 268.125 528.5 272.625 c 0
 528.5 299.125 532.25 322 539.75 341.25 c 0
 545.25 355.75 554.125 370.375 566.375 385.125 c 0
 575.375 395.875 591.5625 411.5625 614.9375 432.1875 c 0
 638.3125 452.8125 653.5 469.25 660.5 481.5 c 0
 667.5 493.75 671 507.125 671 521.625 c 0
 671 547.875 660.75 570.9375 640.25 590.8125 c 0
 619.75 610.6875 594.625 620.625 564.875 620.625 c 0
 536.125 620.625 512.125 611.625 492.875 593.625 c 0
 473.625 575.625 461 547.5 455 509.25 c 1
 385.625 517.5 l 1
 391.875 568.75 410.4375 608 441.3125 635.25 c 0
 472.1875 662.5 513 676.125 563.75 676.125 c 0
 617.5 676.125 660.375 661.5 692.375 632.25 c 0
 724.375 603 740.375 567.625 740.375 526.125 c 0
 740.375 502.125 734.75 480 723.5 459.75 c 0
 712.25 439.5 690.25 414.875 657.5 385.875 c 0
 635.5 366.375 621.125 352 614.375 342.75 c 0
 607.625 333.5 602.625 322.875 599.375 310.875 c 0
 596.125 298.875 594.25 279.375 593.75 252.375 c 1
 528.875 252.375 l 1xf6
524.75 117 m 1xfa
 524.75 193.875 l 1
 601.625 193.875 l 1
 601.625 117 l 1
 524.75 117 l 1xfa
EndSplineSet
Validated: 1
EndChar

StartChar: Udieresis
Encoding: 220 220 153
Width: 1139
VWidth: 2048
Flags: W
HStem: 117 76.875<524.75 601.625> 509.25 21G<385.625 458> 620.625 55.5<499.148 630.21>
VStem: 385.625 69.375<516.668 573.784> 524.75 76.875<117 193.875> 528.5 65.25<252.375 343.97> 671 69.375<466.207 580.855>
LayerCount: 2
Fore
SplineSet
528.875 252.375 m 1xf6
 528.625 261.375 528.5 268.125 528.5 272.625 c 0
 528.5 299.125 532.25 322 539.75 341.25 c 0
 545.25 355.75 554.125 370.375 566.375 385.125 c 0
 575.375 395.875 591.5625 411.5625 614.9375 432.1875 c 0
 638.3125 452.8125 653.5 469.25 660.5 481.5 c 0
 667.5 493.75 671 507.125 671 521.625 c 0
 671 547.875 660.75 570.9375 640.25 590.8125 c 0
 619.75 610.6875 594.625 620.625 564.875 620.625 c 0
 536.125 620.625 512.125 611.625 492.875 593.625 c 0
 473.625 575.625 461 547.5 455 509.25 c 1
 385.625 517.5 l 1
 391.875 568.75 410.4375 608 441.3125 635.25 c 0
 472.1875 662.5 513 676.125 563.75 676.125 c 0
 617.5 676.125 660.375 661.5 692.375 632.25 c 0
 724.375 603 740.375 567.625 740.375 526.125 c 0
 740.375 502.125 734.75 480 723.5 459.75 c 0
 712.25 439.5 690.25 414.875 657.5 385.875 c 0
 635.5 366.375 621.125 352 614.375 342.75 c 0
 607.625 333.5 602.625 322.875 599.375 310.875 c 0
 596.125 298.875 594.25 279.375 593.75 252.375 c 1
 528.875 252.375 l 1xf6
524.75 117 m 1xfa
 524.75 193.875 l 1
 601.625 193.875 l 1
 601.625 117 l 1
 524.75 117 l 1xfa
EndSplineSet
Validated: 1
EndChar

StartChar: Yacute
Encoding: 221 221 154
Width: 1139
VWidth: 2048
Flags: W
HStem: 117 76.875<524.75 601.625> 509.25 21G<385.625 458> 620.625 55.5<499.148 630.21>
VStem: 385.625 69.375<516.668 573.784> 524.75 76.875<117 193.875> 528.5 65.25<252.375 343.97> 671 69.375<466.207 580.855>
LayerCount: 2
Fore
SplineSet
528.875 252.375 m 1xf6
 528.625 261.375 528.5 268.125 528.5 272.625 c 0
 528.5 299.125 532.25 322 539.75 341.25 c 0
 545.25 355.75 554.125 370.375 566.375 385.125 c 0
 575.375 395.875 591.5625 411.5625 614.9375 432.1875 c 0
 638.3125 452.8125 653.5 469.25 660.5 481.5 c 0
 667.5 493.75 671 507.125 671 521.625 c 0
 671 547.875 660.75 570.9375 640.25 590.8125 c 0
 619.75 610.6875 594.625 620.625 564.875 620.625 c 0
 536.125 620.625 512.125 611.625 492.875 593.625 c 0
 473.625 575.625 461 547.5 455 509.25 c 1
 385.625 517.5 l 1
 391.875 568.75 410.4375 608 441.3125 635.25 c 0
 472.1875 662.5 513 676.125 563.75 676.125 c 0
 617.5 676.125 660.375 661.5 692.375 632.25 c 0
 724.375 603 740.375 567.625 740.375 526.125 c 0
 740.375 502.125 734.75 480 723.5 459.75 c 0
 712.25 439.5 690.25 414.875 657.5 385.875 c 0
 635.5 366.375 621.125 352 614.375 342.75 c 0
 607.625 333.5 602.625 322.875 599.375 310.875 c 0
 596.125 298.875 594.25 279.375 593.75 252.375 c 1
 528.875 252.375 l 1xf6
524.75 117 m 1xfa
 524.75 193.875 l 1
 601.625 193.875 l 1
 601.625 117 l 1
 524.75 117 l 1xfa
EndSplineSet
Validated: 1
EndChar

StartChar: Thorn
Encoding: 222 222 155
Width: 1139
VWidth: 2048
Flags: W
HStem: 117 76.875<524.75 601.625> 509.25 21G<385.625 458> 620.625 55.5<499.148 630.21>
VStem: 385.625 69.375<516.668 573.784> 524.75 76.875<117 193.875> 528.5 65.25<252.375 343.97> 671 69.375<466.207 580.855>
LayerCount: 2
Fore
SplineSet
528.875 252.375 m 1xf6
 528.625 261.375 528.5 268.125 528.5 272.625 c 0
 528.5 299.125 532.25 322 539.75 341.25 c 0
 545.25 355.75 554.125 370.375 566.375 385.125 c 0
 575.375 395.875 591.5625 411.5625 614.9375 432.1875 c 0
 638.3125 452.8125 653.5 469.25 660.5 481.5 c 0
 667.5 493.75 671 507.125 671 521.625 c 0
 671 547.875 660.75 570.9375 640.25 590.8125 c 0
 619.75 610.6875 594.625 620.625 564.875 620.625 c 0
 536.125 620.625 512.125 611.625 492.875 593.625 c 0
 473.625 575.625 461 547.5 455 509.25 c 1
 385.625 517.5 l 1
 391.875 568.75 410.4375 608 441.3125 635.25 c 0
 472.1875 662.5 513 676.125 563.75 676.125 c 0
 617.5 676.125 660.375 661.5 692.375 632.25 c 0
 724.375 603 740.375 567.625 740.375 526.125 c 0
 740.375 502.125 734.75 480 723.5 459.75 c 0
 712.25 439.5 690.25 414.875 657.5 385.875 c 0
 635.5 366.375 621.125 352 614.375 342.75 c 0
 607.625 333.5 602.625 322.875 599.375 310.875 c 0
 596.125 298.875 594.25 279.375 593.75 252.375 c 1
 528.875 252.375 l 1xf6
524.75 117 m 1xfa
 524.75 193.875 l 1
 601.625 193.875 l 1
 601.625 117 l 1
 524.75 117 l 1xfa
EndSplineSet
Validated: 1
EndChar

StartChar: germandbls
Encoding: 223 223 156
Width: 1139
VWidth: 2048
Flags: W
HStem: 117 76.875<524.75 601.625> 509.25 21G<385.625 458> 620.625 55.5<499.148 630.21>
VStem: 385.625 69.375<516.668 573.784> 524.75 76.875<117 193.875> 528.5 65.25<252.375 343.97> 671 69.375<466.207 580.855>
LayerCount: 2
Fore
SplineSet
528.875 252.375 m 1xf6
 528.625 261.375 528.5 268.125 528.5 272.625 c 0
 528.5 299.125 532.25 322 539.75 341.25 c 0
 545.25 355.75 554.125 370.375 566.375 385.125 c 0
 575.375 395.875 591.5625 411.5625 614.9375 432.1875 c 0
 638.3125 452.8125 653.5 469.25 660.5 481.5 c 0
 667.5 493.75 671 507.125 671 521.625 c 0
 671 547.875 660.75 570.9375 640.25 590.8125 c 0
 619.75 610.6875 594.625 620.625 564.875 620.625 c 0
 536.125 620.625 512.125 611.625 492.875 593.625 c 0
 473.625 575.625 461 547.5 455 509.25 c 1
 385.625 517.5 l 1
 391.875 568.75 410.4375 608 441.3125 635.25 c 0
 472.1875 662.5 513 676.125 563.75 676.125 c 0
 617.5 676.125 660.375 661.5 692.375 632.25 c 0
 724.375 603 740.375 567.625 740.375 526.125 c 0
 740.375 502.125 734.75 480 723.5 459.75 c 0
 712.25 439.5 690.25 414.875 657.5 385.875 c 0
 635.5 366.375 621.125 352 614.375 342.75 c 0
 607.625 333.5 602.625 322.875 599.375 310.875 c 0
 596.125 298.875 594.25 279.375 593.75 252.375 c 1
 528.875 252.375 l 1xf6
524.75 117 m 1xfa
 524.75 193.875 l 1
 601.625 193.875 l 1
 601.625 117 l 1
 524.75 117 l 1xfa
EndSplineSet
Validated: 1
EndChar

StartChar: aacute
Encoding: 225 225 157
Width: 1139
VWidth: 2048
Flags: W
HStem: 117 76.875<524.75 601.625> 509.25 21G<385.625 458> 620.625 55.5<499.148 630.21>
VStem: 385.625 69.375<516.668 573.784> 524.75 76.875<117 193.875> 528.5 65.25<252.375 343.97> 671 69.375<466.207 580.855>
LayerCount: 2
Fore
SplineSet
528.875 252.375 m 1xf6
 528.625 261.375 528.5 268.125 528.5 272.625 c 0
 528.5 299.125 532.25 322 539.75 341.25 c 0
 545.25 355.75 554.125 370.375 566.375 385.125 c 0
 575.375 395.875 591.5625 411.5625 614.9375 432.1875 c 0
 638.3125 452.8125 653.5 469.25 660.5 481.5 c 0
 667.5 493.75 671 507.125 671 521.625 c 0
 671 547.875 660.75 570.9375 640.25 590.8125 c 0
 619.75 610.6875 594.625 620.625 564.875 620.625 c 0
 536.125 620.625 512.125 611.625 492.875 593.625 c 0
 473.625 575.625 461 547.5 455 509.25 c 1
 385.625 517.5 l 1
 391.875 568.75 410.4375 608 441.3125 635.25 c 0
 472.1875 662.5 513 676.125 563.75 676.125 c 0
 617.5 676.125 660.375 661.5 692.375 632.25 c 0
 724.375 603 740.375 567.625 740.375 526.125 c 0
 740.375 502.125 734.75 480 723.5 459.75 c 0
 712.25 439.5 690.25 414.875 657.5 385.875 c 0
 635.5 366.375 621.125 352 614.375 342.75 c 0
 607.625 333.5 602.625 322.875 599.375 310.875 c 0
 596.125 298.875 594.25 279.375 593.75 252.375 c 1
 528.875 252.375 l 1xf6
524.75 117 m 1xfa
 524.75 193.875 l 1
 601.625 193.875 l 1
 601.625 117 l 1
 524.75 117 l 1xfa
EndSplineSet
Validated: 1
EndChar

StartChar: acircumflex
Encoding: 226 226 158
Width: 1139
VWidth: 2048
Flags: W
HStem: 117 76.875<524.75 601.625> 509.25 21G<385.625 458> 620.625 55.5<499.148 630.21>
VStem: 385.625 69.375<516.668 573.784> 524.75 76.875<117 193.875> 528.5 65.25<252.375 343.97> 671 69.375<466.207 580.855>
LayerCount: 2
Fore
SplineSet
528.875 252.375 m 1xf6
 528.625 261.375 528.5 268.125 528.5 272.625 c 0
 528.5 299.125 532.25 322 539.75 341.25 c 0
 545.25 355.75 554.125 370.375 566.375 385.125 c 0
 575.375 395.875 591.5625 411.5625 614.9375 432.1875 c 0
 638.3125 452.8125 653.5 469.25 660.5 481.5 c 0
 667.5 493.75 671 507.125 671 521.625 c 0
 671 547.875 660.75 570.9375 640.25 590.8125 c 0
 619.75 610.6875 594.625 620.625 564.875 620.625 c 0
 536.125 620.625 512.125 611.625 492.875 593.625 c 0
 473.625 575.625 461 547.5 455 509.25 c 1
 385.625 517.5 l 1
 391.875 568.75 410.4375 608 441.3125 635.25 c 0
 472.1875 662.5 513 676.125 563.75 676.125 c 0
 617.5 676.125 660.375 661.5 692.375 632.25 c 0
 724.375 603 740.375 567.625 740.375 526.125 c 0
 740.375 502.125 734.75 480 723.5 459.75 c 0
 712.25 439.5 690.25 414.875 657.5 385.875 c 0
 635.5 366.375 621.125 352 614.375 342.75 c 0
 607.625 333.5 602.625 322.875 599.375 310.875 c 0
 596.125 298.875 594.25 279.375 593.75 252.375 c 1
 528.875 252.375 l 1xf6
524.75 117 m 1xfa
 524.75 193.875 l 1
 601.625 193.875 l 1
 601.625 117 l 1
 524.75 117 l 1xfa
EndSplineSet
Validated: 1
EndChar

